%FSLAX33Y33*%
%MOMM*%
%AMRect-W1500000-H2500000-RO0.500*
21,1,1.5,2.5,0.,0.,270*%
%AMRect-W7000000-H7000000-RO0.500*
21,1,7.,7.,0.,0.,270*%
%AMRect-W1100000-H1100000-RO1.500*
21,1,1.1,1.1,0.,0.,90*%
%AMRect-W1500000-H1500000-RO0.500*
21,1,1.5,1.5,0.,0.,270*%
%ADD10C,0.0508*%
%ADD11C,0.508*%
%ADD12Rect-W1500000-H2500000-RO0.500*%
%ADD13Rect-W7000000-H7000000-RO0.500*%
%ADD14C,1.45*%
%ADD15C,1.6*%
%ADD16C,1.4*%
%ADD17C,1.1*%
%ADD18Rect-W1100000-H1100000-RO1.500*%
%ADD19C,1.5*%
%ADD20Rect-W1500000-H1500000-RO0.500*%
%ADD21C,1.6*%
%ADD22R,1.5X1.5*%
%ADD23C,1.5*%
D10*
%LNpour fill*%
G01*
X8119Y-10667D02*
X8119Y-10667D01*
X8055Y-10625*
X8053Y-10623*
X5646Y-8217*
X5544Y-8259*
X5541Y-8260*
X5302Y-8291*
X5298Y-8291*
X5059Y-8260*
X5056Y-8259*
X4833Y-8167*
X4830Y-8165*
X4715Y-8077*
X4617Y-8125*
X4617Y-8421*
X5171Y-8975*
X5298Y-8959*
X5302Y-8959*
X5541Y-8990*
X5544Y-8991*
X5767Y-9083*
X5770Y-9085*
X5961Y-9232*
X5963Y-9234*
X6110Y-9425*
X6112Y-9428*
X6204Y-9651*
X6205Y-9654*
X6236Y-9893*
X6236Y-9897*
X6205Y-10136*
X6204Y-10139*
X6153Y-10263*
X6649Y-10758*
X8091Y-10758*
X8119Y-10667*
X6624Y-10734D02*
X8098Y-10734D01*
X6575Y-10685D02*
X8114Y-10685D01*
X6525Y-10635D02*
X8070Y-10635D01*
X6476Y-10586D02*
X8016Y-10586D01*
X6426Y-10536D02*
X7966Y-10536D01*
X6377Y-10487D02*
X7916Y-10487D01*
X6327Y-10437D02*
X7867Y-10437D01*
X6278Y-10388D02*
X7817Y-10388D01*
X6228Y-10338D02*
X7768Y-10338D01*
X6179Y-10289D02*
X7718Y-10289D01*
X6163Y-10239D02*
X7669Y-10239D01*
X6183Y-10189D02*
X7619Y-10189D01*
X6204Y-10140D02*
X7570Y-10140D01*
X6211Y-10090D02*
X7520Y-10090D01*
X6217Y-10041D02*
X7471Y-10041D01*
X6224Y-9991D02*
X7421Y-9991D01*
X6230Y-9942D02*
X7372Y-9942D01*
X6236Y-9892D02*
X7322Y-9892D01*
X6230Y-9843D02*
X7273Y-9843D01*
X6223Y-9793D02*
X7223Y-9793D01*
X6217Y-9744D02*
X7174Y-9744D01*
X6210Y-9694D02*
X7124Y-9694D01*
X6201Y-9645D02*
X7074Y-9645D01*
X6181Y-9595D02*
X7025Y-9595D01*
X6160Y-9546D02*
X6975Y-9546D01*
X6140Y-9496D02*
X6926Y-9496D01*
X6119Y-9447D02*
X6876Y-9447D01*
X6088Y-9397D02*
X6827Y-9397D01*
X6050Y-9347D02*
X6777Y-9347D01*
X6012Y-9298D02*
X6728Y-9298D01*
X5974Y-9248D02*
X6678Y-9248D01*
X5918Y-9199D02*
X6629Y-9199D01*
X5854Y-9149D02*
X6579Y-9149D01*
X5789Y-9100D02*
X6530Y-9100D01*
X5687Y-9050D02*
X6480Y-9050D01*
X5568Y-9001D02*
X6431Y-9001D01*
X5146Y-8951D02*
X6381Y-8951D01*
X5097Y-8902D02*
X6332Y-8902D01*
X5047Y-8852D02*
X6282Y-8852D01*
X4998Y-8803D02*
X6232Y-8803D01*
X4948Y-8753D02*
X6183Y-8753D01*
X4899Y-8704D02*
X6133Y-8704D01*
X4849Y-8654D02*
X6084Y-8654D01*
X4800Y-8605D02*
X6034Y-8605D01*
X4750Y-8555D02*
X5985Y-8555D01*
X4701Y-8505D02*
X5935Y-8505D01*
X4651Y-8456D02*
X5886Y-8456D01*
X4617Y-8406D02*
X5836Y-8406D01*
X4617Y-8357D02*
X5787Y-8357D01*
X4617Y-8307D02*
X5737Y-8307D01*
X4617Y-8258D02*
X5053Y-8258D01*
X5547Y-8258D02*
X5688Y-8258D01*
X4617Y-8208D02*
X4933Y-8208D01*
X4617Y-8159D02*
X4822Y-8159D01*
X4649Y-8109D02*
X4758Y-8109D01*
X29170Y-11164D02*
X29170Y-11164D01*
X29163Y-11159*
X29161Y-11157*
X29006Y-10955*
X29005Y-10952*
X28907Y-10717*
X28906Y-10714*
X28873Y-10462*
X28873Y-10458*
X28906Y-10206*
X28907Y-10203*
X29005Y-9968*
X29006Y-9965*
X29161Y-9763*
X29163Y-9761*
X29365Y-9606*
X29368Y-9605*
X29603Y-9507*
X29606Y-9506*
X29858Y-9473*
X29862Y-9473*
X29990Y-9490*
X30103Y-9377*
X30105Y-9375*
X30260Y-9272*
X30264Y-9270*
X30446Y-9234*
X30449Y-9233*
X32585Y-9233*
X32616Y-9141*
X32571Y-9106*
X32569Y-9104*
X32446Y-8944*
X32444Y-8941*
X32367Y-8755*
X32366Y-8752*
X32340Y-8552*
X32340Y-8548*
X32366Y-8348*
X32367Y-8345*
X32444Y-8159*
X32446Y-8156*
X32569Y-7996*
X32571Y-7994*
X32633Y-7946*
X32633Y-7020*
X32608Y-7009*
X32605Y-7007*
X32393Y-6845*
X32390Y-6842*
X32228Y-6630*
X32226Y-6627*
X32124Y-6380*
X32123Y-6377*
X32089Y-6121*
X32085Y-6117*
X30508Y-6117*
X30355Y-6234*
X30352Y-6235*
X30117Y-6333*
X30114Y-6334*
X29862Y-6367*
X29858Y-6367*
X29606Y-6334*
X29603Y-6333*
X29368Y-6235*
X29365Y-6234*
X29163Y-6079*
X29161Y-6077*
X29006Y-5875*
X29005Y-5872*
X28907Y-5637*
X28906Y-5634*
X28873Y-5382*
X28873Y-5378*
X28906Y-5126*
X28907Y-5123*
X29005Y-4888*
X29006Y-4885*
X29161Y-4683*
X29163Y-4681*
X29365Y-4526*
X29368Y-4525*
X29603Y-4427*
X29606Y-4426*
X29858Y-4393*
X29862Y-4393*
X30114Y-4426*
X30117Y-4427*
X30352Y-4525*
X30355Y-4526*
X30557Y-4681*
X30559Y-4683*
X30714Y-4885*
X30715Y-4888*
X30813Y-5123*
X30814Y-5126*
X30815Y-5133*
X32641Y-5133*
X32644Y-5134*
X32745Y-5154*
X32855Y-5109*
X32858Y-5108*
X33123Y-5073*
X33127Y-5073*
X33392Y-5108*
X33395Y-5109*
X33642Y-5211*
X33645Y-5213*
X33857Y-5375*
X33860Y-5378*
X34022Y-5590*
X34024Y-5593*
X34126Y-5840*
X34127Y-5843*
X34162Y-6108*
X34162Y-6112*
X34127Y-6377*
X34126Y-6380*
X34024Y-6627*
X34022Y-6630*
X33860Y-6842*
X33857Y-6845*
X33645Y-7007*
X33642Y-7009*
X33617Y-7020*
X33617Y-7946*
X33679Y-7994*
X33681Y-7996*
X33804Y-8156*
X33806Y-8159*
X33883Y-8345*
X33884Y-8348*
X33910Y-8548*
X33910Y-8552*
X33884Y-8752*
X33883Y-8755*
X33806Y-8941*
X33804Y-8944*
X33681Y-9104*
X33679Y-9106*
X33634Y-9141*
X33665Y-9233*
X35446Y-9233*
X36285Y-8395*
X36291Y-8348*
X36292Y-8345*
X36369Y-8159*
X36371Y-8156*
X36494Y-7996*
X36496Y-7994*
X36558Y-7946*
X36558Y-7020*
X36533Y-7009*
X36530Y-7007*
X36318Y-6845*
X36315Y-6842*
X36153Y-6630*
X36151Y-6627*
X36049Y-6380*
X36048Y-6377*
X36013Y-6112*
X36013Y-6108*
X36048Y-5843*
X36049Y-5840*
X36151Y-5593*
X36153Y-5590*
X36315Y-5378*
X36318Y-5375*
X36530Y-5213*
X36533Y-5211*
X36780Y-5109*
X36783Y-5108*
X37048Y-5073*
X37052Y-5073*
X37317Y-5108*
X37320Y-5109*
X37567Y-5211*
X37570Y-5213*
X37660Y-5281*
X37758Y-5233*
X37758Y0633*
X37660Y0681*
X37570Y0613*
X37567Y0611*
X37320Y0509*
X37317Y0508*
X37052Y0473*
X37048Y0473*
X36783Y0508*
X36780Y0509*
X36533Y0611*
X36530Y0613*
X36318Y0775*
X36315Y0778*
X36153Y0990*
X36151Y0993*
X36049Y1240*
X36048Y1243*
X36039Y1308*
X34136Y1308*
X34127Y1243*
X34126Y1240*
X34024Y0993*
X34022Y0990*
X33860Y0778*
X33857Y0775*
X33645Y0613*
X33642Y0611*
X33617Y0600*
X33617Y0499*
X33616Y0496*
X33580Y0314*
X33578Y0310*
X33475Y0155*
X33473Y0153*
X30791Y-2530*
X30813Y-2583*
X30814Y-2586*
X30847Y-2838*
X30847Y-2842*
X30814Y-3094*
X30813Y-3097*
X30715Y-3332*
X30714Y-3335*
X30559Y-3537*
X30557Y-3539*
X30355Y-3694*
X30352Y-3695*
X30117Y-3793*
X30114Y-3794*
X29862Y-3827*
X29858Y-3827*
X29606Y-3794*
X29603Y-3793*
X29578Y-3782*
X26262Y-7098*
X26260Y-7100*
X26105Y-7203*
X26101Y-7205*
X25919Y-7241*
X25916Y-7242*
X23077Y-7242*
X23029Y-7340*
X23094Y-7425*
X23095Y-7428*
X23193Y-7663*
X23194Y-7666*
X23227Y-7918*
X23227Y-7922*
X23194Y-8174*
X23193Y-8177*
X23095Y-8412*
X23094Y-8415*
X22939Y-8617*
X22937Y-8619*
X22735Y-8774*
X22732Y-8775*
X22497Y-8873*
X22494Y-8874*
X22242Y-8907*
X22238Y-8907*
X21986Y-8874*
X21983Y-8873*
X21748Y-8775*
X21745Y-8774*
X21543Y-8619*
X21541Y-8617*
X21386Y-8415*
X21385Y-8412*
X21287Y-8177*
X21286Y-8174*
X21253Y-7922*
X21253Y-7918*
X21286Y-7666*
X21287Y-7663*
X21385Y-7428*
X21386Y-7425*
X21451Y-7340*
X21403Y-7242*
X21204Y-7242*
X20001Y-8445*
X20024Y-8623*
X20024Y-8627*
X19992Y-8872*
X19991Y-8875*
X19896Y-9104*
X19894Y-9107*
X19744Y-9304*
X19741Y-9306*
X19545Y-9457*
X19542Y-9459*
X19313Y-9553*
X19310Y-9554*
X19064Y-9587*
X19061Y-9587*
X18815Y-9554*
X18812Y-9553*
X18769Y-9536*
X18703Y-9601*
X18721Y-9645*
X18722Y-9648*
X18754Y-9893*
X18754Y-9897*
X18722Y-10142*
X18721Y-10145*
X18626Y-10374*
X18624Y-10377*
X18474Y-10574*
X18471Y-10576*
X18275Y-10727*
X18272Y-10729*
X18043Y-10823*
X18040Y-10824*
X17794Y-10857*
X17791Y-10857*
X17545Y-10824*
X17542Y-10823*
X17333Y-10737*
X16907Y-11164*
X16942Y-11250*
X21521Y-11250*
X21550Y-11164*
X21543Y-11159*
X21541Y-11157*
X21386Y-10955*
X21385Y-10952*
X21287Y-10717*
X21286Y-10714*
X21253Y-10462*
X21253Y-10458*
X21286Y-10206*
X21287Y-10203*
X21385Y-9968*
X21386Y-9965*
X21541Y-9763*
X21543Y-9761*
X21745Y-9606*
X21748Y-9605*
X21983Y-9507*
X21986Y-9506*
X22238Y-9473*
X22242Y-9473*
X22494Y-9506*
X22497Y-9507*
X22732Y-9605*
X22735Y-9606*
X22937Y-9761*
X22939Y-9763*
X23094Y-9965*
X23095Y-9968*
X23193Y-10203*
X23194Y-10206*
X23227Y-10458*
X23227Y-10462*
X23194Y-10714*
X23193Y-10717*
X23095Y-10952*
X23094Y-10955*
X22939Y-11157*
X22937Y-11159*
X22930Y-11164*
X22959Y-11250*
X29141Y-11250*
X29170Y-11164*
X30114Y-8874D02*
X30114Y-8874D01*
X30117Y-8873*
X30352Y-8775*
X30355Y-8774*
X30557Y-8619*
X30559Y-8617*
X30714Y-8415*
X30715Y-8412*
X30813Y-8177*
X30814Y-8174*
X30847Y-7922*
X30847Y-7918*
X30814Y-7666*
X30813Y-7663*
X30715Y-7428*
X30714Y-7425*
X30559Y-7223*
X30557Y-7221*
X30355Y-7066*
X30352Y-7065*
X30117Y-6967*
X30114Y-6966*
X29862Y-6933*
X29858Y-6933*
X29606Y-6966*
X29603Y-6967*
X29368Y-7065*
X29365Y-7066*
X29163Y-7221*
X29161Y-7223*
X29006Y-7425*
X29005Y-7428*
X28907Y-7663*
X28906Y-7666*
X28873Y-7918*
X28873Y-7922*
X28906Y-8174*
X28907Y-8177*
X29005Y-8412*
X29006Y-8415*
X29161Y-8617*
X29163Y-8619*
X29365Y-8774*
X29368Y-8775*
X29603Y-8873*
X29606Y-8874*
X29858Y-8907*
X29862Y-8907*
X30114Y-8874*
X16932Y-11225D02*
X21529Y-11225D01*
X22951Y-11225D02*
X29149Y-11225D01*
X16912Y-11176D02*
X21546Y-11176D01*
X22934Y-11176D02*
X29166Y-11176D01*
X16944Y-11126D02*
X21518Y-11126D01*
X22962Y-11126D02*
X29138Y-11126D01*
X16993Y-11077D02*
X21480Y-11077D01*
X23000Y-11077D02*
X29100Y-11077D01*
X17043Y-11027D02*
X21442Y-11027D01*
X23038Y-11027D02*
X29062Y-11027D01*
X17092Y-10978D02*
X21404Y-10978D01*
X23076Y-10978D02*
X29024Y-10978D01*
X17142Y-10928D02*
X21375Y-10928D01*
X23105Y-10928D02*
X28995Y-10928D01*
X17191Y-10879D02*
X21354Y-10879D01*
X23126Y-10879D02*
X28974Y-10879D01*
X17241Y-10829D02*
X17583Y-10829D01*
X18002Y-10829D02*
X21334Y-10829D01*
X23146Y-10829D02*
X28954Y-10829D01*
X17290Y-10780D02*
X17436Y-10780D01*
X18149Y-10780D02*
X21313Y-10780D01*
X23167Y-10780D02*
X28933Y-10780D01*
X18268Y-10730D02*
X21293Y-10730D01*
X23187Y-10730D02*
X28913Y-10730D01*
X18335Y-10681D02*
X21282Y-10681D01*
X23198Y-10681D02*
X28902Y-10681D01*
X18400Y-10631D02*
X21275Y-10631D01*
X23205Y-10631D02*
X28895Y-10631D01*
X18464Y-10582D02*
X21269Y-10582D01*
X23211Y-10582D02*
X28889Y-10582D01*
X18506Y-10532D02*
X21262Y-10532D01*
X23218Y-10532D02*
X28882Y-10532D01*
X18544Y-10483D02*
X21256Y-10483D01*
X23224Y-10483D02*
X28876Y-10483D01*
X18582Y-10433D02*
X21257Y-10433D01*
X23223Y-10433D02*
X28877Y-10433D01*
X18620Y-10383D02*
X21263Y-10383D01*
X23217Y-10383D02*
X28883Y-10383D01*
X18643Y-10334D02*
X21270Y-10334D01*
X23210Y-10334D02*
X28890Y-10334D01*
X18663Y-10284D02*
X21276Y-10284D01*
X23204Y-10284D02*
X28896Y-10284D01*
X18684Y-10235D02*
X21283Y-10235D01*
X23197Y-10235D02*
X28903Y-10235D01*
X18704Y-10185D02*
X21295Y-10185D01*
X23185Y-10185D02*
X28915Y-10185D01*
X18723Y-10136D02*
X21315Y-10136D01*
X23165Y-10136D02*
X28935Y-10136D01*
X18729Y-10086D02*
X21336Y-10086D01*
X23144Y-10086D02*
X28956Y-10086D01*
X18736Y-10037D02*
X21356Y-10037D01*
X23124Y-10037D02*
X28976Y-10037D01*
X18742Y-9987D02*
X21377Y-9987D01*
X23103Y-9987D02*
X28997Y-9987D01*
X18749Y-9938D02*
X21407Y-9938D01*
X23073Y-9938D02*
X29027Y-9938D01*
X18753Y-9888D02*
X21445Y-9888D01*
X23035Y-9888D02*
X29065Y-9888D01*
X18747Y-9839D02*
X21483Y-9839D01*
X22997Y-9839D02*
X29103Y-9839D01*
X18740Y-9789D02*
X21521Y-9789D01*
X22959Y-9789D02*
X29141Y-9789D01*
X18734Y-9740D02*
X21571Y-9740D01*
X22909Y-9740D02*
X29191Y-9740D01*
X18727Y-9690D02*
X21636Y-9690D01*
X22844Y-9690D02*
X29256Y-9690D01*
X18719Y-9641D02*
X21700Y-9641D01*
X22780Y-9641D02*
X29320Y-9641D01*
X18713Y-9591D02*
X21781Y-9591D01*
X22699Y-9591D02*
X29401Y-9591D01*
X18763Y-9541D02*
X18783Y-9541D01*
X19342Y-9541D02*
X21900Y-9541D01*
X22580Y-9541D02*
X29520Y-9541D01*
X19461Y-9492D02*
X22096Y-9492D01*
X22384Y-9492D02*
X29716Y-9492D01*
X19564Y-9442D02*
X30037Y-9442D01*
X19628Y-9393D02*
X30087Y-9393D01*
X19693Y-9343D02*
X30153Y-9343D01*
X19751Y-9294D02*
X30227Y-9294D01*
X19789Y-9244D02*
X30393Y-9244D01*
X19827Y-9195D02*
X32598Y-9195D01*
X33652Y-9195D02*
X35485Y-9195D01*
X19865Y-9145D02*
X32615Y-9145D01*
X33635Y-9145D02*
X35535Y-9145D01*
X19900Y-9096D02*
X32562Y-9096D01*
X33688Y-9096D02*
X35584Y-9096D01*
X19920Y-9046D02*
X32524Y-9046D01*
X33726Y-9046D02*
X35634Y-9046D01*
X19941Y-8997D02*
X32486Y-8997D01*
X33764Y-8997D02*
X35683Y-8997D01*
X19961Y-8947D02*
X32448Y-8947D01*
X33802Y-8947D02*
X35733Y-8947D01*
X19982Y-8898D02*
X22168Y-8898D01*
X22312Y-8898D02*
X29788Y-8898D01*
X29932Y-8898D02*
X32426Y-8898D01*
X33824Y-8898D02*
X35782Y-8898D01*
X19995Y-8848D02*
X21923Y-8848D01*
X22557Y-8848D02*
X29543Y-8848D01*
X30177Y-8848D02*
X32406Y-8848D01*
X33844Y-8848D02*
X35832Y-8848D01*
X20001Y-8799D02*
X21804Y-8799D01*
X22676Y-8799D02*
X29424Y-8799D01*
X30296Y-8799D02*
X32385Y-8799D01*
X33865Y-8799D02*
X35881Y-8799D01*
X20008Y-8749D02*
X21713Y-8749D01*
X22767Y-8749D02*
X29333Y-8749D01*
X30387Y-8749D02*
X32366Y-8749D01*
X33884Y-8749D02*
X35931Y-8749D01*
X20015Y-8699D02*
X21648Y-8699D01*
X22832Y-8699D02*
X29268Y-8699D01*
X30452Y-8699D02*
X32359Y-8699D01*
X33891Y-8699D02*
X35980Y-8699D01*
X20021Y-8650D02*
X21584Y-8650D01*
X22896Y-8650D02*
X29204Y-8650D01*
X30516Y-8650D02*
X32353Y-8650D01*
X33897Y-8650D02*
X36030Y-8650D01*
X20021Y-8600D02*
X21529Y-8600D01*
X22951Y-8600D02*
X29149Y-8600D01*
X30571Y-8600D02*
X32346Y-8600D01*
X33904Y-8600D02*
X36079Y-8600D01*
X20015Y-8551D02*
X21491Y-8551D01*
X22989Y-8551D02*
X29111Y-8551D01*
X30609Y-8551D02*
X32340Y-8551D01*
X33910Y-8551D02*
X36129Y-8551D01*
X20008Y-8501D02*
X21453Y-8501D01*
X23027Y-8501D02*
X29073Y-8501D01*
X30647Y-8501D02*
X32346Y-8501D01*
X33904Y-8501D02*
X36179Y-8501D01*
X20002Y-8452D02*
X21415Y-8452D01*
X23065Y-8452D02*
X29035Y-8452D01*
X30685Y-8452D02*
X32353Y-8452D01*
X33897Y-8452D02*
X36228Y-8452D01*
X20043Y-8402D02*
X21381Y-8402D01*
X23099Y-8402D02*
X29001Y-8402D01*
X30719Y-8402D02*
X32359Y-8402D01*
X33891Y-8402D02*
X36278Y-8402D01*
X20092Y-8353D02*
X21360Y-8353D01*
X23120Y-8353D02*
X28980Y-8353D01*
X30740Y-8353D02*
X32366Y-8353D01*
X33884Y-8353D02*
X36291Y-8353D01*
X20142Y-8303D02*
X21339Y-8303D01*
X23141Y-8303D02*
X28959Y-8303D01*
X30761Y-8303D02*
X32384Y-8303D01*
X33866Y-8303D02*
X36309Y-8303D01*
X20191Y-8254D02*
X21319Y-8254D01*
X23161Y-8254D02*
X28939Y-8254D01*
X30781Y-8254D02*
X32405Y-8254D01*
X33845Y-8254D02*
X36330Y-8254D01*
X20241Y-8204D02*
X21298Y-8204D01*
X23182Y-8204D02*
X28918Y-8204D01*
X30802Y-8204D02*
X32426Y-8204D01*
X33824Y-8204D02*
X36351Y-8204D01*
X20291Y-8155D02*
X21284Y-8155D01*
X23196Y-8155D02*
X28904Y-8155D01*
X30816Y-8155D02*
X32447Y-8155D01*
X33803Y-8155D02*
X36372Y-8155D01*
X20340Y-8105D02*
X21277Y-8105D01*
X23203Y-8105D02*
X28897Y-8105D01*
X30823Y-8105D02*
X32485Y-8105D01*
X33765Y-8105D02*
X36410Y-8105D01*
X20390Y-8056D02*
X21271Y-8056D01*
X23209Y-8056D02*
X28891Y-8056D01*
X30829Y-8056D02*
X32523Y-8056D01*
X33727Y-8056D02*
X36448Y-8056D01*
X20439Y-8006D02*
X21264Y-8006D01*
X23216Y-8006D02*
X28884Y-8006D01*
X30836Y-8006D02*
X32561Y-8006D01*
X33689Y-8006D02*
X36486Y-8006D01*
X20489Y-7956D02*
X21258Y-7956D01*
X23222Y-7956D02*
X28878Y-7956D01*
X30842Y-7956D02*
X32619Y-7956D01*
X33631Y-7956D02*
X36544Y-7956D01*
X20538Y-7907D02*
X21255Y-7907D01*
X23225Y-7907D02*
X28875Y-7907D01*
X30845Y-7907D02*
X32633Y-7907D01*
X33617Y-7907D02*
X36558Y-7907D01*
X20588Y-7857D02*
X21261Y-7857D01*
X23219Y-7857D02*
X28881Y-7857D01*
X30839Y-7857D02*
X32633Y-7857D01*
X33617Y-7857D02*
X36558Y-7857D01*
X20637Y-7808D02*
X21268Y-7808D01*
X23212Y-7808D02*
X28888Y-7808D01*
X30832Y-7808D02*
X32633Y-7808D01*
X33617Y-7808D02*
X36558Y-7808D01*
X20687Y-7758D02*
X21274Y-7758D01*
X23206Y-7758D02*
X28894Y-7758D01*
X30826Y-7758D02*
X32633Y-7758D01*
X33617Y-7758D02*
X36558Y-7758D01*
X20736Y-7709D02*
X21281Y-7709D01*
X23199Y-7709D02*
X28901Y-7709D01*
X30819Y-7709D02*
X32633Y-7709D01*
X33617Y-7709D02*
X36558Y-7709D01*
X20786Y-7659D02*
X21289Y-7659D01*
X23191Y-7659D02*
X28909Y-7659D01*
X30811Y-7659D02*
X32633Y-7659D01*
X33617Y-7659D02*
X36558Y-7659D01*
X20835Y-7610D02*
X21309Y-7610D01*
X23171Y-7610D02*
X28929Y-7610D01*
X30791Y-7610D02*
X32633Y-7610D01*
X33617Y-7610D02*
X36558Y-7610D01*
X20885Y-7560D02*
X21330Y-7560D01*
X23150Y-7560D02*
X28950Y-7560D01*
X30770Y-7560D02*
X32633Y-7560D01*
X33617Y-7560D02*
X36558Y-7560D01*
X20934Y-7511D02*
X21350Y-7511D01*
X23130Y-7511D02*
X28970Y-7511D01*
X30750Y-7511D02*
X32633Y-7511D01*
X33617Y-7511D02*
X36558Y-7511D01*
X20984Y-7461D02*
X21371Y-7461D01*
X23109Y-7461D02*
X28991Y-7461D01*
X30729Y-7461D02*
X32633Y-7461D01*
X33617Y-7461D02*
X36558Y-7461D01*
X21034Y-7412D02*
X21397Y-7412D01*
X23083Y-7412D02*
X29017Y-7412D01*
X30703Y-7412D02*
X32633Y-7412D01*
X33617Y-7412D02*
X36558Y-7412D01*
X21083Y-7362D02*
X21435Y-7362D01*
X23045Y-7362D02*
X29055Y-7362D01*
X30665Y-7362D02*
X32633Y-7362D01*
X33617Y-7362D02*
X36558Y-7362D01*
X21133Y-7313D02*
X21438Y-7313D01*
X23042Y-7313D02*
X29093Y-7313D01*
X30627Y-7313D02*
X32633Y-7313D01*
X33617Y-7313D02*
X36558Y-7313D01*
X21182Y-7263D02*
X21413Y-7263D01*
X23067Y-7263D02*
X29131Y-7263D01*
X30589Y-7263D02*
X32633Y-7263D01*
X33617Y-7263D02*
X36558Y-7263D01*
X26058Y-7214D02*
X29173Y-7214D01*
X30547Y-7214D02*
X32633Y-7214D01*
X33617Y-7214D02*
X36558Y-7214D01*
X26164Y-7164D02*
X29238Y-7164D01*
X30482Y-7164D02*
X32633Y-7164D01*
X33617Y-7164D02*
X36558Y-7164D01*
X26238Y-7114D02*
X29302Y-7114D01*
X30418Y-7114D02*
X32633Y-7114D01*
X33617Y-7114D02*
X36558Y-7114D01*
X26295Y-7065D02*
X29367Y-7065D01*
X30353Y-7065D02*
X32633Y-7065D01*
X33617Y-7065D02*
X36558Y-7065D01*
X26345Y-7015D02*
X29487Y-7015D01*
X30233Y-7015D02*
X32623Y-7015D01*
X33627Y-7015D02*
X36548Y-7015D01*
X26394Y-6966D02*
X29610Y-6966D01*
X30110Y-6966D02*
X32551Y-6966D01*
X33699Y-6966D02*
X36476Y-6966D01*
X26444Y-6916D02*
X32486Y-6916D01*
X33764Y-6916D02*
X36411Y-6916D01*
X26493Y-6867D02*
X32422Y-6867D01*
X33828Y-6867D02*
X36347Y-6867D01*
X26543Y-6817D02*
X32371Y-6817D01*
X33879Y-6817D02*
X36296Y-6817D01*
X26592Y-6768D02*
X32333Y-6768D01*
X33917Y-6768D02*
X36258Y-6768D01*
X26642Y-6718D02*
X32295Y-6718D01*
X33955Y-6718D02*
X36220Y-6718D01*
X26691Y-6669D02*
X32257Y-6669D01*
X33993Y-6669D02*
X36182Y-6669D01*
X26741Y-6619D02*
X32223Y-6619D01*
X34027Y-6619D02*
X36148Y-6619D01*
X26791Y-6570D02*
X32202Y-6570D01*
X34048Y-6570D02*
X36127Y-6570D01*
X26840Y-6520D02*
X32182Y-6520D01*
X34068Y-6520D02*
X36107Y-6520D01*
X26890Y-6471D02*
X32161Y-6471D01*
X34089Y-6471D02*
X36086Y-6471D01*
X26939Y-6421D02*
X32140Y-6421D01*
X34110Y-6421D02*
X36065Y-6421D01*
X26989Y-6372D02*
X32122Y-6372D01*
X34128Y-6372D02*
X36047Y-6372D01*
X27038Y-6322D02*
X29577Y-6322D01*
X30143Y-6322D02*
X32115Y-6322D01*
X34135Y-6322D02*
X36040Y-6322D01*
X27088Y-6272D02*
X29457Y-6272D01*
X30263Y-6272D02*
X32109Y-6272D01*
X34141Y-6272D02*
X36034Y-6272D01*
X27137Y-6223D02*
X29351Y-6223D01*
X30369Y-6223D02*
X32102Y-6223D01*
X34148Y-6223D02*
X36027Y-6223D01*
X27187Y-6173D02*
X29286Y-6173D01*
X30434Y-6173D02*
X32096Y-6173D01*
X34154Y-6173D02*
X36021Y-6173D01*
X27236Y-6124D02*
X29222Y-6124D01*
X30498Y-6124D02*
X32089Y-6124D01*
X34161Y-6124D02*
X36014Y-6124D01*
X27286Y-6074D02*
X29159Y-6074D01*
X34158Y-6074D02*
X36017Y-6074D01*
X27335Y-6025D02*
X29121Y-6025D01*
X34151Y-6025D02*
X36024Y-6025D01*
X27385Y-5975D02*
X29083Y-5975D01*
X34145Y-5975D02*
X36030Y-5975D01*
X27434Y-5926D02*
X29045Y-5926D01*
X34138Y-5926D02*
X36037Y-5926D01*
X27484Y-5876D02*
X29007Y-5876D01*
X34132Y-5876D02*
X36043Y-5876D01*
X27533Y-5827D02*
X28986Y-5827D01*
X34121Y-5827D02*
X36054Y-5827D01*
X27583Y-5777D02*
X28965Y-5777D01*
X34100Y-5777D02*
X36075Y-5777D01*
X27633Y-5728D02*
X28945Y-5728D01*
X34080Y-5728D02*
X36095Y-5728D01*
X27682Y-5678D02*
X28924Y-5678D01*
X34059Y-5678D02*
X36116Y-5678D01*
X27732Y-5629D02*
X28906Y-5629D01*
X34039Y-5629D02*
X36136Y-5629D01*
X27781Y-5579D02*
X28899Y-5579D01*
X34014Y-5579D02*
X36161Y-5579D01*
X27831Y-5530D02*
X28893Y-5530D01*
X33976Y-5530D02*
X36199Y-5530D01*
X27880Y-5480D02*
X28886Y-5480D01*
X33938Y-5480D02*
X36237Y-5480D01*
X27930Y-5430D02*
X28880Y-5430D01*
X33900Y-5430D02*
X36275Y-5430D01*
X27979Y-5381D02*
X28873Y-5381D01*
X33862Y-5381D02*
X36313Y-5381D01*
X28029Y-5331D02*
X28879Y-5331D01*
X33800Y-5331D02*
X36375Y-5331D01*
X28078Y-5282D02*
X28886Y-5282D01*
X33735Y-5282D02*
X36440Y-5282D01*
X28128Y-5232D02*
X28892Y-5232D01*
X33671Y-5232D02*
X36504Y-5232D01*
X37596Y-5232D02*
X37758Y-5232D01*
X28177Y-5183D02*
X28899Y-5183D01*
X33574Y-5183D02*
X36601Y-5183D01*
X37499Y-5183D02*
X37758Y-5183D01*
X28227Y-5133D02*
X28905Y-5133D01*
X30815Y-5133D02*
X32795Y-5133D01*
X33455Y-5133D02*
X36720Y-5133D01*
X37380Y-5133D02*
X37758Y-5133D01*
X28276Y-5084D02*
X28923Y-5084D01*
X30797Y-5084D02*
X33040Y-5084D01*
X33210Y-5084D02*
X36965Y-5084D01*
X37135Y-5084D02*
X37758Y-5084D01*
X28326Y-5034D02*
X28944Y-5034D01*
X30776Y-5034D02*
X37758Y-5034D01*
X28375Y-4985D02*
X28965Y-4985D01*
X30755Y-4985D02*
X37758Y-4985D01*
X28425Y-4935D02*
X28985Y-4935D01*
X30735Y-4935D02*
X37758Y-4935D01*
X28475Y-4886D02*
X29006Y-4886D01*
X30714Y-4886D02*
X37758Y-4886D01*
X28524Y-4836D02*
X29044Y-4836D01*
X30676Y-4836D02*
X37758Y-4836D01*
X28574Y-4787D02*
X29082Y-4787D01*
X30638Y-4787D02*
X37758Y-4787D01*
X28623Y-4737D02*
X29120Y-4737D01*
X30600Y-4737D02*
X37758Y-4737D01*
X28673Y-4688D02*
X29158Y-4688D01*
X30562Y-4688D02*
X37758Y-4688D01*
X28722Y-4638D02*
X29219Y-4638D01*
X30501Y-4638D02*
X37758Y-4638D01*
X28772Y-4588D02*
X29284Y-4588D01*
X30436Y-4588D02*
X37758Y-4588D01*
X28821Y-4539D02*
X29349Y-4539D01*
X30371Y-4539D02*
X37758Y-4539D01*
X28871Y-4489D02*
X29453Y-4489D01*
X30267Y-4489D02*
X37758Y-4489D01*
X28920Y-4440D02*
X29572Y-4440D01*
X30148Y-4440D02*
X37758Y-4440D01*
X28970Y-4390D02*
X37758Y-4390D01*
X29019Y-4341D02*
X37758Y-4341D01*
X29069Y-4291D02*
X37758Y-4291D01*
X29118Y-4242D02*
X37758Y-4242D01*
X29168Y-4192D02*
X37758Y-4192D01*
X29217Y-4143D02*
X37758Y-4143D01*
X29267Y-4093D02*
X37758Y-4093D01*
X29317Y-4044D02*
X37758Y-4044D01*
X29366Y-3994D02*
X37758Y-3994D01*
X29416Y-3945D02*
X37758Y-3945D01*
X29465Y-3895D02*
X37758Y-3895D01*
X29515Y-3846D02*
X37758Y-3846D01*
X29564Y-3796D02*
X29624Y-3796D01*
X30096Y-3796D02*
X37758Y-3796D01*
X30229Y-3746D02*
X37758Y-3746D01*
X30348Y-3697D02*
X37758Y-3697D01*
X30415Y-3647D02*
X37758Y-3647D01*
X30480Y-3598D02*
X37758Y-3598D01*
X30544Y-3548D02*
X37758Y-3548D01*
X30588Y-3499D02*
X37758Y-3499D01*
X30626Y-3449D02*
X37758Y-3449D01*
X30664Y-3400D02*
X37758Y-3400D01*
X30702Y-3350D02*
X37758Y-3350D01*
X30728Y-3301D02*
X37758Y-3301D01*
X30749Y-3251D02*
X37758Y-3251D01*
X30769Y-3202D02*
X37758Y-3202D01*
X30790Y-3152D02*
X37758Y-3152D01*
X30810Y-3103D02*
X37758Y-3103D01*
X30819Y-3053D02*
X37758Y-3053D01*
X30826Y-3003D02*
X37758Y-3003D01*
X30832Y-2954D02*
X37758Y-2954D01*
X30839Y-2904D02*
X37758Y-2904D01*
X30845Y-2855D02*
X37758Y-2855D01*
X30842Y-2805D02*
X37758Y-2805D01*
X30836Y-2756D02*
X37758Y-2756D01*
X30829Y-2706D02*
X37758Y-2706D01*
X30823Y-2657D02*
X37758Y-2657D01*
X30816Y-2607D02*
X37758Y-2607D01*
X30802Y-2558D02*
X37758Y-2558D01*
X30812Y-2508D02*
X37758Y-2508D01*
X30862Y-2459D02*
X37758Y-2459D01*
X30911Y-2409D02*
X37758Y-2409D01*
X30961Y-2360D02*
X37758Y-2360D01*
X31010Y-2310D02*
X37758Y-2310D01*
X31060Y-2261D02*
X37758Y-2261D01*
X31109Y-2211D02*
X37758Y-2211D01*
X31159Y-2161D02*
X37758Y-2161D01*
X31208Y-2112D02*
X37758Y-2112D01*
X31258Y-2062D02*
X37758Y-2062D01*
X31307Y-2013D02*
X37758Y-2013D01*
X31357Y-1963D02*
X37758Y-1963D01*
X31406Y-1914D02*
X37758Y-1914D01*
X31456Y-1864D02*
X37758Y-1864D01*
X31505Y-1815D02*
X37758Y-1815D01*
X31555Y-1765D02*
X37758Y-1765D01*
X31604Y-1716D02*
X37758Y-1716D01*
X31654Y-1666D02*
X37758Y-1666D01*
X31704Y-1617D02*
X37758Y-1617D01*
X31753Y-1567D02*
X37758Y-1567D01*
X31803Y-1518D02*
X37758Y-1518D01*
X31852Y-1468D02*
X37758Y-1468D01*
X31902Y-1419D02*
X37758Y-1419D01*
X31951Y-1369D02*
X37758Y-1369D01*
X32001Y-1319D02*
X37758Y-1319D01*
X32050Y-1270D02*
X37758Y-1270D01*
X32100Y-1220D02*
X37758Y-1220D01*
X32149Y-1171D02*
X37758Y-1171D01*
X32199Y-1121D02*
X37758Y-1121D01*
X32248Y-1072D02*
X37758Y-1072D01*
X32298Y-1022D02*
X37758Y-1022D01*
X32347Y-0973D02*
X37758Y-0973D01*
X32397Y-0923D02*
X37758Y-0923D01*
X32446Y-0874D02*
X37758Y-0874D01*
X32496Y-0824D02*
X37758Y-0824D01*
X32546Y-0775D02*
X37758Y-0775D01*
X32595Y-0725D02*
X37758Y-0725D01*
X32645Y-0676D02*
X37758Y-0676D01*
X32694Y-0626D02*
X37758Y-0626D01*
X32744Y-0577D02*
X37758Y-0577D01*
X32793Y-0527D02*
X37758Y-0527D01*
X32843Y-0477D02*
X37758Y-0477D01*
X32892Y-0428D02*
X37758Y-0428D01*
X32942Y-0378D02*
X37758Y-0378D01*
X32991Y-0329D02*
X37758Y-0329D01*
X33041Y-0279D02*
X37758Y-0279D01*
X33090Y-0230D02*
X37758Y-0230D01*
X33140Y-0180D02*
X37758Y-0180D01*
X33189Y-0131D02*
X37758Y-0131D01*
X33239Y-0081D02*
X37758Y-0081D01*
X33288Y-0032D02*
X37758Y-0032D01*
X33338Y0018D02*
X37758Y0018D01*
X33388Y0067D02*
X37758Y0067D01*
X33437Y0117D02*
X37758Y0117D01*
X33483Y0166D02*
X37758Y0166D01*
X33516Y0216D02*
X37758Y0216D01*
X33549Y0265D02*
X37758Y0265D01*
X33580Y0315D02*
X37758Y0315D01*
X33590Y0365D02*
X37758Y0365D01*
X33600Y0414D02*
X37758Y0414D01*
X33610Y0464D02*
X37758Y0464D01*
X33617Y0513D02*
X36769Y0513D01*
X37331Y0513D02*
X37758Y0513D01*
X33617Y0563D02*
X36649Y0563D01*
X37451Y0563D02*
X37758Y0563D01*
X33644Y0612D02*
X36531Y0612D01*
X37569Y0612D02*
X37758Y0612D01*
X33709Y0662D02*
X36466Y0662D01*
X37634Y0662D02*
X37700Y0662D01*
X33774Y0711D02*
X36401Y0711D01*
X33838Y0761D02*
X36337Y0761D01*
X33885Y0810D02*
X36290Y0810D01*
X33923Y0860D02*
X36252Y0860D01*
X33961Y0909D02*
X36214Y0909D01*
X33999Y0959D02*
X36176Y0959D01*
X34031Y1008D02*
X36144Y1008D01*
X34051Y1058D02*
X36124Y1058D01*
X34072Y1107D02*
X36103Y1107D01*
X34092Y1157D02*
X36083Y1157D01*
X34113Y1207D02*
X36062Y1207D01*
X34129Y1256D02*
X36046Y1256D01*
X34136Y1306D02*
X36039Y1306D01*
X5663Y-11164D02*
X5663Y-11164D01*
X5328Y-10828*
X5302Y-10831*
X5298Y-10831*
X5059Y-10800*
X5056Y-10799*
X4833Y-10707*
X4830Y-10705*
X4639Y-10558*
X4637Y-10556*
X4490Y-10365*
X4488Y-10362*
X4396Y-10139*
X4395Y-10136*
X4364Y-9897*
X4364Y-9893*
X4395Y-9654*
X4396Y-9651*
X4413Y-9609*
X3777Y-8972*
X3775Y-8970*
X3672Y-8815*
X3670Y-8811*
X3634Y-8629*
X3633Y-8626*
X3633Y-2819*
X3634Y-2816*
X3670Y-2634*
X3672Y-2630*
X3775Y-2475*
X3777Y-2473*
X4414Y-1836*
X4389Y-1647*
X4389Y-1643*
X4420Y-1404*
X4421Y-1401*
X4513Y-1178*
X4515Y-1175*
X4662Y-0984*
X4664Y-0982*
X4855Y-0835*
X4858Y-0833*
X5081Y-0741*
X5084Y-0740*
X5323Y-0709*
X5327Y-0709*
X5566Y-0740*
X5569Y-0741*
X5792Y-0833*
X5795Y-0835*
X5986Y-0982*
X5988Y-0984*
X6135Y-1175*
X6137Y-1178*
X6229Y-1401*
X6230Y-1404*
X6261Y-1643*
X6261Y-1647*
X6230Y-1886*
X6229Y-1889*
X6137Y-2112*
X6135Y-2115*
X5988Y-2306*
X5986Y-2308*
X5795Y-2455*
X5792Y-2457*
X5569Y-2549*
X5566Y-2550*
X5525Y-2555*
X5490Y-2578*
X5486Y-2580*
X5303Y-2617*
X5297Y-2617*
X5114Y-2580*
X5110Y-2578*
X5081Y-2559*
X4617Y-3024*
X4617Y-6585*
X4715Y-6633*
X4830Y-6545*
X4833Y-6543*
X5056Y-6451*
X5059Y-6450*
X5298Y-6419*
X5302Y-6419*
X5541Y-6450*
X5544Y-6451*
X5586Y-6468*
X6928Y-5127*
X6930Y-5125*
X7085Y-5022*
X7089Y-5020*
X7271Y-4984*
X7274Y-4983*
X14946Y-4983*
X15115Y-4815*
X15080Y-4729*
X8286Y-4729*
X8271Y-4714*
X8271Y0258*
X6007Y0258*
X5988Y0234*
X5986Y0232*
X5795Y0085*
X5792Y0083*
X5569Y-0009*
X5566Y-0010*
X5327Y-0041*
X5323Y-0041*
X5084Y-0010*
X5081Y-0009*
X4858Y0083*
X4855Y0085*
X4664Y0232*
X4662Y0234*
X4515Y0425*
X4513Y0428*
X4421Y0651*
X4420Y0654*
X4389Y0893*
X4389Y0897*
X4420Y1136*
X4421Y1139*
X4513Y1362*
X4515Y1365*
X4662Y1556*
X4664Y1558*
X4855Y1705*
X4858Y1707*
X5081Y1799*
X5084Y1800*
X5323Y1831*
X5327Y1831*
X5566Y1800*
X5569Y1799*
X5792Y1707*
X5795Y1705*
X5986Y1558*
X5988Y1556*
X6135Y1365*
X6137Y1362*
X6187Y1242*
X8271Y1242*
X8271Y2714*
X8286Y2729*
X15714Y2729*
X15729Y2714*
X15729Y-4080*
X15815Y-4115*
X16903Y-3027*
X16905Y-3025*
X17060Y-2922*
X17064Y-2920*
X17246Y-2884*
X17249Y-2883*
X17421Y-2883*
X17421Y-2336*
X17436Y-2321*
X20364Y-2321*
X20379Y-2336*
X20379Y-4045*
X20465Y-4080*
X21261Y-3283*
X21261Y-1876*
X21276Y-1861*
X22943Y-1861*
X27618Y2814*
X27583Y2900*
X3350Y2900*
X3350Y-11250*
X5628Y-11250*
X5663Y-11164*
X22582Y0098D02*
X22582Y0098D01*
X22585Y0099*
X22832Y0201*
X22835Y0203*
X23047Y0365*
X23050Y0368*
X23212Y0580*
X23214Y0583*
X23316Y0830*
X23317Y0833*
X23352Y1098*
X23352Y1102*
X23317Y1367*
X23316Y1370*
X23214Y1617*
X23212Y1620*
X23050Y1832*
X23047Y1835*
X22835Y1997*
X22832Y1999*
X22585Y2101*
X22582Y2102*
X22317Y2137*
X22313Y2137*
X22048Y2102*
X22045Y2101*
X21798Y1999*
X21795Y1997*
X21583Y1835*
X21580Y1832*
X21418Y1620*
X21416Y1617*
X21405Y1592*
X20379Y1592*
X20379Y2264*
X20364Y2279*
X17436Y2279*
X17421Y2264*
X17421Y0336*
X17436Y0321*
X20364Y0321*
X20379Y0336*
X20379Y0608*
X21405Y0608*
X21416Y0583*
X21418Y0580*
X21580Y0368*
X21583Y0365*
X21795Y0203*
X21798Y0201*
X22045Y0099*
X22048Y0098*
X22313Y0063*
X22317Y0063*
X22582Y0098*
X3350Y-11225D02*
X5638Y-11225D01*
X3350Y-11176D02*
X5658Y-11176D01*
X3350Y-11126D02*
X5626Y-11126D01*
X3350Y-11077D02*
X5577Y-11077D01*
X3350Y-11027D02*
X5527Y-11027D01*
X3350Y-10978D02*
X5478Y-10978D01*
X3350Y-10928D02*
X5428Y-10928D01*
X3350Y-10879D02*
X5379Y-10879D01*
X3350Y-10829D02*
X5282Y-10829D01*
X5318Y-10829D02*
X5329Y-10829D01*
X3350Y-10780D02*
X5009Y-10780D01*
X3350Y-10730D02*
X4890Y-10730D01*
X3350Y-10681D02*
X4798Y-10681D01*
X3350Y-10631D02*
X4734Y-10631D01*
X3350Y-10582D02*
X4669Y-10582D01*
X3350Y-10532D02*
X4618Y-10532D01*
X3350Y-10483D02*
X4580Y-10483D01*
X3350Y-10433D02*
X4542Y-10433D01*
X3350Y-10383D02*
X4504Y-10383D01*
X3350Y-10334D02*
X4477Y-10334D01*
X3350Y-10284D02*
X4456Y-10284D01*
X3350Y-10235D02*
X4436Y-10235D01*
X3350Y-10185D02*
X4415Y-10185D01*
X3350Y-10136D02*
X4395Y-10136D01*
X3350Y-10086D02*
X4389Y-10086D01*
X3350Y-10037D02*
X4382Y-10037D01*
X3350Y-9987D02*
X4376Y-9987D01*
X3350Y-9938D02*
X4369Y-9938D01*
X3350Y-9888D02*
X4364Y-9888D01*
X3350Y-9839D02*
X4371Y-9839D01*
X3350Y-9789D02*
X4377Y-9789D01*
X3350Y-9740D02*
X4384Y-9740D01*
X3350Y-9690D02*
X4390Y-9690D01*
X3350Y-9641D02*
X4400Y-9641D01*
X3350Y-9591D02*
X4396Y-9591D01*
X3350Y-9541D02*
X4346Y-9541D01*
X3350Y-9492D02*
X4297Y-9492D01*
X3350Y-9442D02*
X4247Y-9442D01*
X3350Y-9393D02*
X4198Y-9393D01*
X3350Y-9343D02*
X4148Y-9343D01*
X3350Y-9294D02*
X4099Y-9294D01*
X3350Y-9244D02*
X4049Y-9244D01*
X3350Y-9195D02*
X4000Y-9195D01*
X3350Y-9145D02*
X3950Y-9145D01*
X3350Y-9096D02*
X3901Y-9096D01*
X3350Y-9046D02*
X3851Y-9046D01*
X3350Y-8997D02*
X3801Y-8997D01*
X3350Y-8947D02*
X3760Y-8947D01*
X3350Y-8898D02*
X3727Y-8898D01*
X3350Y-8848D02*
X3694Y-8848D01*
X3350Y-8799D02*
X3667Y-8799D01*
X3350Y-8749D02*
X3658Y-8749D01*
X3350Y-8699D02*
X3648Y-8699D01*
X3350Y-8650D02*
X3638Y-8650D01*
X3350Y-8600D02*
X3633Y-8600D01*
X3350Y-8551D02*
X3633Y-8551D01*
X3350Y-8501D02*
X3633Y-8501D01*
X3350Y-8452D02*
X3633Y-8452D01*
X3350Y-8402D02*
X3633Y-8402D01*
X3350Y-8353D02*
X3633Y-8353D01*
X3350Y-8303D02*
X3633Y-8303D01*
X3350Y-8254D02*
X3633Y-8254D01*
X3350Y-8204D02*
X3633Y-8204D01*
X3350Y-8155D02*
X3633Y-8155D01*
X3350Y-8105D02*
X3633Y-8105D01*
X3350Y-8056D02*
X3633Y-8056D01*
X3350Y-8006D02*
X3633Y-8006D01*
X3350Y-7956D02*
X3633Y-7956D01*
X3350Y-7907D02*
X3633Y-7907D01*
X3350Y-7857D02*
X3633Y-7857D01*
X3350Y-7808D02*
X3633Y-7808D01*
X3350Y-7758D02*
X3633Y-7758D01*
X3350Y-7709D02*
X3633Y-7709D01*
X3350Y-7659D02*
X3633Y-7659D01*
X3350Y-7610D02*
X3633Y-7610D01*
X3350Y-7560D02*
X3633Y-7560D01*
X3350Y-7511D02*
X3633Y-7511D01*
X3350Y-7461D02*
X3633Y-7461D01*
X3350Y-7412D02*
X3633Y-7412D01*
X3350Y-7362D02*
X3633Y-7362D01*
X3350Y-7313D02*
X3633Y-7313D01*
X3350Y-7263D02*
X3633Y-7263D01*
X3350Y-7214D02*
X3633Y-7214D01*
X3350Y-7164D02*
X3633Y-7164D01*
X3350Y-7114D02*
X3633Y-7114D01*
X3350Y-7065D02*
X3633Y-7065D01*
X3350Y-7015D02*
X3633Y-7015D01*
X3350Y-6966D02*
X3633Y-6966D01*
X3350Y-6916D02*
X3633Y-6916D01*
X3350Y-6867D02*
X3633Y-6867D01*
X3350Y-6817D02*
X3633Y-6817D01*
X3350Y-6768D02*
X3633Y-6768D01*
X3350Y-6718D02*
X3633Y-6718D01*
X3350Y-6669D02*
X3633Y-6669D01*
X3350Y-6619D02*
X3633Y-6619D01*
X4687Y-6619D02*
X4734Y-6619D01*
X3350Y-6570D02*
X3633Y-6570D01*
X4617Y-6570D02*
X4798Y-6570D01*
X3350Y-6520D02*
X3633Y-6520D01*
X4617Y-6520D02*
X4889Y-6520D01*
X3350Y-6471D02*
X3633Y-6471D01*
X4617Y-6471D02*
X5009Y-6471D01*
X3350Y-6421D02*
X3633Y-6421D01*
X4617Y-6421D02*
X5280Y-6421D01*
X5320Y-6421D02*
X5634Y-6421D01*
X3350Y-6372D02*
X3633Y-6372D01*
X4617Y-6372D02*
X5683Y-6372D01*
X3350Y-6322D02*
X3633Y-6322D01*
X4617Y-6322D02*
X5733Y-6322D01*
X3350Y-6272D02*
X3633Y-6272D01*
X4617Y-6272D02*
X5782Y-6272D01*
X3350Y-6223D02*
X3633Y-6223D01*
X4617Y-6223D02*
X5832Y-6223D01*
X3350Y-6173D02*
X3633Y-6173D01*
X4617Y-6173D02*
X5881Y-6173D01*
X3350Y-6124D02*
X3633Y-6124D01*
X4617Y-6124D02*
X5931Y-6124D01*
X3350Y-6074D02*
X3633Y-6074D01*
X4617Y-6074D02*
X5980Y-6074D01*
X3350Y-6025D02*
X3633Y-6025D01*
X4617Y-6025D02*
X6030Y-6025D01*
X3350Y-5975D02*
X3633Y-5975D01*
X4617Y-5975D02*
X6080Y-5975D01*
X3350Y-5926D02*
X3633Y-5926D01*
X4617Y-5926D02*
X6129Y-5926D01*
X3350Y-5876D02*
X3633Y-5876D01*
X4617Y-5876D02*
X6179Y-5876D01*
X3350Y-5827D02*
X3633Y-5827D01*
X4617Y-5827D02*
X6228Y-5827D01*
X3350Y-5777D02*
X3633Y-5777D01*
X4617Y-5777D02*
X6278Y-5777D01*
X3350Y-5728D02*
X3633Y-5728D01*
X4617Y-5728D02*
X6327Y-5728D01*
X3350Y-5678D02*
X3633Y-5678D01*
X4617Y-5678D02*
X6377Y-5678D01*
X3350Y-5629D02*
X3633Y-5629D01*
X4617Y-5629D02*
X6426Y-5629D01*
X3350Y-5579D02*
X3633Y-5579D01*
X4617Y-5579D02*
X6476Y-5579D01*
X3350Y-5530D02*
X3633Y-5530D01*
X4617Y-5530D02*
X6525Y-5530D01*
X3350Y-5480D02*
X3633Y-5480D01*
X4617Y-5480D02*
X6575Y-5480D01*
X3350Y-5430D02*
X3633Y-5430D01*
X4617Y-5430D02*
X6624Y-5430D01*
X3350Y-5381D02*
X3633Y-5381D01*
X4617Y-5381D02*
X6674Y-5381D01*
X3350Y-5331D02*
X3633Y-5331D01*
X4617Y-5331D02*
X6723Y-5331D01*
X3350Y-5282D02*
X3633Y-5282D01*
X4617Y-5282D02*
X6773Y-5282D01*
X3350Y-5232D02*
X3633Y-5232D01*
X4617Y-5232D02*
X6822Y-5232D01*
X3350Y-5183D02*
X3633Y-5183D01*
X4617Y-5183D02*
X6872Y-5183D01*
X3350Y-5133D02*
X3633Y-5133D01*
X4617Y-5133D02*
X6922Y-5133D01*
X3350Y-5084D02*
X3633Y-5084D01*
X4617Y-5084D02*
X6992Y-5084D01*
X3350Y-5034D02*
X3633Y-5034D01*
X4617Y-5034D02*
X7066Y-5034D01*
X3350Y-4985D02*
X3633Y-4985D01*
X4617Y-4985D02*
X7266Y-4985D01*
X3350Y-4935D02*
X3633Y-4935D01*
X4617Y-4935D02*
X14995Y-4935D01*
X3350Y-4886D02*
X3633Y-4886D01*
X4617Y-4886D02*
X15044Y-4886D01*
X3350Y-4836D02*
X3633Y-4836D01*
X4617Y-4836D02*
X15094Y-4836D01*
X3350Y-4787D02*
X3633Y-4787D01*
X4617Y-4787D02*
X15104Y-4787D01*
X3350Y-4737D02*
X3633Y-4737D01*
X4617Y-4737D02*
X15083Y-4737D01*
X3350Y-4688D02*
X3633Y-4688D01*
X4617Y-4688D02*
X8271Y-4688D01*
X3350Y-4638D02*
X3633Y-4638D01*
X4617Y-4638D02*
X8271Y-4638D01*
X3350Y-4588D02*
X3633Y-4588D01*
X4617Y-4588D02*
X8271Y-4588D01*
X3350Y-4539D02*
X3633Y-4539D01*
X4617Y-4539D02*
X8271Y-4539D01*
X3350Y-4489D02*
X3633Y-4489D01*
X4617Y-4489D02*
X8271Y-4489D01*
X3350Y-4440D02*
X3633Y-4440D01*
X4617Y-4440D02*
X8271Y-4440D01*
X3350Y-4390D02*
X3633Y-4390D01*
X4617Y-4390D02*
X8271Y-4390D01*
X3350Y-4341D02*
X3633Y-4341D01*
X4617Y-4341D02*
X8271Y-4341D01*
X3350Y-4291D02*
X3633Y-4291D01*
X4617Y-4291D02*
X8271Y-4291D01*
X3350Y-4242D02*
X3633Y-4242D01*
X4617Y-4242D02*
X8271Y-4242D01*
X3350Y-4192D02*
X3633Y-4192D01*
X4617Y-4192D02*
X8271Y-4192D01*
X3350Y-4143D02*
X3633Y-4143D01*
X4617Y-4143D02*
X8271Y-4143D01*
X3350Y-4093D02*
X3633Y-4093D01*
X4617Y-4093D02*
X8271Y-4093D01*
X15761Y-4093D02*
X15837Y-4093D01*
X3350Y-4044D02*
X3633Y-4044D01*
X4617Y-4044D02*
X8271Y-4044D01*
X15729Y-4044D02*
X15886Y-4044D01*
X20379Y-4044D02*
X20501Y-4044D01*
X3350Y-3994D02*
X3633Y-3994D01*
X4617Y-3994D02*
X8271Y-3994D01*
X15729Y-3994D02*
X15936Y-3994D01*
X20379Y-3994D02*
X20551Y-3994D01*
X3350Y-3945D02*
X3633Y-3945D01*
X4617Y-3945D02*
X8271Y-3945D01*
X15729Y-3945D02*
X15985Y-3945D01*
X20379Y-3945D02*
X20600Y-3945D01*
X3350Y-3895D02*
X3633Y-3895D01*
X4617Y-3895D02*
X8271Y-3895D01*
X15729Y-3895D02*
X16035Y-3895D01*
X20379Y-3895D02*
X20650Y-3895D01*
X3350Y-3846D02*
X3633Y-3846D01*
X4617Y-3846D02*
X8271Y-3846D01*
X15729Y-3846D02*
X16084Y-3846D01*
X20379Y-3846D02*
X20699Y-3846D01*
X3350Y-3796D02*
X3633Y-3796D01*
X4617Y-3796D02*
X8271Y-3796D01*
X15729Y-3796D02*
X16134Y-3796D01*
X20379Y-3796D02*
X20749Y-3796D01*
X3350Y-3746D02*
X3633Y-3746D01*
X4617Y-3746D02*
X8271Y-3746D01*
X15729Y-3746D02*
X16183Y-3746D01*
X20379Y-3746D02*
X20798Y-3746D01*
X3350Y-3697D02*
X3633Y-3697D01*
X4617Y-3697D02*
X8271Y-3697D01*
X15729Y-3697D02*
X16233Y-3697D01*
X20379Y-3697D02*
X20848Y-3697D01*
X3350Y-3647D02*
X3633Y-3647D01*
X4617Y-3647D02*
X8271Y-3647D01*
X15729Y-3647D02*
X16282Y-3647D01*
X20379Y-3647D02*
X20897Y-3647D01*
X3350Y-3598D02*
X3633Y-3598D01*
X4617Y-3598D02*
X8271Y-3598D01*
X15729Y-3598D02*
X16332Y-3598D01*
X20379Y-3598D02*
X20947Y-3598D01*
X3350Y-3548D02*
X3633Y-3548D01*
X4617Y-3548D02*
X8271Y-3548D01*
X15729Y-3548D02*
X16382Y-3548D01*
X20379Y-3548D02*
X20997Y-3548D01*
X3350Y-3499D02*
X3633Y-3499D01*
X4617Y-3499D02*
X8271Y-3499D01*
X15729Y-3499D02*
X16431Y-3499D01*
X20379Y-3499D02*
X21046Y-3499D01*
X3350Y-3449D02*
X3633Y-3449D01*
X4617Y-3449D02*
X8271Y-3449D01*
X15729Y-3449D02*
X16481Y-3449D01*
X20379Y-3449D02*
X21096Y-3449D01*
X3350Y-3400D02*
X3633Y-3400D01*
X4617Y-3400D02*
X8271Y-3400D01*
X15729Y-3400D02*
X16530Y-3400D01*
X20379Y-3400D02*
X21145Y-3400D01*
X3350Y-3350D02*
X3633Y-3350D01*
X4617Y-3350D02*
X8271Y-3350D01*
X15729Y-3350D02*
X16580Y-3350D01*
X20379Y-3350D02*
X21195Y-3350D01*
X3350Y-3301D02*
X3633Y-3301D01*
X4617Y-3301D02*
X8271Y-3301D01*
X15729Y-3301D02*
X16629Y-3301D01*
X20379Y-3301D02*
X21244Y-3301D01*
X3350Y-3251D02*
X3633Y-3251D01*
X4617Y-3251D02*
X8271Y-3251D01*
X15729Y-3251D02*
X16679Y-3251D01*
X20379Y-3251D02*
X21261Y-3251D01*
X3350Y-3202D02*
X3633Y-3202D01*
X4617Y-3202D02*
X8271Y-3202D01*
X15729Y-3202D02*
X16728Y-3202D01*
X20379Y-3202D02*
X21261Y-3202D01*
X3350Y-3152D02*
X3633Y-3152D01*
X4617Y-3152D02*
X8271Y-3152D01*
X15729Y-3152D02*
X16778Y-3152D01*
X20379Y-3152D02*
X21261Y-3152D01*
X3350Y-3103D02*
X3633Y-3103D01*
X4617Y-3103D02*
X8271Y-3103D01*
X15729Y-3103D02*
X16827Y-3103D01*
X20379Y-3103D02*
X21261Y-3103D01*
X3350Y-3053D02*
X3633Y-3053D01*
X4617Y-3053D02*
X8271Y-3053D01*
X15729Y-3053D02*
X16877Y-3053D01*
X20379Y-3053D02*
X21261Y-3053D01*
X3350Y-3003D02*
X3633Y-3003D01*
X4637Y-3003D02*
X8271Y-3003D01*
X15729Y-3003D02*
X16937Y-3003D01*
X20379Y-3003D02*
X21261Y-3003D01*
X3350Y-2954D02*
X3633Y-2954D01*
X4686Y-2954D02*
X8271Y-2954D01*
X15729Y-2954D02*
X17011Y-2954D01*
X20379Y-2954D02*
X21261Y-2954D01*
X3350Y-2904D02*
X3633Y-2904D01*
X4736Y-2904D02*
X8271Y-2904D01*
X15729Y-2904D02*
X17142Y-2904D01*
X20379Y-2904D02*
X21261Y-2904D01*
X3350Y-2855D02*
X3633Y-2855D01*
X4785Y-2855D02*
X8271Y-2855D01*
X15729Y-2855D02*
X17421Y-2855D01*
X20379Y-2855D02*
X21261Y-2855D01*
X3350Y-2805D02*
X3636Y-2805D01*
X4835Y-2805D02*
X8271Y-2805D01*
X15729Y-2805D02*
X17421Y-2805D01*
X20379Y-2805D02*
X21261Y-2805D01*
X3350Y-2756D02*
X3646Y-2756D01*
X4884Y-2756D02*
X8271Y-2756D01*
X15729Y-2756D02*
X17421Y-2756D01*
X20379Y-2756D02*
X21261Y-2756D01*
X3350Y-2706D02*
X3656Y-2706D01*
X4934Y-2706D02*
X8271Y-2706D01*
X15729Y-2706D02*
X17421Y-2706D01*
X20379Y-2706D02*
X21261Y-2706D01*
X3350Y-2657D02*
X3665Y-2657D01*
X4983Y-2657D02*
X8271Y-2657D01*
X15729Y-2657D02*
X17421Y-2657D01*
X20379Y-2657D02*
X21261Y-2657D01*
X3350Y-2607D02*
X3687Y-2607D01*
X5033Y-2607D02*
X5251Y-2607D01*
X5349Y-2607D02*
X8271Y-2607D01*
X15729Y-2607D02*
X17421Y-2607D01*
X20379Y-2607D02*
X21261Y-2607D01*
X3350Y-2558D02*
X3720Y-2558D01*
X5521Y-2558D02*
X8271Y-2558D01*
X15729Y-2558D02*
X17421Y-2558D01*
X20379Y-2558D02*
X21261Y-2558D01*
X3350Y-2508D02*
X3753Y-2508D01*
X5668Y-2508D02*
X8271Y-2508D01*
X15729Y-2508D02*
X17421Y-2508D01*
X20379Y-2508D02*
X21261Y-2508D01*
X3350Y-2459D02*
X3791Y-2459D01*
X5787Y-2459D02*
X8271Y-2459D01*
X15729Y-2459D02*
X17421Y-2459D01*
X20379Y-2459D02*
X21261Y-2459D01*
X3350Y-2409D02*
X3841Y-2409D01*
X5855Y-2409D02*
X8271Y-2409D01*
X15729Y-2409D02*
X17421Y-2409D01*
X20379Y-2409D02*
X21261Y-2409D01*
X3350Y-2360D02*
X3890Y-2360D01*
X5919Y-2360D02*
X8271Y-2360D01*
X15729Y-2360D02*
X17421Y-2360D01*
X20379Y-2360D02*
X21261Y-2360D01*
X3350Y-2310D02*
X3940Y-2310D01*
X5984Y-2310D02*
X8271Y-2310D01*
X15729Y-2310D02*
X21261Y-2310D01*
X3350Y-2261D02*
X3989Y-2261D01*
X6023Y-2261D02*
X8271Y-2261D01*
X15729Y-2261D02*
X21261Y-2261D01*
X3350Y-2211D02*
X4039Y-2211D01*
X6061Y-2211D02*
X8271Y-2211D01*
X15729Y-2211D02*
X21261Y-2211D01*
X3350Y-2161D02*
X4088Y-2161D01*
X6099Y-2161D02*
X8271Y-2161D01*
X15729Y-2161D02*
X21261Y-2161D01*
X3350Y-2112D02*
X4138Y-2112D01*
X6137Y-2112D02*
X8271Y-2112D01*
X15729Y-2112D02*
X21261Y-2112D01*
X3350Y-2062D02*
X4187Y-2062D01*
X6157Y-2062D02*
X8271Y-2062D01*
X15729Y-2062D02*
X21261Y-2062D01*
X3350Y-2013D02*
X4237Y-2013D01*
X6178Y-2013D02*
X8271Y-2013D01*
X15729Y-2013D02*
X21261Y-2013D01*
X3350Y-1963D02*
X4286Y-1963D01*
X6198Y-1963D02*
X8271Y-1963D01*
X15729Y-1963D02*
X21261Y-1963D01*
X3350Y-1914D02*
X4336Y-1914D01*
X6219Y-1914D02*
X8271Y-1914D01*
X15729Y-1914D02*
X21261Y-1914D01*
X3350Y-1864D02*
X4386Y-1864D01*
X6233Y-1864D02*
X8271Y-1864D01*
X15729Y-1864D02*
X21273Y-1864D01*
X3350Y-1815D02*
X4411Y-1815D01*
X6239Y-1815D02*
X8271Y-1815D01*
X15729Y-1815D02*
X22990Y-1815D01*
X3350Y-1765D02*
X4404Y-1765D01*
X6246Y-1765D02*
X8271Y-1765D01*
X15729Y-1765D02*
X23040Y-1765D01*
X3350Y-1716D02*
X4398Y-1716D01*
X6252Y-1716D02*
X8271Y-1716D01*
X15729Y-1716D02*
X23089Y-1716D01*
X3350Y-1666D02*
X4391Y-1666D01*
X6259Y-1666D02*
X8271Y-1666D01*
X15729Y-1666D02*
X23139Y-1666D01*
X3350Y-1617D02*
X4392Y-1617D01*
X6258Y-1617D02*
X8271Y-1617D01*
X15729Y-1617D02*
X23188Y-1617D01*
X3350Y-1567D02*
X4399Y-1567D01*
X6251Y-1567D02*
X8271Y-1567D01*
X15729Y-1567D02*
X23238Y-1567D01*
X3350Y-1518D02*
X4405Y-1518D01*
X6245Y-1518D02*
X8271Y-1518D01*
X15729Y-1518D02*
X23287Y-1518D01*
X3350Y-1468D02*
X4412Y-1468D01*
X6238Y-1468D02*
X8271Y-1468D01*
X15729Y-1468D02*
X23337Y-1468D01*
X3350Y-1419D02*
X4418Y-1419D01*
X6232Y-1419D02*
X8271Y-1419D01*
X15729Y-1419D02*
X23386Y-1419D01*
X3350Y-1369D02*
X4434Y-1369D01*
X6216Y-1369D02*
X8271Y-1369D01*
X15729Y-1369D02*
X23436Y-1369D01*
X3350Y-1319D02*
X4455Y-1319D01*
X6195Y-1319D02*
X8271Y-1319D01*
X15729Y-1319D02*
X23485Y-1319D01*
X3350Y-1270D02*
X4475Y-1270D01*
X6175Y-1270D02*
X8271Y-1270D01*
X15729Y-1270D02*
X23535Y-1270D01*
X3350Y-1220D02*
X4496Y-1220D01*
X6154Y-1220D02*
X8271Y-1220D01*
X15729Y-1220D02*
X23584Y-1220D01*
X3350Y-1171D02*
X4518Y-1171D01*
X6132Y-1171D02*
X8271Y-1171D01*
X15729Y-1171D02*
X23634Y-1171D01*
X3350Y-1121D02*
X4556Y-1121D01*
X6094Y-1121D02*
X8271Y-1121D01*
X15729Y-1121D02*
X23683Y-1121D01*
X3350Y-1072D02*
X4594Y-1072D01*
X6056Y-1072D02*
X8271Y-1072D01*
X15729Y-1072D02*
X23733Y-1072D01*
X3350Y-1022D02*
X4632Y-1022D01*
X6018Y-1022D02*
X8271Y-1022D01*
X15729Y-1022D02*
X23783Y-1022D01*
X3350Y-0973D02*
X4676Y-0973D01*
X5974Y-0973D02*
X8271Y-0973D01*
X15729Y-0973D02*
X23832Y-0973D01*
X3350Y-0923D02*
X4740Y-0923D01*
X5910Y-0923D02*
X8271Y-0923D01*
X15729Y-0923D02*
X23882Y-0923D01*
X3350Y-0874D02*
X4805Y-0874D01*
X5845Y-0874D02*
X8271Y-0874D01*
X15729Y-0874D02*
X23931Y-0874D01*
X3350Y-0824D02*
X4880Y-0824D01*
X5770Y-0824D02*
X8271Y-0824D01*
X15729Y-0824D02*
X23981Y-0824D01*
X3350Y-0775D02*
X5000Y-0775D01*
X5650Y-0775D02*
X8271Y-0775D01*
X15729Y-0775D02*
X24030Y-0775D01*
X3350Y-0725D02*
X5198Y-0725D01*
X5452Y-0725D02*
X8271Y-0725D01*
X15729Y-0725D02*
X24080Y-0725D01*
X3350Y-0676D02*
X8271Y-0676D01*
X15729Y-0676D02*
X24129Y-0676D01*
X3350Y-0626D02*
X8271Y-0626D01*
X15729Y-0626D02*
X24179Y-0626D01*
X3350Y-0577D02*
X8271Y-0577D01*
X15729Y-0577D02*
X24228Y-0577D01*
X3350Y-0527D02*
X8271Y-0527D01*
X15729Y-0527D02*
X24278Y-0527D01*
X3350Y-0477D02*
X8271Y-0477D01*
X15729Y-0477D02*
X24327Y-0477D01*
X3350Y-0428D02*
X8271Y-0428D01*
X15729Y-0428D02*
X24377Y-0428D01*
X3350Y-0378D02*
X8271Y-0378D01*
X15729Y-0378D02*
X24426Y-0378D01*
X3350Y-0329D02*
X8271Y-0329D01*
X15729Y-0329D02*
X24476Y-0329D01*
X3350Y-0279D02*
X8271Y-0279D01*
X15729Y-0279D02*
X24525Y-0279D01*
X3350Y-0230D02*
X8271Y-0230D01*
X15729Y-0230D02*
X24575Y-0230D01*
X3350Y-0180D02*
X8271Y-0180D01*
X15729Y-0180D02*
X24625Y-0180D01*
X3350Y-0131D02*
X8271Y-0131D01*
X15729Y-0131D02*
X24674Y-0131D01*
X3350Y-0081D02*
X8271Y-0081D01*
X15729Y-0081D02*
X24724Y-0081D01*
X3350Y-0032D02*
X5250Y-0032D01*
X5400Y-0032D02*
X8271Y-0032D01*
X15729Y-0032D02*
X24773Y-0032D01*
X3350Y0018D02*
X5016Y0018D01*
X5634Y0018D02*
X8271Y0018D01*
X15729Y0018D02*
X24823Y0018D01*
X3350Y0067D02*
X4897Y0067D01*
X5753Y0067D02*
X8271Y0067D01*
X15729Y0067D02*
X22278Y0067D01*
X22352Y0067D02*
X24872Y0067D01*
X3350Y0117D02*
X4814Y0117D01*
X5836Y0117D02*
X8271Y0117D01*
X15729Y0117D02*
X22001Y0117D01*
X22629Y0117D02*
X24922Y0117D01*
X3350Y0166D02*
X4749Y0166D01*
X5901Y0166D02*
X8271Y0166D01*
X15729Y0166D02*
X21881Y0166D01*
X22749Y0166D02*
X24971Y0166D01*
X3350Y0216D02*
X4685Y0216D01*
X5965Y0216D02*
X8271Y0216D01*
X15729Y0216D02*
X21777Y0216D01*
X22853Y0216D02*
X25021Y0216D01*
X3350Y0265D02*
X4638Y0265D01*
X15729Y0265D02*
X21713Y0265D01*
X22917Y0265D02*
X25070Y0265D01*
X3350Y0315D02*
X4600Y0315D01*
X15729Y0315D02*
X21648Y0315D01*
X22982Y0315D02*
X25120Y0315D01*
X3350Y0365D02*
X4562Y0365D01*
X15729Y0365D02*
X17421Y0365D01*
X20379Y0365D02*
X21584Y0365D01*
X23046Y0365D02*
X25169Y0365D01*
X3350Y0414D02*
X4524Y0414D01*
X15729Y0414D02*
X17421Y0414D01*
X20379Y0414D02*
X21545Y0414D01*
X23085Y0414D02*
X25219Y0414D01*
X3350Y0464D02*
X4499Y0464D01*
X15729Y0464D02*
X17421Y0464D01*
X20379Y0464D02*
X21507Y0464D01*
X23123Y0464D02*
X25268Y0464D01*
X3350Y0513D02*
X4478Y0513D01*
X15729Y0513D02*
X17421Y0513D01*
X20379Y0513D02*
X21469Y0513D01*
X23161Y0513D02*
X25318Y0513D01*
X3350Y0563D02*
X4458Y0563D01*
X15729Y0563D02*
X17421Y0563D01*
X20379Y0563D02*
X21431Y0563D01*
X23199Y0563D02*
X25368Y0563D01*
X3350Y0612D02*
X4437Y0612D01*
X15729Y0612D02*
X17421Y0612D01*
X23226Y0612D02*
X25417Y0612D01*
X3350Y0662D02*
X4419Y0662D01*
X15729Y0662D02*
X17421Y0662D01*
X23247Y0662D02*
X25467Y0662D01*
X3350Y0711D02*
X4413Y0711D01*
X15729Y0711D02*
X17421Y0711D01*
X23267Y0711D02*
X25516Y0711D01*
X3350Y0761D02*
X4406Y0761D01*
X15729Y0761D02*
X17421Y0761D01*
X23288Y0761D02*
X25566Y0761D01*
X3350Y0810D02*
X4400Y0810D01*
X15729Y0810D02*
X17421Y0810D01*
X23308Y0810D02*
X25615Y0810D01*
X3350Y0860D02*
X4393Y0860D01*
X15729Y0860D02*
X17421Y0860D01*
X23321Y0860D02*
X25665Y0860D01*
X3350Y0909D02*
X4390Y0909D01*
X15729Y0909D02*
X17421Y0909D01*
X23327Y0909D02*
X25714Y0909D01*
X3350Y0959D02*
X4397Y0959D01*
X15729Y0959D02*
X17421Y0959D01*
X23334Y0959D02*
X25764Y0959D01*
X3350Y1008D02*
X4403Y1008D01*
X15729Y1008D02*
X17421Y1008D01*
X23340Y1008D02*
X25813Y1008D01*
X3350Y1058D02*
X4410Y1058D01*
X15729Y1058D02*
X17421Y1058D01*
X23347Y1058D02*
X25863Y1058D01*
X3350Y1107D02*
X4416Y1107D01*
X15729Y1107D02*
X17421Y1107D01*
X23351Y1107D02*
X25912Y1107D01*
X3350Y1157D02*
X4428Y1157D01*
X15729Y1157D02*
X17421Y1157D01*
X23345Y1157D02*
X25962Y1157D01*
X3350Y1207D02*
X4449Y1207D01*
X15729Y1207D02*
X17421Y1207D01*
X23338Y1207D02*
X26011Y1207D01*
X3350Y1256D02*
X4469Y1256D01*
X6181Y1256D02*
X8271Y1256D01*
X15729Y1256D02*
X17421Y1256D01*
X23332Y1256D02*
X26061Y1256D01*
X3350Y1306D02*
X4490Y1306D01*
X6160Y1306D02*
X8271Y1306D01*
X15729Y1306D02*
X17421Y1306D01*
X23325Y1306D02*
X26110Y1306D01*
X3350Y1355D02*
X4510Y1355D01*
X6140Y1355D02*
X8271Y1355D01*
X15729Y1355D02*
X17421Y1355D01*
X23319Y1355D02*
X26160Y1355D01*
X3350Y1405D02*
X4546Y1405D01*
X6104Y1405D02*
X8271Y1405D01*
X15729Y1405D02*
X17421Y1405D01*
X23302Y1405D02*
X26210Y1405D01*
X3350Y1454D02*
X4584Y1454D01*
X6066Y1454D02*
X8271Y1454D01*
X15729Y1454D02*
X17421Y1454D01*
X23282Y1454D02*
X26259Y1454D01*
X3350Y1504D02*
X4622Y1504D01*
X6028Y1504D02*
X8271Y1504D01*
X15729Y1504D02*
X17421Y1504D01*
X23261Y1504D02*
X26309Y1504D01*
X3350Y1553D02*
X4660Y1553D01*
X5990Y1553D02*
X8271Y1553D01*
X15729Y1553D02*
X17421Y1553D01*
X23241Y1553D02*
X26358Y1553D01*
X3350Y1603D02*
X4722Y1603D01*
X5928Y1603D02*
X8271Y1603D01*
X15729Y1603D02*
X17421Y1603D01*
X20379Y1603D02*
X21410Y1603D01*
X23220Y1603D02*
X26408Y1603D01*
X3350Y1652D02*
X4787Y1652D01*
X5863Y1652D02*
X8271Y1652D01*
X15729Y1652D02*
X17421Y1652D01*
X20379Y1652D02*
X21442Y1652D01*
X23188Y1652D02*
X26457Y1652D01*
X3350Y1702D02*
X4851Y1702D01*
X5799Y1702D02*
X8271Y1702D01*
X15729Y1702D02*
X17421Y1702D01*
X20379Y1702D02*
X21480Y1702D01*
X23150Y1702D02*
X26507Y1702D01*
X3350Y1751D02*
X4966Y1751D01*
X5684Y1751D02*
X8271Y1751D01*
X15729Y1751D02*
X17421Y1751D01*
X20379Y1751D02*
X21518Y1751D01*
X23112Y1751D02*
X26556Y1751D01*
X3350Y1801D02*
X5092Y1801D01*
X5558Y1801D02*
X8271Y1801D01*
X15729Y1801D02*
X17421Y1801D01*
X20379Y1801D02*
X21556Y1801D01*
X23074Y1801D02*
X26606Y1801D01*
X3350Y1850D02*
X8271Y1850D01*
X15729Y1850D02*
X17421Y1850D01*
X20379Y1850D02*
X21603Y1850D01*
X23027Y1850D02*
X26655Y1850D01*
X3350Y1900D02*
X8271Y1900D01*
X15729Y1900D02*
X17421Y1900D01*
X20379Y1900D02*
X21668Y1900D01*
X22962Y1900D02*
X26705Y1900D01*
X3350Y1950D02*
X8271Y1950D01*
X15729Y1950D02*
X17421Y1950D01*
X20379Y1950D02*
X21732Y1950D01*
X22898Y1950D02*
X26754Y1950D01*
X3350Y1999D02*
X8271Y1999D01*
X15729Y1999D02*
X17421Y1999D01*
X20379Y1999D02*
X21798Y1999D01*
X22832Y1999D02*
X26804Y1999D01*
X3350Y2049D02*
X8271Y2049D01*
X15729Y2049D02*
X17421Y2049D01*
X20379Y2049D02*
X21917Y2049D01*
X22713Y2049D02*
X26853Y2049D01*
X3350Y2098D02*
X8271Y2098D01*
X15729Y2098D02*
X17421Y2098D01*
X20379Y2098D02*
X22037Y2098D01*
X22593Y2098D02*
X26903Y2098D01*
X3350Y2148D02*
X8271Y2148D01*
X15729Y2148D02*
X17421Y2148D01*
X20379Y2148D02*
X26952Y2148D01*
X3350Y2197D02*
X8271Y2197D01*
X15729Y2197D02*
X17421Y2197D01*
X20379Y2197D02*
X27002Y2197D01*
X3350Y2247D02*
X8271Y2247D01*
X15729Y2247D02*
X17421Y2247D01*
X20379Y2247D02*
X27052Y2247D01*
X3350Y2296D02*
X8271Y2296D01*
X15729Y2296D02*
X27101Y2296D01*
X3350Y2346D02*
X8271Y2346D01*
X15729Y2346D02*
X27151Y2346D01*
X3350Y2395D02*
X8271Y2395D01*
X15729Y2395D02*
X27200Y2395D01*
X3350Y2445D02*
X8271Y2445D01*
X15729Y2445D02*
X27250Y2445D01*
X3350Y2494D02*
X8271Y2494D01*
X15729Y2494D02*
X27299Y2494D01*
X3350Y2544D02*
X8271Y2544D01*
X15729Y2544D02*
X27349Y2544D01*
X3350Y2593D02*
X8271Y2593D01*
X15729Y2593D02*
X27398Y2593D01*
X3350Y2643D02*
X8271Y2643D01*
X15729Y2643D02*
X27448Y2643D01*
X3350Y2692D02*
X8271Y2692D01*
X15729Y2692D02*
X27497Y2692D01*
X3350Y2742D02*
X27547Y2742D01*
X3350Y2792D02*
X27596Y2792D01*
X3350Y2841D02*
X27607Y2841D01*
X3350Y2891D02*
X27587Y2891D01*
X16838Y-9842D02*
X16838Y-9842D01*
X16863Y-9648*
X16864Y-9645*
X16959Y-9416*
X16961Y-9413*
X17111Y-9216*
X17114Y-9214*
X17129Y-9202*
X17100Y-9117*
X16579Y-9117*
X15222Y-10473*
X15220Y-10475*
X15065Y-10578*
X15061Y-10580*
X14879Y-10616*
X14876Y-10617*
X12051Y-10617*
X12022Y-10663*
X12073Y-10758*
X15921Y-10758*
X16838Y-9842*
X12061Y-10734D02*
X15946Y-10734D01*
X12034Y-10685D02*
X15995Y-10685D01*
X12039Y-10635D02*
X16045Y-10635D01*
X15033Y-10586D02*
X16094Y-10586D01*
X15128Y-10536D02*
X16144Y-10536D01*
X15202Y-10487D02*
X16193Y-10487D01*
X15258Y-10437D02*
X16243Y-10437D01*
X15308Y-10388D02*
X16292Y-10388D01*
X15357Y-10338D02*
X16342Y-10338D01*
X15407Y-10289D02*
X16391Y-10289D01*
X15456Y-10239D02*
X16441Y-10239D01*
X15506Y-10189D02*
X16490Y-10189D01*
X15555Y-10140D02*
X16540Y-10140D01*
X15605Y-10090D02*
X16589Y-10090D01*
X15654Y-10041D02*
X16639Y-10041D01*
X15704Y-9991D02*
X16688Y-9991D01*
X15753Y-9942D02*
X16738Y-9942D01*
X15803Y-9892D02*
X16788Y-9892D01*
X15852Y-9843D02*
X16837Y-9843D01*
X15902Y-9793D02*
X16844Y-9793D01*
X15951Y-9744D02*
X16851Y-9744D01*
X16001Y-9694D02*
X16857Y-9694D01*
X16051Y-9645D02*
X16864Y-9645D01*
X16100Y-9595D02*
X16885Y-9595D01*
X16150Y-9546D02*
X16905Y-9546D01*
X16199Y-9496D02*
X16926Y-9496D01*
X16249Y-9447D02*
X16946Y-9447D01*
X16298Y-9397D02*
X16973Y-9397D01*
X16348Y-9347D02*
X17011Y-9347D01*
X16397Y-9298D02*
X17049Y-9298D01*
X16447Y-9248D02*
X17087Y-9248D01*
X16496Y-9199D02*
X17128Y-9199D01*
X16546Y-9149D02*
X17111Y-9149D01*
X10295Y-9653D02*
X10295Y-9653D01*
X10296Y-9650*
X10451Y-9448*
X10453Y-9446*
X10655Y-9291*
X10658Y-9290*
X10893Y-9192*
X10896Y-9191*
X11148Y-9158*
X11152Y-9158*
X11404Y-9191*
X11407Y-9192*
X11642Y-9290*
X11645Y-9291*
X11847Y-9446*
X11849Y-9448*
X11991Y-9633*
X14671Y-9633*
X16028Y-8277*
X16030Y-8275*
X16185Y-8172*
X16189Y-8170*
X16371Y-8134*
X16374Y-8133*
X17100Y-8133*
X17129Y-8048*
X17114Y-8036*
X17111Y-8034*
X16968Y-7847*
X12129Y-7847*
X12129Y-8569*
X12114Y-8584*
X10186Y-8584*
X10171Y-8569*
X10171Y-6641*
X10186Y-6626*
X12114Y-6626*
X12129Y-6641*
X12129Y-6863*
X16968Y-6863*
X17111Y-6676*
X17114Y-6674*
X17310Y-6523*
X17313Y-6521*
X17542Y-6427*
X17545Y-6426*
X17791Y-6393*
X17794Y-6393*
X18040Y-6426*
X18043Y-6427*
X18096Y-6449*
X20180Y-4365*
X20145Y-4279*
X17436Y-4279*
X17421Y-4264*
X17421Y-4034*
X17326Y-3994*
X15497Y-5823*
X15495Y-5825*
X15340Y-5928*
X15336Y-5930*
X15154Y-5966*
X15151Y-5967*
X7479Y-5967*
X6220Y-7226*
X6236Y-7353*
X6236Y-7357*
X6229Y-7409*
X8604Y-9783*
X10241Y-9783*
X10295Y-9653*
X8579Y-9759D02*
X10251Y-9759D01*
X8530Y-9710D02*
X10271Y-9710D01*
X8480Y-9660D02*
X10292Y-9660D01*
X8431Y-9611D02*
X10326Y-9611D01*
X11974Y-9611D02*
X14694Y-9611D01*
X8381Y-9561D02*
X10364Y-9561D01*
X11936Y-9561D02*
X14744Y-9561D01*
X8332Y-9512D02*
X10402Y-9512D01*
X11898Y-9512D02*
X14793Y-9512D01*
X8282Y-9462D02*
X10440Y-9462D01*
X11860Y-9462D02*
X14843Y-9462D01*
X8233Y-9413D02*
X10497Y-9413D01*
X11803Y-9413D02*
X14892Y-9413D01*
X8183Y-9363D02*
X10561Y-9363D01*
X11739Y-9363D02*
X14942Y-9363D01*
X8134Y-9314D02*
X10626Y-9314D01*
X11674Y-9314D02*
X14991Y-9314D01*
X8084Y-9264D02*
X10720Y-9264D01*
X11580Y-9264D02*
X15041Y-9264D01*
X8035Y-9214D02*
X10839Y-9214D01*
X11461Y-9214D02*
X15090Y-9214D01*
X7985Y-9165D02*
X11097Y-9165D01*
X11203Y-9165D02*
X15140Y-9165D01*
X7936Y-9115D02*
X15189Y-9115D01*
X7886Y-9066D02*
X15239Y-9066D01*
X7837Y-9016D02*
X15288Y-9016D01*
X7787Y-8967D02*
X15338Y-8967D01*
X7737Y-8917D02*
X15388Y-8917D01*
X7688Y-8868D02*
X15437Y-8868D01*
X7638Y-8818D02*
X15487Y-8818D01*
X7589Y-8769D02*
X15536Y-8769D01*
X7539Y-8719D02*
X15586Y-8719D01*
X7490Y-8670D02*
X15635Y-8670D01*
X7440Y-8620D02*
X15685Y-8620D01*
X7391Y-8571D02*
X10173Y-8571D01*
X12127Y-8571D02*
X15734Y-8571D01*
X7341Y-8521D02*
X10171Y-8521D01*
X12129Y-8521D02*
X15784Y-8521D01*
X7292Y-8472D02*
X10171Y-8472D01*
X12129Y-8472D02*
X15833Y-8472D01*
X7242Y-8422D02*
X10171Y-8422D01*
X12129Y-8422D02*
X15883Y-8422D01*
X7193Y-8372D02*
X10171Y-8372D01*
X12129Y-8372D02*
X15932Y-8372D01*
X7143Y-8323D02*
X10171Y-8323D01*
X12129Y-8323D02*
X15982Y-8323D01*
X7094Y-8273D02*
X10171Y-8273D01*
X12129Y-8273D02*
X16033Y-8273D01*
X7044Y-8224D02*
X10171Y-8224D01*
X12129Y-8224D02*
X16107Y-8224D01*
X6995Y-8174D02*
X10171Y-8174D01*
X12129Y-8174D02*
X16181Y-8174D01*
X6945Y-8125D02*
X10171Y-8125D01*
X12129Y-8125D02*
X17103Y-8125D01*
X6895Y-8075D02*
X10171Y-8075D01*
X12129Y-8075D02*
X17119Y-8075D01*
X6846Y-8026D02*
X10171Y-8026D01*
X12129Y-8026D02*
X17105Y-8026D01*
X6796Y-7976D02*
X10171Y-7976D01*
X12129Y-7976D02*
X17067Y-7976D01*
X6747Y-7927D02*
X10171Y-7927D01*
X12129Y-7927D02*
X17029Y-7927D01*
X6697Y-7877D02*
X10171Y-7877D01*
X12129Y-7877D02*
X16991Y-7877D01*
X6648Y-7828D02*
X10171Y-7828D01*
X6598Y-7778D02*
X10171Y-7778D01*
X6549Y-7729D02*
X10171Y-7729D01*
X6499Y-7679D02*
X10171Y-7679D01*
X6450Y-7630D02*
X10171Y-7630D01*
X6400Y-7580D02*
X10171Y-7580D01*
X6351Y-7530D02*
X10171Y-7530D01*
X6301Y-7481D02*
X10171Y-7481D01*
X6252Y-7431D02*
X10171Y-7431D01*
X6233Y-7382D02*
X10171Y-7382D01*
X6234Y-7332D02*
X10171Y-7332D01*
X6227Y-7283D02*
X10171Y-7283D01*
X6221Y-7233D02*
X10171Y-7233D01*
X6261Y-7184D02*
X10171Y-7184D01*
X6311Y-7134D02*
X10171Y-7134D01*
X6360Y-7085D02*
X10171Y-7085D01*
X6410Y-7035D02*
X10171Y-7035D01*
X6460Y-6986D02*
X10171Y-6986D01*
X6509Y-6936D02*
X10171Y-6936D01*
X6559Y-6887D02*
X10171Y-6887D01*
X6608Y-6837D02*
X10171Y-6837D01*
X12129Y-6837D02*
X16988Y-6837D01*
X6658Y-6788D02*
X10171Y-6788D01*
X12129Y-6788D02*
X17026Y-6788D01*
X6707Y-6738D02*
X10171Y-6738D01*
X12129Y-6738D02*
X17064Y-6738D01*
X6757Y-6688D02*
X10171Y-6688D01*
X12129Y-6688D02*
X17102Y-6688D01*
X6806Y-6639D02*
X10174Y-6639D01*
X12126Y-6639D02*
X17159Y-6639D01*
X6856Y-6589D02*
X17224Y-6589D01*
X6905Y-6540D02*
X17288Y-6540D01*
X6955Y-6490D02*
X17388Y-6490D01*
X7004Y-6441D02*
X17508Y-6441D01*
X18077Y-6441D02*
X18104Y-6441D01*
X7054Y-6391D02*
X18154Y-6391D01*
X7103Y-6342D02*
X18203Y-6342D01*
X7153Y-6292D02*
X18253Y-6292D01*
X7202Y-6243D02*
X18302Y-6243D01*
X7252Y-6193D02*
X18352Y-6193D01*
X7302Y-6144D02*
X18401Y-6144D01*
X7351Y-6094D02*
X18451Y-6094D01*
X7401Y-6045D02*
X18500Y-6045D01*
X7450Y-5995D02*
X18550Y-5995D01*
X15258Y-5946D02*
X18599Y-5946D01*
X15389Y-5896D02*
X18649Y-5896D01*
X15463Y-5846D02*
X18698Y-5846D01*
X15523Y-5797D02*
X18748Y-5797D01*
X15573Y-5747D02*
X18797Y-5747D01*
X15622Y-5698D02*
X18847Y-5698D01*
X15672Y-5648D02*
X18897Y-5648D01*
X15721Y-5599D02*
X18946Y-5599D01*
X15771Y-5549D02*
X18996Y-5549D01*
X15820Y-5500D02*
X19045Y-5500D01*
X15870Y-5450D02*
X19095Y-5450D01*
X15919Y-5401D02*
X19144Y-5401D01*
X15969Y-5351D02*
X19194Y-5351D01*
X16019Y-5302D02*
X19243Y-5302D01*
X16068Y-5252D02*
X19293Y-5252D01*
X16118Y-5203D02*
X19342Y-5203D01*
X16167Y-5153D02*
X19392Y-5153D01*
X16217Y-5103D02*
X19441Y-5103D01*
X16266Y-5054D02*
X19491Y-5054D01*
X16316Y-5004D02*
X19540Y-5004D01*
X16365Y-4955D02*
X19590Y-4955D01*
X16415Y-4905D02*
X19639Y-4905D01*
X16464Y-4856D02*
X19689Y-4856D01*
X16514Y-4806D02*
X19739Y-4806D01*
X16563Y-4757D02*
X19788Y-4757D01*
X16613Y-4707D02*
X19838Y-4707D01*
X16662Y-4658D02*
X19887Y-4658D01*
X16712Y-4608D02*
X19937Y-4608D01*
X16762Y-4559D02*
X19986Y-4559D01*
X16811Y-4509D02*
X20036Y-4509D01*
X16861Y-4460D02*
X20085Y-4460D01*
X16910Y-4410D02*
X20135Y-4410D01*
X16960Y-4361D02*
X20179Y-4361D01*
X17009Y-4311D02*
X20158Y-4311D01*
X17059Y-4261D02*
X17421Y-4261D01*
X17108Y-4212D02*
X17421Y-4212D01*
X17158Y-4162D02*
X17421Y-4162D01*
X17207Y-4113D02*
X17421Y-4113D01*
X17257Y-4063D02*
X17421Y-4063D01*
X17306Y-4014D02*
X17373Y-4014D01*
X18812Y-7697D02*
X18812Y-7697D01*
X18815Y-7696*
X19061Y-7663*
X19064Y-7663*
X19310Y-7696*
X19313Y-7697*
X19345Y-7710*
X20653Y-6402*
X20655Y-6400*
X20810Y-6297*
X20814Y-6295*
X20996Y-6259*
X20999Y-6258*
X21625Y-6258*
X21657Y-6166*
X21543Y-6079*
X21541Y-6077*
X21386Y-5875*
X21385Y-5872*
X21287Y-5637*
X21286Y-5634*
X21253Y-5382*
X21253Y-5378*
X21286Y-5126*
X21287Y-5123*
X21385Y-4888*
X21386Y-4885*
X21541Y-4683*
X21543Y-4681*
X21745Y-4526*
X21748Y-4525*
X21983Y-4427*
X21986Y-4426*
X22238Y-4393*
X22242Y-4393*
X22494Y-4426*
X22497Y-4427*
X22589Y-4465*
X23141Y-3914*
X23101Y-3819*
X22117Y-3819*
X18734Y-7201*
X18754Y-7353*
X18754Y-7357*
X18722Y-7602*
X18721Y-7605*
X18703Y-7649*
X18769Y-7714*
X18812Y-7697*
X18749Y-7695D02*
X18821Y-7695D01*
X19304Y-7695D02*
X19360Y-7695D01*
X18704Y-7645D02*
X19409Y-7645D01*
X18723Y-7596D02*
X19459Y-7596D01*
X18729Y-7546D02*
X19509Y-7546D01*
X18736Y-7497D02*
X19558Y-7497D01*
X18742Y-7447D02*
X19608Y-7447D01*
X18749Y-7398D02*
X19657Y-7398D01*
X18753Y-7348D02*
X19707Y-7348D01*
X18747Y-7299D02*
X19756Y-7299D01*
X18740Y-7249D02*
X19806Y-7249D01*
X18736Y-7200D02*
X19855Y-7200D01*
X18785Y-7150D02*
X19905Y-7150D01*
X18835Y-7101D02*
X19954Y-7101D01*
X18884Y-7051D02*
X20004Y-7051D01*
X18934Y-7001D02*
X20053Y-7001D01*
X18983Y-6952D02*
X20103Y-6952D01*
X19033Y-6902D02*
X20152Y-6902D01*
X19082Y-6853D02*
X20202Y-6853D01*
X19132Y-6803D02*
X20251Y-6803D01*
X19181Y-6754D02*
X20301Y-6754D01*
X19231Y-6704D02*
X20351Y-6704D01*
X19280Y-6655D02*
X20400Y-6655D01*
X19330Y-6605D02*
X20450Y-6605D01*
X19379Y-6556D02*
X20499Y-6556D01*
X19429Y-6506D02*
X20549Y-6506D01*
X19479Y-6457D02*
X20598Y-6457D01*
X19528Y-6407D02*
X20648Y-6407D01*
X19578Y-6358D02*
X20719Y-6358D01*
X19627Y-6308D02*
X20793Y-6308D01*
X19677Y-6259D02*
X20998Y-6259D01*
X19726Y-6209D02*
X21642Y-6209D01*
X19776Y-6159D02*
X21648Y-6159D01*
X19825Y-6110D02*
X21584Y-6110D01*
X19875Y-6060D02*
X21529Y-6060D01*
X19924Y-6011D02*
X21491Y-6011D01*
X19974Y-5961D02*
X21453Y-5961D01*
X20023Y-5912D02*
X21415Y-5912D01*
X20073Y-5862D02*
X21381Y-5862D01*
X20122Y-5813D02*
X21360Y-5813D01*
X20172Y-5763D02*
X21340Y-5763D01*
X20221Y-5714D02*
X21319Y-5714D01*
X20271Y-5664D02*
X21298Y-5664D01*
X20321Y-5615D02*
X21284Y-5615D01*
X20370Y-5565D02*
X21277Y-5565D01*
X20420Y-5516D02*
X21271Y-5516D01*
X20469Y-5466D02*
X21264Y-5466D01*
X20519Y-5417D02*
X21258Y-5417D01*
X20568Y-5367D02*
X21255Y-5367D01*
X20618Y-5317D02*
X21261Y-5317D01*
X20667Y-5268D02*
X21268Y-5268D01*
X20717Y-5218D02*
X21274Y-5218D01*
X20766Y-5169D02*
X21281Y-5169D01*
X20816Y-5119D02*
X21289Y-5119D01*
X20865Y-5070D02*
X21309Y-5070D01*
X20915Y-5020D02*
X21330Y-5020D01*
X20964Y-4971D02*
X21350Y-4971D01*
X21014Y-4921D02*
X21371Y-4921D01*
X21063Y-4872D02*
X21397Y-4872D01*
X21113Y-4822D02*
X21435Y-4822D01*
X21163Y-4773D02*
X21473Y-4773D01*
X21212Y-4723D02*
X21511Y-4723D01*
X21262Y-4674D02*
X21553Y-4674D01*
X21311Y-4624D02*
X21618Y-4624D01*
X21361Y-4575D02*
X21682Y-4575D01*
X21410Y-4525D02*
X21747Y-4525D01*
X21460Y-4475D02*
X21867Y-4475D01*
X21509Y-4426D02*
X21990Y-4426D01*
X22490Y-4426D02*
X22629Y-4426D01*
X21559Y-4376D02*
X22678Y-4376D01*
X21608Y-4327D02*
X22728Y-4327D01*
X21658Y-4277D02*
X22777Y-4277D01*
X21707Y-4228D02*
X22827Y-4228D01*
X21757Y-4178D02*
X22877Y-4178D01*
X21806Y-4129D02*
X22926Y-4129D01*
X21856Y-4079D02*
X22976Y-4079D01*
X21905Y-4030D02*
X23025Y-4030D01*
X21955Y-3980D02*
X23075Y-3980D01*
X22005Y-3931D02*
X23124Y-3931D01*
X22054Y-3881D02*
X23127Y-3881D01*
X22104Y-3832D02*
X23106Y-3832D01*
X32346Y-10303D02*
X32346Y-10303D01*
X32304Y-10217*
X30924Y-10217*
X30829Y-10326*
X30847Y-10458*
X30847Y-10462*
X30814Y-10714*
X30813Y-10717*
X30715Y-10952*
X30714Y-10955*
X30559Y-11157*
X30557Y-11159*
X30550Y-11164*
X30579Y-11250*
X32346Y-11250*
X32346Y-10303*
X30571Y-11225D02*
X32346Y-11225D01*
X30554Y-11176D02*
X32346Y-11176D01*
X30582Y-11126D02*
X32346Y-11126D01*
X30620Y-11077D02*
X32346Y-11077D01*
X30658Y-11027D02*
X32346Y-11027D01*
X30696Y-10978D02*
X32346Y-10978D01*
X30725Y-10928D02*
X32346Y-10928D01*
X30746Y-10879D02*
X32346Y-10879D01*
X30766Y-10829D02*
X32346Y-10829D01*
X30787Y-10780D02*
X32346Y-10780D01*
X30807Y-10730D02*
X32346Y-10730D01*
X30818Y-10681D02*
X32346Y-10681D01*
X30825Y-10631D02*
X32346Y-10631D01*
X30831Y-10582D02*
X32346Y-10582D01*
X30838Y-10532D02*
X32346Y-10532D01*
X30844Y-10483D02*
X32346Y-10483D01*
X30843Y-10433D02*
X32346Y-10433D01*
X30837Y-10383D02*
X32346Y-10383D01*
X30830Y-10334D02*
X32346Y-10334D01*
X30866Y-10284D02*
X32337Y-10284D01*
X30908Y-10235D02*
X32313Y-10235D01*
X38225Y-10692D02*
X38225Y-10692D01*
X38139Y-10657*
X37829Y-10967*
X37829Y-11250*
X38225Y-11250*
X38225Y-10692*
X37829Y-11225D02*
X38225Y-11225D01*
X37829Y-11176D02*
X38225Y-11176D01*
X37829Y-11126D02*
X38225Y-11126D01*
X37829Y-11077D02*
X38225Y-11077D01*
X37829Y-11027D02*
X38225Y-11027D01*
X37829Y-10978D02*
X38225Y-10978D01*
X37867Y-10928D02*
X38225Y-10928D01*
X37916Y-10879D02*
X38225Y-10879D01*
X37966Y-10829D02*
X38225Y-10829D01*
X38015Y-10780D02*
X38225Y-10780D01*
X38065Y-10730D02*
X38225Y-10730D01*
X38115Y-10681D02*
X38197Y-10681D01*
X36271Y-10286D02*
X36271Y-10286D01*
X36286Y-10271*
X37133Y-10271*
X37758Y-9646*
X37758Y-9058*
X37666Y-9026*
X37606Y-9104*
X37604Y-9106*
X37444Y-9229*
X37441Y-9231*
X37255Y-9308*
X37252Y-9309*
X37052Y-9335*
X37048Y-9335*
X36848Y-9309*
X36845Y-9308*
X36787Y-9284*
X35997Y-10073*
X35995Y-10075*
X35840Y-10178*
X35836Y-10180*
X35654Y-10216*
X35651Y-10217*
X33946Y-10217*
X33904Y-10303*
X33904Y-10558*
X36271Y-10558*
X36271Y-10286*
X33904Y-10534D02*
X36271Y-10534D01*
X33904Y-10485D02*
X36271Y-10485D01*
X33904Y-10435D02*
X36271Y-10435D01*
X33904Y-10386D02*
X36271Y-10386D01*
X33904Y-10336D02*
X36271Y-10336D01*
X33911Y-10287D02*
X36271Y-10287D01*
X33936Y-10237D02*
X37168Y-10237D01*
X35798Y-10188D02*
X37217Y-10188D01*
X35900Y-10138D02*
X37267Y-10138D01*
X35975Y-10089D02*
X37316Y-10089D01*
X36031Y-10039D02*
X37366Y-10039D01*
X36081Y-9989D02*
X37415Y-9989D01*
X36130Y-9940D02*
X37465Y-9940D01*
X36180Y-9890D02*
X37514Y-9890D01*
X36229Y-9841D02*
X37564Y-9841D01*
X36279Y-9791D02*
X37613Y-9791D01*
X36328Y-9742D02*
X37663Y-9742D01*
X36378Y-9692D02*
X37713Y-9692D01*
X36427Y-9643D02*
X37758Y-9643D01*
X36477Y-9593D02*
X37758Y-9593D01*
X36526Y-9544D02*
X37758Y-9544D01*
X36576Y-9494D02*
X37758Y-9494D01*
X36626Y-9445D02*
X37758Y-9445D01*
X36675Y-9395D02*
X37758Y-9395D01*
X36725Y-9346D02*
X37758Y-9346D01*
X36774Y-9296D02*
X36817Y-9296D01*
X37283Y-9296D02*
X37758Y-9296D01*
X37403Y-9247D02*
X37758Y-9247D01*
X37486Y-9197D02*
X37758Y-9197D01*
X37550Y-9147D02*
X37758Y-9147D01*
X37611Y-9098D02*
X37758Y-9098D01*
X37649Y-9048D02*
X37731Y-9048D01*
X28903Y-3067D02*
X28903Y-3067D01*
X28873Y-2842*
X28873Y-2838*
X28906Y-2586*
X28907Y-2583*
X29005Y-2348*
X29006Y-2345*
X29161Y-2143*
X29163Y-2141*
X29365Y-1986*
X29368Y-1985*
X29603Y-1887*
X29606Y-1886*
X29858Y-1853*
X29862Y-1853*
X30052Y-1878*
X32514Y0584*
X32507Y0688*
X32393Y0775*
X32390Y0778*
X32228Y0990*
X32226Y0993*
X32124Y1240*
X32123Y1243*
X32088Y1508*
X32088Y1512*
X32123Y1777*
X32124Y1780*
X32226Y2027*
X32228Y2030*
X32390Y2242*
X32393Y2245*
X32605Y2407*
X32608Y2409*
X32640Y2422*
X32623Y2508*
X28704Y2508*
X23219Y-2977*
X23219Y-3701*
X23314Y-3741*
X28503Y1448*
X28505Y1450*
X28660Y1553*
X28664Y1555*
X28846Y1591*
X28849Y1592*
X29025Y1592*
X29036Y1617*
X29038Y1620*
X29200Y1832*
X29203Y1835*
X29415Y1997*
X29418Y1999*
X29665Y2101*
X29668Y2102*
X29933Y2137*
X29937Y2137*
X30202Y2102*
X30205Y2101*
X30452Y1999*
X30455Y1997*
X30667Y1835*
X30670Y1832*
X30832Y1620*
X30834Y1617*
X30936Y1370*
X30937Y1367*
X30972Y1102*
X30972Y1098*
X30937Y0833*
X30936Y0830*
X30834Y0583*
X30832Y0580*
X30670Y0368*
X30667Y0365*
X30455Y0203*
X30452Y0201*
X30205Y0099*
X30202Y0098*
X29937Y0063*
X29933Y0063*
X29668Y0098*
X29665Y0099*
X29418Y0201*
X29415Y0203*
X29203Y0365*
X29200Y0368*
X29099Y0500*
X28961Y0515*
X23208Y-5237*
X23227Y-5378*
X23227Y-5382*
X23194Y-5634*
X23193Y-5637*
X23095Y-5872*
X23094Y-5875*
X22939Y-6077*
X22937Y-6079*
X22823Y-6166*
X22855Y-6258*
X25711Y-6258*
X28903Y-3067*
X22847Y-6234D02*
X25736Y-6234D01*
X22830Y-6185D02*
X25785Y-6185D01*
X22863Y-6135D02*
X25835Y-6135D01*
X22928Y-6086D02*
X25884Y-6086D01*
X22970Y-6036D02*
X25934Y-6036D01*
X23008Y-5987D02*
X25983Y-5987D01*
X23046Y-5937D02*
X26033Y-5937D01*
X23084Y-5888D02*
X26082Y-5888D01*
X23109Y-5838D02*
X26132Y-5838D01*
X23130Y-5789D02*
X26181Y-5789D01*
X23151Y-5739D02*
X26231Y-5739D01*
X23171Y-5689D02*
X26280Y-5689D01*
X23192Y-5640D02*
X26330Y-5640D01*
X23199Y-5590D02*
X26379Y-5590D01*
X23206Y-5541D02*
X26429Y-5541D01*
X23212Y-5491D02*
X26478Y-5491D01*
X23219Y-5442D02*
X26528Y-5442D01*
X23225Y-5392D02*
X26578Y-5392D01*
X23222Y-5343D02*
X26627Y-5343D01*
X23216Y-5293D02*
X26677Y-5293D01*
X23209Y-5244D02*
X26726Y-5244D01*
X23251Y-5194D02*
X26776Y-5194D01*
X23301Y-5145D02*
X26825Y-5145D01*
X23350Y-5095D02*
X26875Y-5095D01*
X23400Y-5046D02*
X26924Y-5046D01*
X23449Y-4996D02*
X26974Y-4996D01*
X23499Y-4947D02*
X27023Y-4947D01*
X23548Y-4897D02*
X27073Y-4897D01*
X23598Y-4847D02*
X27122Y-4847D01*
X23647Y-4798D02*
X27172Y-4798D01*
X23697Y-4748D02*
X27221Y-4748D01*
X23746Y-4699D02*
X27271Y-4699D01*
X23796Y-4649D02*
X27320Y-4649D01*
X23845Y-4600D02*
X27370Y-4600D01*
X23895Y-4550D02*
X27420Y-4550D01*
X23944Y-4501D02*
X27469Y-4501D01*
X23994Y-4451D02*
X27519Y-4451D01*
X24043Y-4402D02*
X27568Y-4402D01*
X24093Y-4352D02*
X27618Y-4352D01*
X24143Y-4303D02*
X27667Y-4303D01*
X24192Y-4253D02*
X27717Y-4253D01*
X24242Y-4204D02*
X27766Y-4204D01*
X24291Y-4154D02*
X27816Y-4154D01*
X24341Y-4105D02*
X27865Y-4105D01*
X24390Y-4055D02*
X27915Y-4055D01*
X24440Y-4005D02*
X27964Y-4005D01*
X24489Y-3956D02*
X28014Y-3956D01*
X24539Y-3906D02*
X28063Y-3906D01*
X24588Y-3857D02*
X28113Y-3857D01*
X24638Y-3807D02*
X28162Y-3807D01*
X24687Y-3758D02*
X28212Y-3758D01*
X23236Y-3708D02*
X23347Y-3708D01*
X24737Y-3708D02*
X28262Y-3708D01*
X23219Y-3659D02*
X23396Y-3659D01*
X24786Y-3659D02*
X28311Y-3659D01*
X23219Y-3609D02*
X23446Y-3609D01*
X24836Y-3609D02*
X28361Y-3609D01*
X23219Y-3560D02*
X23495Y-3560D01*
X24885Y-3560D02*
X28410Y-3560D01*
X23219Y-3510D02*
X23545Y-3510D01*
X24935Y-3510D02*
X28460Y-3510D01*
X23219Y-3461D02*
X23594Y-3461D01*
X24985Y-3461D02*
X28509Y-3461D01*
X23219Y-3411D02*
X23644Y-3411D01*
X25034Y-3411D02*
X28559Y-3411D01*
X23219Y-3362D02*
X23693Y-3362D01*
X25084Y-3362D02*
X28608Y-3362D01*
X23219Y-3312D02*
X23743Y-3312D01*
X25133Y-3312D02*
X28658Y-3312D01*
X23219Y-3263D02*
X23792Y-3263D01*
X25183Y-3263D02*
X28707Y-3263D01*
X23219Y-3213D02*
X23842Y-3213D01*
X25232Y-3213D02*
X28757Y-3213D01*
X23219Y-3163D02*
X23891Y-3163D01*
X25282Y-3163D02*
X28806Y-3163D01*
X23219Y-3114D02*
X23941Y-3114D01*
X25331Y-3114D02*
X28856Y-3114D01*
X23219Y-3064D02*
X23990Y-3064D01*
X25381Y-3064D02*
X28902Y-3064D01*
X23219Y-3015D02*
X24040Y-3015D01*
X25430Y-3015D02*
X28896Y-3015D01*
X23230Y-2965D02*
X24089Y-2965D01*
X25480Y-2965D02*
X28889Y-2965D01*
X23279Y-2916D02*
X24139Y-2916D01*
X25529Y-2916D02*
X28883Y-2916D01*
X23329Y-2866D02*
X24189Y-2866D01*
X25579Y-2866D02*
X28876Y-2866D01*
X23378Y-2817D02*
X24238Y-2817D01*
X25628Y-2817D02*
X28876Y-2817D01*
X23428Y-2767D02*
X24288Y-2767D01*
X25678Y-2767D02*
X28883Y-2767D01*
X23477Y-2718D02*
X24337Y-2718D01*
X25727Y-2718D02*
X28889Y-2718D01*
X23527Y-2668D02*
X24387Y-2668D01*
X25777Y-2668D02*
X28896Y-2668D01*
X23577Y-2619D02*
X24436Y-2619D01*
X25827Y-2619D02*
X28902Y-2619D01*
X23626Y-2569D02*
X24486Y-2569D01*
X25876Y-2569D02*
X28913Y-2569D01*
X23676Y-2520D02*
X24535Y-2520D01*
X25926Y-2520D02*
X28934Y-2520D01*
X23725Y-2470D02*
X24585Y-2470D01*
X25975Y-2470D02*
X28954Y-2470D01*
X23775Y-2421D02*
X24634Y-2421D01*
X26025Y-2421D02*
X28975Y-2421D01*
X23824Y-2371D02*
X24684Y-2371D01*
X26074Y-2371D02*
X28995Y-2371D01*
X23874Y-2321D02*
X24733Y-2321D01*
X26124Y-2321D02*
X29024Y-2321D01*
X23923Y-2272D02*
X24783Y-2272D01*
X26173Y-2272D02*
X29062Y-2272D01*
X23973Y-2222D02*
X24832Y-2222D01*
X26223Y-2222D02*
X29100Y-2222D01*
X24022Y-2173D02*
X24882Y-2173D01*
X26272Y-2173D02*
X29138Y-2173D01*
X24072Y-2123D02*
X24932Y-2123D01*
X26322Y-2123D02*
X29186Y-2123D01*
X24121Y-2074D02*
X24981Y-2074D01*
X26371Y-2074D02*
X29251Y-2074D01*
X24171Y-2024D02*
X25031Y-2024D01*
X26421Y-2024D02*
X29316Y-2024D01*
X24220Y-1975D02*
X25080Y-1975D01*
X26470Y-1975D02*
X29392Y-1975D01*
X24270Y-1925D02*
X25130Y-1925D01*
X26520Y-1925D02*
X29511Y-1925D01*
X24319Y-1876D02*
X25179Y-1876D01*
X26569Y-1876D02*
X29687Y-1876D01*
X30033Y-1876D02*
X30054Y-1876D01*
X24369Y-1826D02*
X25229Y-1826D01*
X26619Y-1826D02*
X30104Y-1826D01*
X24419Y-1777D02*
X25278Y-1777D01*
X26669Y-1777D02*
X30153Y-1777D01*
X24468Y-1727D02*
X25328Y-1727D01*
X26718Y-1727D02*
X30203Y-1727D01*
X24518Y-1678D02*
X25377Y-1678D01*
X26768Y-1678D02*
X30252Y-1678D01*
X24567Y-1628D02*
X25427Y-1628D01*
X26817Y-1628D02*
X30302Y-1628D01*
X24617Y-1578D02*
X25476Y-1578D01*
X26867Y-1578D02*
X30351Y-1578D01*
X24666Y-1529D02*
X25526Y-1529D01*
X26916Y-1529D02*
X30401Y-1529D01*
X24716Y-1479D02*
X25575Y-1479D01*
X26966Y-1479D02*
X30450Y-1479D01*
X24765Y-1430D02*
X25625Y-1430D01*
X27015Y-1430D02*
X30500Y-1430D01*
X24815Y-1380D02*
X25674Y-1380D01*
X27065Y-1380D02*
X30549Y-1380D01*
X24864Y-1331D02*
X25724Y-1331D01*
X27114Y-1331D02*
X30599Y-1331D01*
X24914Y-1281D02*
X25774Y-1281D01*
X27164Y-1281D02*
X30649Y-1281D01*
X24963Y-1232D02*
X25823Y-1232D01*
X27213Y-1232D02*
X30698Y-1232D01*
X25013Y-1182D02*
X25873Y-1182D01*
X27263Y-1182D02*
X30748Y-1182D01*
X25062Y-1133D02*
X25922Y-1133D01*
X27312Y-1133D02*
X30797Y-1133D01*
X25112Y-1083D02*
X25972Y-1083D01*
X27362Y-1083D02*
X30847Y-1083D01*
X25162Y-1034D02*
X26021Y-1034D01*
X27412Y-1034D02*
X30896Y-1034D01*
X25211Y-0984D02*
X26071Y-0984D01*
X27461Y-0984D02*
X30946Y-0984D01*
X25261Y-0935D02*
X26120Y-0935D01*
X27511Y-0935D02*
X30995Y-0935D01*
X25310Y-0885D02*
X26170Y-0885D01*
X27560Y-0885D02*
X31045Y-0885D01*
X25360Y-0836D02*
X26219Y-0836D01*
X27610Y-0836D02*
X31094Y-0836D01*
X25409Y-0786D02*
X26269Y-0786D01*
X27659Y-0786D02*
X31144Y-0786D01*
X25459Y-0736D02*
X26318Y-0736D01*
X27709Y-0736D02*
X31193Y-0736D01*
X25508Y-0687D02*
X26368Y-0687D01*
X27758Y-0687D02*
X31243Y-0687D01*
X25558Y-0637D02*
X26417Y-0637D01*
X27808Y-0637D02*
X31292Y-0637D01*
X25607Y-0588D02*
X26467Y-0588D01*
X27857Y-0588D02*
X31342Y-0588D01*
X25657Y-0538D02*
X26516Y-0538D01*
X27907Y-0538D02*
X31391Y-0538D01*
X25706Y-0489D02*
X26566Y-0489D01*
X27956Y-0489D02*
X31441Y-0489D01*
X25756Y-0439D02*
X26616Y-0439D01*
X28006Y-0439D02*
X31491Y-0439D01*
X25805Y-0390D02*
X26665Y-0390D01*
X28055Y-0390D02*
X31540Y-0390D01*
X25855Y-0340D02*
X26715Y-0340D01*
X28105Y-0340D02*
X31590Y-0340D01*
X25904Y-0291D02*
X26764Y-0291D01*
X28154Y-0291D02*
X31639Y-0291D01*
X25954Y-0241D02*
X26814Y-0241D01*
X28204Y-0241D02*
X31689Y-0241D01*
X26004Y-0192D02*
X26863Y-0192D01*
X28254Y-0192D02*
X31738Y-0192D01*
X26053Y-0142D02*
X26913Y-0142D01*
X28303Y-0142D02*
X31788Y-0142D01*
X26103Y-0093D02*
X26962Y-0093D01*
X28353Y-0093D02*
X31837Y-0093D01*
X26152Y-0043D02*
X27012Y-0043D01*
X28402Y-0043D02*
X31887Y-0043D01*
X26202Y0006D02*
X27061Y0006D01*
X28452Y0006D02*
X31936Y0006D01*
X26251Y0056D02*
X27111Y0056D01*
X28501Y0056D02*
X31986Y0056D01*
X26301Y0106D02*
X27160Y0106D01*
X28551Y0106D02*
X29648Y0106D01*
X30222Y0106D02*
X32035Y0106D01*
X26350Y0155D02*
X27210Y0155D01*
X28600Y0155D02*
X29528Y0155D01*
X30342Y0155D02*
X32085Y0155D01*
X26400Y0205D02*
X27259Y0205D01*
X28650Y0205D02*
X29412Y0205D01*
X30458Y0205D02*
X32134Y0205D01*
X26449Y0254D02*
X27309Y0254D01*
X28699Y0254D02*
X29348Y0254D01*
X30522Y0254D02*
X32184Y0254D01*
X26499Y0304D02*
X27358Y0304D01*
X28749Y0304D02*
X29283Y0304D01*
X30587Y0304D02*
X32233Y0304D01*
X26548Y0353D02*
X27408Y0353D01*
X28798Y0353D02*
X29219Y0353D01*
X30651Y0353D02*
X32283Y0353D01*
X26598Y0403D02*
X27458Y0403D01*
X28848Y0403D02*
X29174Y0403D01*
X30696Y0403D02*
X32333Y0403D01*
X26647Y0452D02*
X27507Y0452D01*
X28897Y0452D02*
X29136Y0452D01*
X30734Y0452D02*
X32382Y0452D01*
X26697Y0502D02*
X27557Y0502D01*
X28947Y0502D02*
X29081Y0502D01*
X30772Y0502D02*
X32432Y0502D01*
X26746Y0551D02*
X27606Y0551D01*
X30810Y0551D02*
X32481Y0551D01*
X26796Y0601D02*
X27656Y0601D01*
X30842Y0601D02*
X32513Y0601D01*
X26846Y0650D02*
X27705Y0650D01*
X30862Y0650D02*
X32509Y0650D01*
X26895Y0700D02*
X27755Y0700D01*
X30883Y0700D02*
X32491Y0700D01*
X26945Y0749D02*
X27804Y0749D01*
X30903Y0749D02*
X32427Y0749D01*
X26994Y0799D02*
X27854Y0799D01*
X30924Y0799D02*
X32374Y0799D01*
X27044Y0848D02*
X27903Y0848D01*
X30939Y0848D02*
X32336Y0848D01*
X27093Y0898D02*
X27953Y0898D01*
X30946Y0898D02*
X32298Y0898D01*
X27143Y0948D02*
X28002Y0948D01*
X30952Y0948D02*
X32260Y0948D01*
X27192Y0997D02*
X28052Y0997D01*
X30959Y0997D02*
X32224Y0997D01*
X27242Y1047D02*
X28101Y1047D01*
X30965Y1047D02*
X32204Y1047D01*
X27291Y1096D02*
X28151Y1096D01*
X30972Y1096D02*
X32183Y1096D01*
X27341Y1146D02*
X28200Y1146D01*
X30966Y1146D02*
X32163Y1146D01*
X27390Y1195D02*
X28250Y1195D01*
X30960Y1195D02*
X32142Y1195D01*
X27440Y1245D02*
X28300Y1245D01*
X30953Y1245D02*
X32122Y1245D01*
X27489Y1294D02*
X28349Y1294D01*
X30947Y1294D02*
X32116Y1294D01*
X27539Y1344D02*
X28399Y1344D01*
X30940Y1344D02*
X32109Y1344D01*
X27588Y1393D02*
X28448Y1393D01*
X30927Y1393D02*
X32103Y1393D01*
X27638Y1443D02*
X28498Y1443D01*
X30906Y1443D02*
X32096Y1443D01*
X27688Y1492D02*
X28569Y1492D01*
X30886Y1492D02*
X32090Y1492D01*
X27737Y1542D02*
X28643Y1542D01*
X30865Y1542D02*
X32092Y1542D01*
X27787Y1591D02*
X28847Y1591D01*
X30845Y1591D02*
X32098Y1591D01*
X27836Y1641D02*
X29054Y1641D01*
X30816Y1641D02*
X32105Y1641D01*
X27886Y1690D02*
X29092Y1690D01*
X30778Y1690D02*
X32111Y1690D01*
X27935Y1740D02*
X29130Y1740D01*
X30740Y1740D02*
X32118Y1740D01*
X27985Y1790D02*
X29168Y1790D01*
X30702Y1790D02*
X32127Y1790D01*
X28034Y1839D02*
X29209Y1839D01*
X30661Y1839D02*
X32148Y1839D01*
X28084Y1889D02*
X29273Y1889D01*
X30597Y1889D02*
X32168Y1889D01*
X28133Y1938D02*
X29338Y1938D01*
X30532Y1938D02*
X32189Y1938D01*
X28183Y1988D02*
X29402Y1988D01*
X30468Y1988D02*
X32210Y1988D01*
X28232Y2037D02*
X29510Y2037D01*
X30360Y2037D02*
X32233Y2037D01*
X28282Y2087D02*
X29629Y2087D01*
X30241Y2087D02*
X32271Y2087D01*
X28331Y2136D02*
X29926Y2136D01*
X29944Y2136D02*
X32309Y2136D01*
X28381Y2186D02*
X32347Y2186D01*
X28430Y2235D02*
X32385Y2235D01*
X28480Y2285D02*
X32445Y2285D01*
X28530Y2334D02*
X32510Y2334D01*
X28579Y2384D02*
X32574Y2384D01*
X28629Y2433D02*
X32637Y2433D01*
X28678Y2483D02*
X32628Y2483D01*
X37758Y-8042D02*
X37758Y-8042D01*
X37758Y-6987*
X37660Y-6939*
X37570Y-7007*
X37567Y-7009*
X37542Y-7020*
X37542Y-7946*
X37604Y-7994*
X37606Y-7996*
X37666Y-8074*
X37758Y-8042*
X37651Y-8054D02*
X37724Y-8054D01*
X37613Y-8005D02*
X37758Y-8005D01*
X37554Y-7955D02*
X37758Y-7955D01*
X37542Y-7905D02*
X37758Y-7905D01*
X37542Y-7856D02*
X37758Y-7856D01*
X37542Y-7806D02*
X37758Y-7806D01*
X37542Y-7757D02*
X37758Y-7757D01*
X37542Y-7707D02*
X37758Y-7707D01*
X37542Y-7658D02*
X37758Y-7658D01*
X37542Y-7608D02*
X37758Y-7608D01*
X37542Y-7559D02*
X37758Y-7559D01*
X37542Y-7509D02*
X37758Y-7509D01*
X37542Y-7460D02*
X37758Y-7460D01*
X37542Y-7410D02*
X37758Y-7410D01*
X37542Y-7361D02*
X37758Y-7361D01*
X37542Y-7311D02*
X37758Y-7311D01*
X37542Y-7262D02*
X37758Y-7262D01*
X37542Y-7212D02*
X37758Y-7212D01*
X37542Y-7163D02*
X37758Y-7163D01*
X37542Y-7113D02*
X37758Y-7113D01*
X37542Y-7063D02*
X37758Y-7063D01*
X37556Y-7014D02*
X37758Y-7014D01*
X37626Y-6964D02*
X37712Y-6964D01*
X36530Y2407D02*
X36530Y2407D01*
X36533Y2409*
X36565Y2422*
X36548Y2508*
X33627Y2508*
X33610Y2422*
X33642Y2409*
X33645Y2407*
X33796Y2292*
X36379Y2292*
X36530Y2407*
X33765Y2316D02*
X36410Y2316D01*
X33700Y2365D02*
X36475Y2365D01*
X33629Y2415D02*
X36546Y2415D01*
X33619Y2464D02*
X36556Y2464D01*
%LNbottom copper_traces*%
D11*
X5300Y-10145D02*
X5320Y-10125D01*
X5645Y0750D02*
X10050Y0750D01*
X22660Y-2840D02*
X28500Y3000D01*
X33125Y-8425D02*
X33125Y-6425D01*
X5500Y0895D02*
X5645Y0750D01*
X5500Y-1925D02*
X5300Y-2125D01*
X11300Y-10145D02*
X11320Y-10125D01*
X18020Y-10125D02*
X18250Y-9895D01*
X11420Y-10125D02*
X14875Y-10125D01*
X30450Y-9725D02*
X29860Y-10315D01*
X5300Y-9895D02*
X5300Y-9800D01*
X19425Y1300D02*
X19625Y1100D01*
X37500Y3000D02*
X38250Y2250D01*
X19125Y-8625D02*
X21000Y-6750D01*
X25915Y-6750D02*
X29825Y-2840D01*
X17650Y-9895D02*
X17480Y-9895D01*
X11400Y-7355D02*
X17650Y-7355D01*
X5300Y-9800D02*
X4125Y-8625D01*
X5675Y-7075D02*
X5500Y-7075D01*
X35650Y-9725D02*
X30450Y-9725D01*
X37050Y1725D02*
X36975Y1800D01*
X4125Y-2820D02*
X5300Y-1645D01*
X19025Y-3300D02*
X18950Y-3375D01*
X19063Y-8625D02*
X19125Y-8625D01*
X5625Y-7500D02*
X8400Y-10275D01*
X7275Y-5475D02*
X5675Y-7075D01*
X37050Y-6650D02*
X37050Y-8550D01*
X6445Y-11250D02*
X5195Y-10000D01*
X37275Y-11050D02*
X33000Y-11050D01*
X17250Y-3375D02*
X15150Y-5475D01*
X37275Y-11050D02*
X37275Y-11050D01*
X22315Y-2840D02*
X22660Y-2840D01*
X33125Y0500D02*
X33125Y1625D01*
X11150Y-7605D02*
X11400Y-7355D01*
X22550Y-5200D02*
X28850Y1100D01*
X14875Y-10125D02*
X16375Y-8625D01*
X36950Y-8425D02*
X35650Y-9725D01*
X8400Y-10275D02*
X11150Y-10275D01*
X19625Y1100D02*
X22315Y1100D01*
X22315Y-2550D02*
X22575Y-2550D01*
X10050Y0750D02*
X12000Y-1200D01*
X29825Y-5625D02*
X32640Y-5625D01*
X33125Y-6110*
X18725Y-8625D02*
X18900Y-8450D01*
X21000Y-6750D02*
X25915Y-6750D01*
X30075Y-2700D02*
X30075Y-2550D01*
X11400Y-10145D02*
X11420Y-10125D01*
X5500Y-7500D02*
X5625Y-7500D01*
X30075Y-2550D02*
X33125Y0500D01*
X33250Y-8550D02*
X33125Y-8425D01*
X16375Y-8625D02*
X18725Y-8625D01*
X28500Y3000D02*
X37500Y3000D01*
X28850Y1100D02*
X29935Y1100D01*
X18950Y-3375D02*
X17250Y-3375D01*
X18115Y-7125D02*
X22400Y-2840D01*
X37275Y-6425D02*
X37050Y-6650D01*
X38250Y2250D02*
X38250Y-9850D01*
X22500Y-5200D02*
X22550Y-5200D01*
X17480Y-9895D02*
X16125Y-11250D01*
X38250Y-9850D02*
X37050Y-11050D01*
X29725Y-5525D02*
X29825Y-5625D01*
X36975Y1800D02*
X33125Y1800D01*
X17880Y-7125D02*
X18115Y-7125D01*
X15150Y-5475D02*
X7275Y-5475D01*
X16125Y-11250D02*
X6445Y-11250D01*
X37275Y-8425D02*
X36950Y-8425D01*
X4125Y-8625D02*
X4125Y-2820D01*
X5300Y-7605D02*
X5405Y-7500D01*
%LNbottom copper component f0e50ab3362b4562*%
D12*
X18900Y1300D03*
X18900Y-3300D03*
D13*
X12000Y-1000D03*
%LNbottom copper component 671bf6f57ec52e79*%
D14*
X17793Y-9895D03*
X19063Y-8625D03*
X17793Y-7355D03*
%LNbottom copper component 7ff914d1439a1832*%
D15*
X33125Y-6110D03*
X33125Y1510D03*
%LNbottom copper component 061ebb7f2e5da2a3*%
D16*
X5325Y-1645D03*
X5325Y0895D03*
%LNbottom copper component 10bdc2372bc5f93e*%
D17*
X37050Y-8550D03*
D18*
X37050Y-11050D03*
%LNbottom copper component b6c47526948e9c13*%
D15*
X37050Y-6110D03*
X37050Y1510D03*
%LNbottom copper component 9f96c3283d821f5f*%
D19*
X11150Y-10145D03*
D20*
X11150Y-7605D03*
%LNbottom copper component 05e142146edeceb3*%
D17*
X33125Y-8550D03*
D18*
X33125Y-11050D03*
%LNbottom copper component 3841b06f840ac423*%
D21*
X29935Y1100D03*
X22315Y1100D03*
%LNbottom copper component 84966270850f91a2*%
D22*
X22240Y-2840D03*
D23*
X22240Y-5380D03*
X22240Y-7920D03*
X22240Y-10460D03*
X29860Y-2840D03*
X29860Y-5380D03*
X29860Y-7920D03*
X29860Y-10460D03*
%LNbottom copper component 4e8279955b86e31a*%
D16*
X5300Y-9895D03*
X5300Y-7355D03*
M02*