M48
INCH,LZ
T1C0.025984
%
T1
X017778Y005401
T1
X013278Y002401
X015278Y005401
X013278Y004401
X009278Y001401
X009278Y003401
X015278Y001401
X009278Y002401
X014278Y001401
X013278Y001401
X007278Y005401
X014278Y005401
X013278Y003401
X009278Y004401
X007278Y001401
T1
X017278Y000901
X017278Y002401
X018278Y000901
X000778Y002401
X018278Y002401
X000778Y004401
X000778Y001401
X001778Y004401
T1
X002778Y004901
X003528Y005401
X003528Y004401
T1
X004778Y005403
X004778Y004401
T00
M30
