G04 MADE WITH FRITZING*
G04 WWW.FRITZING.ORG*
G04 SINGLE SIDED*
G04 HOLES NOT PLATED*
G04 CONTOUR ON CENTER OF CONTOUR VECTOR*
%ASAXBY*%
%FSLAX23Y23*%
%MOIN*%
%OFA0B0*%
%SFA1.0B1.0*%
%ADD10R,1.904000X0.680681X1.888000X0.664681*%
%ADD11C,0.008000*%
%ADD12C,0.010000*%
%ADD13C,0.005000*%
%ADD14R,0.001000X0.001000*%
%LNSILK1*%
G90*
G70*
G54D11*
X4Y677D02*
X1900Y677D01*
X1900Y4D01*
X4Y4D01*
X4Y677D01*
D02*
G54D12*
X1428Y503D02*
X1428Y431D01*
D02*
X1428Y231D02*
X1428Y178D01*
D02*
X1461Y431D02*
X1461Y231D01*
D02*
X1461Y231D02*
X1395Y231D01*
D02*
X1395Y231D02*
X1395Y431D01*
D02*
X1395Y431D02*
X1461Y431D01*
D02*
X728Y178D02*
X728Y250D01*
D02*
X728Y450D02*
X728Y503D01*
D02*
X695Y250D02*
X695Y450D01*
D02*
X695Y450D02*
X761Y450D01*
D02*
X761Y450D02*
X761Y250D01*
D02*
X761Y250D02*
X695Y250D01*
D02*
X28Y290D02*
X28Y90D01*
D02*
X28Y90D02*
X128Y90D01*
D02*
X128Y90D02*
X128Y290D01*
D02*
X128Y290D02*
X28Y290D01*
G54D13*
D02*
X28Y255D02*
X63Y290D01*
G54D11*
D02*
X418Y408D02*
X418Y573D01*
D02*
X363Y386D02*
X363Y401D01*
D02*
X363Y479D02*
X363Y501D01*
D02*
X363Y579D02*
X363Y595D01*
G54D12*
D02*
X1878Y140D02*
X1678Y140D01*
D02*
X1678Y140D02*
X1678Y40D01*
D02*
X1678Y40D02*
X1878Y40D01*
D02*
X1878Y40D02*
X1878Y140D01*
G54D13*
D02*
X1843Y140D02*
X1878Y105D01*
G54D12*
D02*
X1878Y290D02*
X1678Y290D01*
D02*
X1678Y290D02*
X1678Y190D01*
D02*
X1678Y190D02*
X1878Y190D01*
D02*
X1878Y190D02*
X1878Y290D01*
G54D13*
D02*
X1843Y290D02*
X1878Y255D01*
G54D12*
D02*
X1528Y503D02*
X1528Y431D01*
D02*
X1528Y231D02*
X1528Y178D01*
D02*
X1561Y431D02*
X1561Y231D01*
D02*
X1561Y231D02*
X1495Y231D01*
D02*
X1495Y231D02*
X1495Y431D01*
D02*
X1495Y431D02*
X1561Y431D01*
D02*
X28Y390D02*
X228Y390D01*
D02*
X228Y390D02*
X228Y490D01*
D02*
X228Y490D02*
X28Y490D01*
D02*
X28Y490D02*
X28Y390D01*
G54D13*
D02*
X63Y390D02*
X28Y425D01*
G54D12*
D02*
X878Y490D02*
X878Y90D01*
D02*
X878Y90D02*
X1378Y90D01*
D02*
X1378Y90D02*
X1378Y490D01*
D02*
X878Y490D02*
X1078Y490D01*
D02*
X1178Y490D02*
X1378Y490D01*
G54D14*
X305Y636D02*
X336Y636D01*
X355Y636D02*
X373Y636D01*
X405Y636D02*
X436Y636D01*
X304Y635D02*
X337Y635D01*
X354Y635D02*
X375Y635D01*
X404Y635D02*
X437Y635D01*
X304Y634D02*
X337Y634D01*
X354Y634D02*
X376Y634D01*
X404Y634D02*
X437Y634D01*
X303Y633D02*
X337Y633D01*
X354Y633D02*
X377Y633D01*
X404Y633D02*
X437Y633D01*
X303Y632D02*
X337Y632D01*
X354Y632D02*
X378Y632D01*
X404Y632D02*
X437Y632D01*
X303Y631D02*
X336Y631D01*
X355Y631D02*
X378Y631D01*
X405Y631D02*
X437Y631D01*
X303Y630D02*
X335Y630D01*
X356Y630D02*
X379Y630D01*
X406Y630D02*
X435Y630D01*
X303Y629D02*
X309Y629D01*
X317Y629D02*
X323Y629D01*
X372Y629D02*
X379Y629D01*
X418Y629D02*
X424Y629D01*
X303Y628D02*
X309Y628D01*
X317Y628D02*
X323Y628D01*
X373Y628D02*
X380Y628D01*
X418Y628D02*
X424Y628D01*
X303Y627D02*
X309Y627D01*
X317Y627D02*
X323Y627D01*
X374Y627D02*
X381Y627D01*
X418Y627D02*
X424Y627D01*
X303Y626D02*
X309Y626D01*
X317Y626D02*
X323Y626D01*
X374Y626D02*
X381Y626D01*
X418Y626D02*
X424Y626D01*
X303Y625D02*
X309Y625D01*
X317Y625D02*
X323Y625D01*
X375Y625D02*
X382Y625D01*
X418Y625D02*
X424Y625D01*
X303Y624D02*
X309Y624D01*
X317Y624D02*
X323Y624D01*
X375Y624D02*
X382Y624D01*
X418Y624D02*
X424Y624D01*
X303Y623D02*
X309Y623D01*
X317Y623D02*
X323Y623D01*
X376Y623D02*
X383Y623D01*
X418Y623D02*
X424Y623D01*
X303Y622D02*
X309Y622D01*
X317Y622D02*
X323Y622D01*
X376Y622D02*
X383Y622D01*
X418Y622D02*
X424Y622D01*
X303Y621D02*
X309Y621D01*
X317Y621D02*
X323Y621D01*
X377Y621D02*
X384Y621D01*
X418Y621D02*
X424Y621D01*
X303Y620D02*
X309Y620D01*
X317Y620D02*
X323Y620D01*
X377Y620D02*
X384Y620D01*
X418Y620D02*
X424Y620D01*
X303Y619D02*
X309Y619D01*
X317Y619D02*
X323Y619D01*
X378Y619D02*
X385Y619D01*
X418Y619D02*
X424Y619D01*
X303Y618D02*
X309Y618D01*
X317Y618D02*
X323Y618D01*
X378Y618D02*
X385Y618D01*
X418Y618D02*
X424Y618D01*
X303Y617D02*
X309Y617D01*
X317Y617D02*
X323Y617D01*
X379Y617D02*
X386Y617D01*
X418Y617D02*
X424Y617D01*
X303Y616D02*
X309Y616D01*
X317Y616D02*
X323Y616D01*
X379Y616D02*
X386Y616D01*
X418Y616D02*
X424Y616D01*
X304Y615D02*
X309Y615D01*
X317Y615D02*
X323Y615D01*
X380Y615D02*
X386Y615D01*
X418Y615D02*
X424Y615D01*
X304Y614D02*
X309Y614D01*
X317Y614D02*
X323Y614D01*
X380Y614D02*
X387Y614D01*
X418Y614D02*
X424Y614D01*
X305Y613D02*
X308Y613D01*
X317Y613D02*
X323Y613D01*
X381Y613D02*
X387Y613D01*
X418Y613D02*
X424Y613D01*
X317Y612D02*
X323Y612D01*
X381Y612D02*
X387Y612D01*
X418Y612D02*
X424Y612D01*
X317Y611D02*
X323Y611D01*
X381Y611D02*
X387Y611D01*
X418Y611D02*
X424Y611D01*
X317Y610D02*
X323Y610D01*
X381Y610D02*
X387Y610D01*
X418Y610D02*
X424Y610D01*
X317Y609D02*
X323Y609D01*
X381Y609D02*
X387Y609D01*
X418Y609D02*
X424Y609D01*
X317Y608D02*
X323Y608D01*
X381Y608D02*
X387Y608D01*
X418Y608D02*
X424Y608D01*
X317Y607D02*
X323Y607D01*
X381Y607D02*
X387Y607D01*
X418Y607D02*
X424Y607D01*
X317Y606D02*
X323Y606D01*
X380Y606D02*
X387Y606D01*
X418Y606D02*
X424Y606D01*
X317Y605D02*
X323Y605D01*
X380Y605D02*
X386Y605D01*
X418Y605D02*
X424Y605D01*
X317Y604D02*
X323Y604D01*
X379Y604D02*
X386Y604D01*
X418Y604D02*
X424Y604D01*
X317Y603D02*
X323Y603D01*
X379Y603D02*
X386Y603D01*
X418Y603D02*
X424Y603D01*
X317Y602D02*
X323Y602D01*
X378Y602D02*
X385Y602D01*
X418Y602D02*
X424Y602D01*
X317Y601D02*
X323Y601D01*
X378Y601D02*
X385Y601D01*
X418Y601D02*
X424Y601D01*
X317Y600D02*
X323Y600D01*
X377Y600D02*
X384Y600D01*
X418Y600D02*
X424Y600D01*
X317Y599D02*
X323Y599D01*
X338Y599D02*
X366Y599D01*
X377Y599D02*
X384Y599D01*
X418Y599D02*
X424Y599D01*
X317Y598D02*
X323Y598D01*
X332Y598D02*
X372Y598D01*
X376Y598D02*
X383Y598D01*
X418Y598D02*
X424Y598D01*
X317Y597D02*
X323Y597D01*
X327Y597D02*
X383Y597D01*
X418Y597D02*
X424Y597D01*
X317Y596D02*
X382Y596D01*
X418Y596D02*
X424Y596D01*
X317Y595D02*
X384Y595D01*
X418Y595D02*
X424Y595D01*
X317Y594D02*
X387Y594D01*
X418Y594D02*
X424Y594D01*
X314Y593D02*
X390Y593D01*
X418Y593D02*
X424Y593D01*
X312Y592D02*
X346Y592D01*
X359Y592D02*
X393Y592D01*
X418Y592D02*
X424Y592D01*
X309Y591D02*
X337Y591D01*
X368Y591D02*
X395Y591D01*
X418Y591D02*
X424Y591D01*
X307Y590D02*
X332Y590D01*
X372Y590D02*
X397Y590D01*
X418Y590D02*
X424Y590D01*
X305Y589D02*
X336Y589D01*
X355Y589D02*
X400Y589D01*
X405Y589D02*
X436Y589D01*
X303Y588D02*
X336Y588D01*
X354Y588D02*
X378Y588D01*
X382Y588D02*
X402Y588D01*
X404Y588D02*
X437Y588D01*
X301Y587D02*
X337Y587D01*
X354Y587D02*
X378Y587D01*
X385Y587D02*
X437Y587D01*
X299Y586D02*
X337Y586D01*
X354Y586D02*
X377Y586D01*
X388Y586D02*
X437Y586D01*
X298Y585D02*
X315Y585D01*
X317Y585D02*
X337Y585D01*
X354Y585D02*
X376Y585D01*
X390Y585D02*
X437Y585D01*
X296Y584D02*
X312Y584D01*
X317Y584D02*
X336Y584D01*
X355Y584D02*
X374Y584D01*
X393Y584D02*
X437Y584D01*
X294Y583D02*
X310Y583D01*
X317Y583D02*
X335Y583D01*
X356Y583D02*
X371Y583D01*
X395Y583D02*
X435Y583D01*
X293Y582D02*
X308Y582D01*
X397Y582D02*
X412Y582D01*
X291Y581D02*
X306Y581D01*
X399Y581D02*
X413Y581D01*
X290Y580D02*
X304Y580D01*
X401Y580D02*
X415Y580D01*
X289Y579D02*
X302Y579D01*
X403Y579D02*
X416Y579D01*
X287Y578D02*
X300Y578D01*
X404Y578D02*
X418Y578D01*
X286Y577D02*
X299Y577D01*
X406Y577D02*
X419Y577D01*
X285Y576D02*
X297Y576D01*
X407Y576D02*
X419Y576D01*
X283Y575D02*
X296Y575D01*
X409Y575D02*
X418Y575D01*
X282Y574D02*
X294Y574D01*
X411Y574D02*
X417Y574D01*
X281Y573D02*
X293Y573D01*
X412Y573D02*
X416Y573D01*
X280Y572D02*
X291Y572D01*
X413Y572D02*
X416Y572D01*
X279Y571D02*
X290Y571D01*
X415Y571D02*
X415Y571D01*
X278Y570D02*
X289Y570D01*
X277Y569D02*
X287Y569D01*
X276Y568D02*
X286Y568D01*
X275Y567D02*
X285Y567D01*
X274Y566D02*
X284Y566D01*
X273Y565D02*
X283Y565D01*
X272Y564D02*
X282Y564D01*
X271Y563D02*
X281Y563D01*
X270Y562D02*
X280Y562D01*
X269Y561D02*
X279Y561D01*
X269Y560D02*
X278Y560D01*
X268Y559D02*
X277Y559D01*
X267Y558D02*
X276Y558D01*
X266Y557D02*
X275Y557D01*
X265Y556D02*
X274Y556D01*
X265Y555D02*
X274Y555D01*
X264Y554D02*
X273Y554D01*
X263Y553D02*
X272Y553D01*
X263Y552D02*
X271Y552D01*
X262Y551D02*
X270Y551D01*
X261Y550D02*
X270Y550D01*
X261Y549D02*
X269Y549D01*
X260Y548D02*
X268Y548D01*
X259Y547D02*
X268Y547D01*
X259Y546D02*
X267Y546D01*
X258Y545D02*
X266Y545D01*
X258Y544D02*
X266Y544D01*
X257Y543D02*
X265Y543D01*
X256Y542D02*
X265Y542D01*
X256Y541D02*
X264Y541D01*
X255Y540D02*
X263Y540D01*
X255Y539D02*
X263Y539D01*
X255Y538D02*
X262Y538D01*
X254Y537D02*
X262Y537D01*
X254Y536D02*
X261Y536D01*
X253Y535D02*
X261Y535D01*
X253Y534D02*
X260Y534D01*
X252Y533D02*
X260Y533D01*
X252Y532D02*
X259Y532D01*
X251Y531D02*
X259Y531D01*
X251Y530D02*
X259Y530D01*
X251Y529D02*
X258Y529D01*
X250Y528D02*
X258Y528D01*
X250Y527D02*
X257Y527D01*
X250Y526D02*
X257Y526D01*
X249Y525D02*
X257Y525D01*
X249Y524D02*
X256Y524D01*
X250Y523D02*
X256Y523D01*
X253Y522D02*
X256Y522D01*
X451Y512D02*
X455Y512D01*
X500Y512D02*
X503Y512D01*
X450Y511D02*
X456Y511D01*
X499Y511D02*
X504Y511D01*
X450Y510D02*
X456Y510D01*
X498Y510D02*
X505Y510D01*
X449Y509D02*
X457Y509D01*
X498Y509D02*
X506Y509D01*
X448Y508D02*
X457Y508D01*
X498Y508D02*
X506Y508D01*
X448Y507D02*
X456Y507D01*
X499Y507D02*
X507Y507D01*
X447Y506D02*
X456Y506D01*
X499Y506D02*
X507Y506D01*
X447Y505D02*
X455Y505D01*
X500Y505D02*
X508Y505D01*
X447Y504D02*
X454Y504D01*
X500Y504D02*
X508Y504D01*
X446Y503D02*
X454Y503D01*
X501Y503D02*
X509Y503D01*
X446Y502D02*
X453Y502D01*
X502Y502D02*
X509Y502D01*
X445Y501D02*
X453Y501D01*
X502Y501D02*
X509Y501D01*
X445Y500D02*
X452Y500D01*
X502Y500D02*
X509Y500D01*
X445Y499D02*
X452Y499D01*
X503Y499D02*
X510Y499D01*
X445Y498D02*
X452Y498D01*
X503Y498D02*
X510Y498D01*
X445Y497D02*
X451Y497D01*
X503Y497D02*
X510Y497D01*
X444Y496D02*
X451Y496D01*
X504Y496D02*
X510Y496D01*
X444Y495D02*
X451Y495D01*
X504Y495D02*
X510Y495D01*
X444Y494D02*
X451Y494D01*
X504Y494D02*
X511Y494D01*
X444Y493D02*
X451Y493D01*
X504Y493D02*
X511Y493D01*
X444Y492D02*
X451Y492D01*
X504Y492D02*
X511Y492D01*
X444Y491D02*
X451Y491D01*
X504Y491D02*
X511Y491D01*
X444Y490D02*
X451Y490D01*
X504Y490D02*
X511Y490D01*
X444Y489D02*
X451Y489D01*
X504Y489D02*
X511Y489D01*
X444Y488D02*
X451Y488D01*
X504Y488D02*
X510Y488D01*
X444Y487D02*
X451Y487D01*
X504Y487D02*
X510Y487D01*
X444Y486D02*
X451Y486D01*
X503Y486D02*
X510Y486D01*
X445Y485D02*
X452Y485D01*
X503Y485D02*
X510Y485D01*
X445Y484D02*
X452Y484D01*
X503Y484D02*
X510Y484D01*
X445Y483D02*
X452Y483D01*
X503Y483D02*
X510Y483D01*
X445Y482D02*
X453Y482D01*
X502Y482D02*
X509Y482D01*
X446Y481D02*
X453Y481D01*
X502Y481D02*
X509Y481D01*
X446Y480D02*
X454Y480D01*
X501Y480D02*
X509Y480D01*
X446Y479D02*
X454Y479D01*
X501Y479D02*
X508Y479D01*
X447Y478D02*
X455Y478D01*
X500Y478D02*
X508Y478D01*
X447Y477D02*
X455Y477D01*
X499Y477D02*
X507Y477D01*
X448Y476D02*
X456Y476D01*
X499Y476D02*
X507Y476D01*
X448Y475D02*
X456Y475D01*
X498Y475D02*
X506Y475D01*
X449Y474D02*
X457Y474D01*
X498Y474D02*
X506Y474D01*
X450Y473D02*
X457Y473D01*
X498Y473D02*
X505Y473D01*
X450Y472D02*
X456Y472D01*
X499Y472D02*
X504Y472D01*
X451Y471D02*
X455Y471D01*
X499Y471D02*
X504Y471D01*
X255Y461D02*
X255Y461D01*
X252Y460D02*
X256Y460D01*
X249Y459D02*
X256Y459D01*
X249Y458D02*
X257Y458D01*
X249Y457D02*
X257Y457D01*
X250Y456D02*
X257Y456D01*
X250Y455D02*
X258Y455D01*
X250Y454D02*
X258Y454D01*
X251Y453D02*
X258Y453D01*
X251Y452D02*
X259Y452D01*
X252Y451D02*
X259Y451D01*
X252Y450D02*
X260Y450D01*
X252Y449D02*
X260Y449D01*
X253Y448D02*
X261Y448D01*
X253Y447D02*
X261Y447D01*
X254Y446D02*
X262Y446D01*
X254Y445D02*
X262Y445D01*
X255Y444D02*
X263Y444D01*
X255Y443D02*
X263Y443D01*
X256Y442D02*
X264Y442D01*
X256Y441D02*
X264Y441D01*
X257Y440D02*
X265Y440D01*
X257Y439D02*
X265Y439D01*
X258Y438D02*
X266Y438D01*
X258Y437D02*
X267Y437D01*
X259Y436D02*
X267Y436D01*
X260Y435D02*
X268Y435D01*
X260Y434D02*
X269Y434D01*
X261Y433D02*
X269Y433D01*
X261Y432D02*
X270Y432D01*
X262Y431D02*
X271Y431D01*
X263Y430D02*
X271Y430D01*
X263Y429D02*
X272Y429D01*
X264Y428D02*
X273Y428D01*
X265Y427D02*
X274Y427D01*
X266Y426D02*
X275Y426D01*
X266Y425D02*
X276Y425D01*
X267Y424D02*
X276Y424D01*
X268Y423D02*
X277Y423D01*
X269Y422D02*
X278Y422D01*
X270Y421D02*
X279Y421D01*
X271Y420D02*
X280Y420D01*
X271Y419D02*
X281Y419D01*
X272Y418D02*
X282Y418D01*
X273Y417D02*
X283Y417D01*
X274Y416D02*
X284Y416D01*
X275Y415D02*
X286Y415D01*
X276Y414D02*
X287Y414D01*
X277Y413D02*
X288Y413D01*
X278Y412D02*
X289Y412D01*
X279Y411D02*
X290Y411D01*
X414Y411D02*
X415Y411D01*
X280Y410D02*
X292Y410D01*
X413Y410D02*
X416Y410D01*
X282Y409D02*
X293Y409D01*
X411Y409D02*
X417Y409D01*
X283Y408D02*
X295Y408D01*
X410Y408D02*
X417Y408D01*
X284Y407D02*
X296Y407D01*
X408Y407D02*
X418Y407D01*
X736Y407D02*
X756Y407D01*
X285Y406D02*
X298Y406D01*
X407Y406D02*
X419Y406D01*
X734Y406D02*
X757Y406D01*
X286Y405D02*
X299Y405D01*
X405Y405D02*
X418Y405D01*
X734Y405D02*
X757Y405D01*
X288Y404D02*
X301Y404D01*
X404Y404D02*
X417Y404D01*
X734Y404D02*
X757Y404D01*
X289Y403D02*
X303Y403D01*
X402Y403D02*
X416Y403D01*
X734Y403D02*
X757Y403D01*
X290Y402D02*
X305Y402D01*
X400Y402D02*
X414Y402D01*
X734Y402D02*
X757Y402D01*
X292Y401D02*
X307Y401D01*
X398Y401D02*
X413Y401D01*
X736Y401D02*
X757Y401D01*
X293Y400D02*
X309Y400D01*
X396Y400D02*
X411Y400D01*
X751Y400D02*
X757Y400D01*
X295Y399D02*
X311Y399D01*
X394Y399D02*
X410Y399D01*
X751Y399D02*
X757Y399D01*
X297Y398D02*
X313Y398D01*
X392Y398D02*
X408Y398D01*
X751Y398D02*
X757Y398D01*
X298Y397D02*
X316Y397D01*
X389Y397D02*
X406Y397D01*
X751Y397D02*
X757Y397D01*
X300Y396D02*
X319Y396D01*
X386Y396D02*
X405Y396D01*
X751Y396D02*
X757Y396D01*
X302Y395D02*
X321Y395D01*
X384Y395D02*
X403Y395D01*
X751Y395D02*
X757Y395D01*
X304Y394D02*
X325Y394D01*
X380Y394D02*
X401Y394D01*
X751Y394D02*
X757Y394D01*
X306Y393D02*
X329Y393D01*
X376Y393D02*
X399Y393D01*
X704Y393D02*
X757Y393D01*
X308Y392D02*
X333Y392D01*
X372Y392D02*
X397Y392D01*
X704Y392D02*
X757Y392D01*
X310Y391D02*
X340Y391D01*
X366Y391D02*
X394Y391D01*
X704Y391D02*
X757Y391D01*
X313Y390D02*
X392Y390D01*
X704Y390D02*
X757Y390D01*
X315Y389D02*
X389Y389D01*
X704Y389D02*
X757Y389D01*
X318Y388D02*
X386Y388D01*
X704Y388D02*
X757Y388D01*
X321Y387D02*
X383Y387D01*
X704Y387D02*
X757Y387D01*
X325Y386D02*
X379Y386D01*
X704Y386D02*
X710Y386D01*
X751Y386D02*
X757Y386D01*
X329Y385D02*
X375Y385D01*
X704Y385D02*
X710Y385D01*
X751Y385D02*
X757Y385D01*
X334Y384D02*
X370Y384D01*
X704Y384D02*
X710Y384D01*
X751Y384D02*
X757Y384D01*
X341Y383D02*
X363Y383D01*
X704Y383D02*
X710Y383D01*
X751Y383D02*
X757Y383D01*
X704Y382D02*
X710Y382D01*
X751Y382D02*
X757Y382D01*
X704Y381D02*
X710Y381D01*
X751Y381D02*
X757Y381D01*
X704Y380D02*
X710Y380D01*
X751Y380D02*
X757Y380D01*
X704Y379D02*
X710Y379D01*
X751Y379D02*
X757Y379D01*
X704Y378D02*
X710Y378D01*
X751Y378D02*
X757Y378D01*
X704Y377D02*
X710Y377D01*
X751Y377D02*
X757Y377D01*
X1402Y377D02*
X1451Y377D01*
X704Y376D02*
X710Y376D01*
X752Y376D02*
X757Y376D01*
X1400Y376D02*
X1452Y376D01*
X705Y375D02*
X710Y375D01*
X752Y375D02*
X757Y375D01*
X1399Y375D02*
X1452Y375D01*
X705Y374D02*
X709Y374D01*
X753Y374D02*
X756Y374D01*
X1399Y374D02*
X1452Y374D01*
X707Y373D02*
X707Y373D01*
X1399Y373D02*
X1452Y373D01*
X1399Y372D02*
X1452Y372D01*
X1400Y371D02*
X1452Y371D01*
X1402Y370D02*
X1452Y370D01*
X1428Y369D02*
X1434Y369D01*
X1446Y369D02*
X1452Y369D01*
X1428Y368D02*
X1434Y368D01*
X1446Y368D02*
X1452Y368D01*
X45Y367D02*
X63Y367D01*
X95Y367D02*
X123Y367D01*
X145Y367D02*
X149Y367D01*
X173Y367D02*
X176Y367D01*
X1428Y367D02*
X1434Y367D01*
X1446Y367D02*
X1452Y367D01*
X44Y366D02*
X63Y366D01*
X94Y366D02*
X125Y366D01*
X144Y366D02*
X149Y366D01*
X172Y366D02*
X177Y366D01*
X1428Y366D02*
X1434Y366D01*
X1446Y366D02*
X1452Y366D01*
X43Y365D02*
X63Y365D01*
X94Y365D02*
X126Y365D01*
X144Y365D02*
X150Y365D01*
X171Y365D02*
X177Y365D01*
X1428Y365D02*
X1434Y365D01*
X1446Y365D02*
X1452Y365D01*
X43Y364D02*
X63Y364D01*
X94Y364D02*
X126Y364D01*
X144Y364D02*
X150Y364D01*
X171Y364D02*
X177Y364D01*
X1426Y364D02*
X1434Y364D01*
X1446Y364D02*
X1452Y364D01*
X44Y363D02*
X63Y363D01*
X94Y363D02*
X127Y363D01*
X144Y363D02*
X150Y363D01*
X171Y363D02*
X177Y363D01*
X1424Y363D02*
X1434Y363D01*
X1446Y363D02*
X1452Y363D01*
X44Y362D02*
X63Y362D01*
X95Y362D02*
X127Y362D01*
X144Y362D02*
X150Y362D01*
X171Y362D02*
X177Y362D01*
X1422Y362D02*
X1434Y362D01*
X1446Y362D02*
X1452Y362D01*
X46Y361D02*
X63Y361D01*
X97Y361D02*
X127Y361D01*
X144Y361D02*
X150Y361D01*
X171Y361D02*
X177Y361D01*
X1421Y361D02*
X1434Y361D01*
X1446Y361D02*
X1452Y361D01*
X57Y360D02*
X63Y360D01*
X121Y360D02*
X127Y360D01*
X144Y360D02*
X150Y360D01*
X171Y360D02*
X177Y360D01*
X1419Y360D02*
X1434Y360D01*
X1446Y360D02*
X1452Y360D01*
X57Y359D02*
X63Y359D01*
X121Y359D02*
X127Y359D01*
X144Y359D02*
X150Y359D01*
X171Y359D02*
X177Y359D01*
X1417Y359D02*
X1434Y359D01*
X1446Y359D02*
X1452Y359D01*
X57Y358D02*
X63Y358D01*
X121Y358D02*
X127Y358D01*
X144Y358D02*
X150Y358D01*
X171Y358D02*
X177Y358D01*
X1416Y358D02*
X1434Y358D01*
X1446Y358D02*
X1452Y358D01*
X57Y357D02*
X63Y357D01*
X121Y357D02*
X127Y357D01*
X144Y357D02*
X150Y357D01*
X171Y357D02*
X177Y357D01*
X712Y357D02*
X720Y357D01*
X754Y357D02*
X755Y357D01*
X1414Y357D02*
X1434Y357D01*
X1446Y357D02*
X1452Y357D01*
X57Y356D02*
X63Y356D01*
X121Y356D02*
X127Y356D01*
X144Y356D02*
X150Y356D01*
X171Y356D02*
X177Y356D01*
X431Y356D02*
X462Y356D01*
X481Y356D02*
X499Y356D01*
X710Y356D02*
X722Y356D01*
X752Y356D02*
X757Y356D01*
X1412Y356D02*
X1425Y356D01*
X1428Y356D02*
X1434Y356D01*
X1446Y356D02*
X1452Y356D01*
X57Y355D02*
X63Y355D01*
X121Y355D02*
X127Y355D01*
X144Y355D02*
X150Y355D01*
X171Y355D02*
X177Y355D01*
X430Y355D02*
X462Y355D01*
X480Y355D02*
X501Y355D01*
X708Y355D02*
X724Y355D01*
X750Y355D02*
X757Y355D01*
X1410Y355D02*
X1423Y355D01*
X1428Y355D02*
X1434Y355D01*
X1446Y355D02*
X1452Y355D01*
X57Y354D02*
X63Y354D01*
X121Y354D02*
X127Y354D01*
X144Y354D02*
X150Y354D01*
X171Y354D02*
X177Y354D01*
X429Y354D02*
X463Y354D01*
X480Y354D02*
X502Y354D01*
X707Y354D02*
X725Y354D01*
X748Y354D02*
X757Y354D01*
X1409Y354D02*
X1422Y354D01*
X1428Y354D02*
X1434Y354D01*
X1446Y354D02*
X1452Y354D01*
X57Y353D02*
X63Y353D01*
X121Y353D02*
X127Y353D01*
X144Y353D02*
X150Y353D01*
X171Y353D02*
X177Y353D01*
X429Y353D02*
X463Y353D01*
X480Y353D02*
X503Y353D01*
X706Y353D02*
X726Y353D01*
X747Y353D02*
X757Y353D01*
X1407Y353D02*
X1420Y353D01*
X1428Y353D02*
X1434Y353D01*
X1446Y353D02*
X1452Y353D01*
X57Y352D02*
X63Y352D01*
X121Y352D02*
X127Y352D01*
X144Y352D02*
X150Y352D01*
X171Y352D02*
X177Y352D01*
X429Y352D02*
X463Y352D01*
X480Y352D02*
X504Y352D01*
X706Y352D02*
X727Y352D01*
X745Y352D02*
X757Y352D01*
X1405Y352D02*
X1418Y352D01*
X1428Y352D02*
X1434Y352D01*
X1445Y352D02*
X1452Y352D01*
X57Y351D02*
X63Y351D01*
X121Y351D02*
X127Y351D01*
X144Y351D02*
X151Y351D01*
X170Y351D02*
X177Y351D01*
X429Y351D02*
X462Y351D01*
X480Y351D02*
X504Y351D01*
X705Y351D02*
X727Y351D01*
X743Y351D02*
X756Y351D01*
X1404Y351D02*
X1417Y351D01*
X1428Y351D02*
X1435Y351D01*
X1445Y351D02*
X1451Y351D01*
X57Y350D02*
X63Y350D01*
X121Y350D02*
X127Y350D01*
X145Y350D02*
X151Y350D01*
X170Y350D02*
X177Y350D01*
X429Y350D02*
X461Y350D01*
X482Y350D02*
X505Y350D01*
X705Y350D02*
X713Y350D01*
X720Y350D02*
X727Y350D01*
X741Y350D02*
X754Y350D01*
X1402Y350D02*
X1415Y350D01*
X1428Y350D02*
X1436Y350D01*
X1444Y350D02*
X1451Y350D01*
X57Y349D02*
X63Y349D01*
X121Y349D02*
X127Y349D01*
X145Y349D02*
X151Y349D01*
X170Y349D02*
X176Y349D01*
X429Y349D02*
X435Y349D01*
X443Y349D02*
X449Y349D01*
X498Y349D02*
X505Y349D01*
X705Y349D02*
X711Y349D01*
X721Y349D02*
X728Y349D01*
X740Y349D02*
X753Y349D01*
X1400Y349D02*
X1413Y349D01*
X1429Y349D02*
X1451Y349D01*
X57Y348D02*
X63Y348D01*
X121Y348D02*
X127Y348D01*
X145Y348D02*
X152Y348D01*
X169Y348D02*
X176Y348D01*
X429Y348D02*
X435Y348D01*
X443Y348D02*
X449Y348D01*
X499Y348D02*
X506Y348D01*
X704Y348D02*
X711Y348D01*
X722Y348D02*
X728Y348D01*
X738Y348D02*
X751Y348D01*
X1399Y348D02*
X1411Y348D01*
X1429Y348D02*
X1450Y348D01*
X57Y347D02*
X63Y347D01*
X121Y347D02*
X127Y347D01*
X146Y347D02*
X152Y347D01*
X169Y347D02*
X175Y347D01*
X429Y347D02*
X435Y347D01*
X443Y347D02*
X449Y347D01*
X499Y347D02*
X506Y347D01*
X704Y347D02*
X710Y347D01*
X722Y347D02*
X728Y347D01*
X736Y347D02*
X749Y347D01*
X1399Y347D02*
X1410Y347D01*
X1430Y347D02*
X1450Y347D01*
X57Y346D02*
X63Y346D01*
X121Y346D02*
X127Y346D01*
X146Y346D02*
X153Y346D01*
X169Y346D02*
X175Y346D01*
X429Y346D02*
X435Y346D01*
X443Y346D02*
X449Y346D01*
X500Y346D02*
X507Y346D01*
X704Y346D02*
X710Y346D01*
X722Y346D02*
X728Y346D01*
X735Y346D02*
X748Y346D01*
X1399Y346D02*
X1408Y346D01*
X1431Y346D02*
X1449Y346D01*
X57Y345D02*
X63Y345D01*
X121Y345D02*
X127Y345D01*
X146Y345D02*
X153Y345D01*
X168Y345D02*
X175Y345D01*
X429Y345D02*
X435Y345D01*
X443Y345D02*
X449Y345D01*
X500Y345D02*
X507Y345D01*
X704Y345D02*
X710Y345D01*
X722Y345D02*
X728Y345D01*
X733Y345D02*
X746Y345D01*
X1399Y345D02*
X1406Y345D01*
X1432Y345D02*
X1448Y345D01*
X57Y344D02*
X63Y344D01*
X99Y344D02*
X127Y344D01*
X147Y344D02*
X153Y344D01*
X168Y344D02*
X174Y344D01*
X429Y344D02*
X435Y344D01*
X443Y344D02*
X449Y344D01*
X501Y344D02*
X508Y344D01*
X704Y344D02*
X710Y344D01*
X722Y344D02*
X728Y344D01*
X731Y344D02*
X744Y344D01*
X1399Y344D02*
X1405Y344D01*
X1433Y344D02*
X1446Y344D01*
X57Y343D02*
X63Y343D01*
X97Y343D02*
X127Y343D01*
X147Y343D02*
X154Y343D01*
X167Y343D02*
X174Y343D01*
X429Y343D02*
X435Y343D01*
X443Y343D02*
X449Y343D01*
X502Y343D02*
X508Y343D01*
X704Y343D02*
X710Y343D01*
X722Y343D02*
X742Y343D01*
X1400Y343D02*
X1403Y343D01*
X1435Y343D02*
X1444Y343D01*
X57Y342D02*
X63Y342D01*
X95Y342D02*
X127Y342D01*
X148Y342D02*
X154Y342D01*
X167Y342D02*
X174Y342D01*
X429Y342D02*
X435Y342D01*
X443Y342D02*
X449Y342D01*
X502Y342D02*
X509Y342D01*
X704Y342D02*
X710Y342D01*
X722Y342D02*
X741Y342D01*
X1501Y342D02*
X1552Y342D01*
X57Y341D02*
X63Y341D01*
X95Y341D02*
X126Y341D01*
X148Y341D02*
X155Y341D01*
X167Y341D02*
X173Y341D01*
X429Y341D02*
X435Y341D01*
X443Y341D02*
X449Y341D01*
X503Y341D02*
X509Y341D01*
X704Y341D02*
X710Y341D01*
X722Y341D02*
X739Y341D01*
X1500Y341D02*
X1552Y341D01*
X57Y340D02*
X63Y340D01*
X94Y340D02*
X126Y340D01*
X148Y340D02*
X155Y340D01*
X166Y340D02*
X173Y340D01*
X429Y340D02*
X435Y340D01*
X443Y340D02*
X449Y340D01*
X503Y340D02*
X510Y340D01*
X704Y340D02*
X710Y340D01*
X722Y340D02*
X737Y340D01*
X1499Y340D02*
X1552Y340D01*
X57Y339D02*
X63Y339D01*
X94Y339D02*
X125Y339D01*
X149Y339D02*
X155Y339D01*
X166Y339D02*
X172Y339D01*
X429Y339D02*
X435Y339D01*
X443Y339D02*
X449Y339D01*
X504Y339D02*
X510Y339D01*
X704Y339D02*
X710Y339D01*
X722Y339D02*
X736Y339D01*
X1499Y339D02*
X1552Y339D01*
X57Y338D02*
X63Y338D01*
X73Y338D02*
X75Y338D01*
X94Y338D02*
X123Y338D01*
X149Y338D02*
X156Y338D01*
X165Y338D02*
X172Y338D01*
X429Y338D02*
X435Y338D01*
X443Y338D02*
X449Y338D01*
X504Y338D02*
X511Y338D01*
X704Y338D02*
X710Y338D01*
X722Y338D02*
X734Y338D01*
X1499Y338D02*
X1552Y338D01*
X57Y337D02*
X63Y337D01*
X72Y337D02*
X76Y337D01*
X94Y337D02*
X100Y337D01*
X150Y337D02*
X156Y337D01*
X165Y337D02*
X172Y337D01*
X429Y337D02*
X435Y337D01*
X443Y337D02*
X449Y337D01*
X505Y337D02*
X511Y337D01*
X704Y337D02*
X710Y337D01*
X722Y337D02*
X732Y337D01*
X1500Y337D02*
X1552Y337D01*
X57Y336D02*
X63Y336D01*
X71Y336D02*
X77Y336D01*
X94Y336D02*
X100Y336D01*
X150Y336D02*
X157Y336D01*
X165Y336D02*
X171Y336D01*
X429Y336D02*
X435Y336D01*
X443Y336D02*
X449Y336D01*
X505Y336D02*
X512Y336D01*
X704Y336D02*
X710Y336D01*
X722Y336D02*
X730Y336D01*
X1501Y336D02*
X1552Y336D01*
X57Y335D02*
X63Y335D01*
X71Y335D02*
X77Y335D01*
X94Y335D02*
X100Y335D01*
X150Y335D02*
X157Y335D01*
X164Y335D02*
X171Y335D01*
X429Y335D02*
X435Y335D01*
X443Y335D02*
X449Y335D01*
X506Y335D02*
X512Y335D01*
X704Y335D02*
X710Y335D01*
X722Y335D02*
X729Y335D01*
X1528Y335D02*
X1535Y335D01*
X1546Y335D02*
X1552Y335D01*
X57Y334D02*
X63Y334D01*
X71Y334D02*
X77Y334D01*
X94Y334D02*
X100Y334D01*
X151Y334D02*
X157Y334D01*
X164Y334D02*
X170Y334D01*
X430Y334D02*
X435Y334D01*
X443Y334D02*
X449Y334D01*
X506Y334D02*
X512Y334D01*
X704Y334D02*
X710Y334D01*
X722Y334D02*
X728Y334D01*
X1528Y334D02*
X1534Y334D01*
X1546Y334D02*
X1552Y334D01*
X57Y333D02*
X63Y333D01*
X71Y333D02*
X77Y333D01*
X94Y333D02*
X100Y333D01*
X151Y333D02*
X158Y333D01*
X163Y333D02*
X170Y333D01*
X431Y333D02*
X434Y333D01*
X443Y333D02*
X449Y333D01*
X506Y333D02*
X513Y333D01*
X704Y333D02*
X710Y333D01*
X722Y333D02*
X728Y333D01*
X1528Y333D02*
X1534Y333D01*
X1546Y333D02*
X1552Y333D01*
X57Y332D02*
X63Y332D01*
X71Y332D02*
X77Y332D01*
X94Y332D02*
X100Y332D01*
X152Y332D02*
X158Y332D01*
X163Y332D02*
X170Y332D01*
X443Y332D02*
X449Y332D01*
X507Y332D02*
X513Y332D01*
X704Y332D02*
X710Y332D01*
X722Y332D02*
X728Y332D01*
X1528Y332D02*
X1534Y332D01*
X1546Y332D02*
X1552Y332D01*
X57Y331D02*
X63Y331D01*
X71Y331D02*
X77Y331D01*
X94Y331D02*
X100Y331D01*
X152Y331D02*
X159Y331D01*
X163Y331D02*
X169Y331D01*
X443Y331D02*
X449Y331D01*
X507Y331D02*
X513Y331D01*
X704Y331D02*
X710Y331D01*
X722Y331D02*
X728Y331D01*
X1528Y331D02*
X1534Y331D01*
X1546Y331D02*
X1552Y331D01*
X57Y330D02*
X63Y330D01*
X71Y330D02*
X77Y330D01*
X94Y330D02*
X100Y330D01*
X152Y330D02*
X159Y330D01*
X162Y330D02*
X169Y330D01*
X443Y330D02*
X449Y330D01*
X507Y330D02*
X513Y330D01*
X704Y330D02*
X711Y330D01*
X722Y330D02*
X728Y330D01*
X1528Y330D02*
X1534Y330D01*
X1546Y330D02*
X1552Y330D01*
X57Y329D02*
X63Y329D01*
X71Y329D02*
X77Y329D01*
X94Y329D02*
X100Y329D01*
X153Y329D02*
X159Y329D01*
X162Y329D02*
X168Y329D01*
X443Y329D02*
X449Y329D01*
X507Y329D02*
X513Y329D01*
X704Y329D02*
X756Y329D01*
X1526Y329D02*
X1534Y329D01*
X1546Y329D02*
X1552Y329D01*
X57Y328D02*
X63Y328D01*
X71Y328D02*
X77Y328D01*
X94Y328D02*
X100Y328D01*
X153Y328D02*
X168Y328D01*
X443Y328D02*
X449Y328D01*
X507Y328D02*
X513Y328D01*
X704Y328D02*
X757Y328D01*
X1524Y328D02*
X1534Y328D01*
X1546Y328D02*
X1552Y328D01*
X57Y327D02*
X63Y327D01*
X71Y327D02*
X77Y327D01*
X94Y327D02*
X100Y327D01*
X153Y327D02*
X168Y327D01*
X443Y327D02*
X449Y327D01*
X507Y327D02*
X513Y327D01*
X704Y327D02*
X757Y327D01*
X1522Y327D02*
X1534Y327D01*
X1546Y327D02*
X1552Y327D01*
X57Y326D02*
X63Y326D01*
X71Y326D02*
X77Y326D01*
X94Y326D02*
X100Y326D01*
X154Y326D02*
X167Y326D01*
X443Y326D02*
X449Y326D01*
X506Y326D02*
X513Y326D01*
X704Y326D02*
X757Y326D01*
X1400Y326D02*
X1403Y326D01*
X1447Y326D02*
X1450Y326D01*
X1521Y326D02*
X1534Y326D01*
X1546Y326D02*
X1552Y326D01*
X57Y325D02*
X63Y325D01*
X71Y325D02*
X77Y325D01*
X94Y325D02*
X100Y325D01*
X154Y325D02*
X167Y325D01*
X443Y325D02*
X449Y325D01*
X506Y325D02*
X512Y325D01*
X704Y325D02*
X757Y325D01*
X1399Y325D02*
X1404Y325D01*
X1446Y325D02*
X1451Y325D01*
X1519Y325D02*
X1534Y325D01*
X1546Y325D02*
X1552Y325D01*
X57Y324D02*
X63Y324D01*
X71Y324D02*
X77Y324D01*
X94Y324D02*
X100Y324D01*
X155Y324D02*
X166Y324D01*
X443Y324D02*
X449Y324D01*
X505Y324D02*
X512Y324D01*
X704Y324D02*
X757Y324D01*
X1399Y324D02*
X1404Y324D01*
X1446Y324D02*
X1452Y324D01*
X1517Y324D02*
X1534Y324D01*
X1546Y324D02*
X1552Y324D01*
X57Y323D02*
X63Y323D01*
X71Y323D02*
X77Y323D01*
X94Y323D02*
X100Y323D01*
X155Y323D02*
X166Y323D01*
X443Y323D02*
X449Y323D01*
X505Y323D02*
X512Y323D01*
X704Y323D02*
X755Y323D01*
X1398Y323D02*
X1405Y323D01*
X1446Y323D02*
X1452Y323D01*
X1516Y323D02*
X1534Y323D01*
X1546Y323D02*
X1552Y323D01*
X57Y322D02*
X63Y322D01*
X71Y322D02*
X77Y322D01*
X94Y322D02*
X100Y322D01*
X155Y322D02*
X166Y322D01*
X443Y322D02*
X449Y322D01*
X504Y322D02*
X511Y322D01*
X1398Y322D02*
X1405Y322D01*
X1446Y322D02*
X1452Y322D01*
X1514Y322D02*
X1534Y322D01*
X1546Y322D02*
X1552Y322D01*
X57Y321D02*
X63Y321D01*
X71Y321D02*
X77Y321D01*
X94Y321D02*
X100Y321D01*
X156Y321D02*
X165Y321D01*
X443Y321D02*
X449Y321D01*
X504Y321D02*
X511Y321D01*
X1398Y321D02*
X1405Y321D01*
X1446Y321D02*
X1452Y321D01*
X1512Y321D02*
X1525Y321D01*
X1528Y321D02*
X1534Y321D01*
X1546Y321D02*
X1552Y321D01*
X45Y320D02*
X77Y320D01*
X94Y320D02*
X126Y320D01*
X156Y320D02*
X165Y320D01*
X443Y320D02*
X449Y320D01*
X503Y320D02*
X510Y320D01*
X1398Y320D02*
X1405Y320D01*
X1446Y320D02*
X1452Y320D01*
X1510Y320D02*
X1523Y320D01*
X1528Y320D02*
X1534Y320D01*
X1546Y320D02*
X1552Y320D01*
X44Y319D02*
X77Y319D01*
X94Y319D02*
X127Y319D01*
X157Y319D02*
X165Y319D01*
X443Y319D02*
X449Y319D01*
X503Y319D02*
X510Y319D01*
X1398Y319D02*
X1405Y319D01*
X1423Y319D02*
X1427Y319D01*
X1446Y319D02*
X1452Y319D01*
X1509Y319D02*
X1522Y319D01*
X1528Y319D02*
X1534Y319D01*
X1546Y319D02*
X1552Y319D01*
X44Y318D02*
X77Y318D01*
X94Y318D02*
X127Y318D01*
X157Y318D02*
X164Y318D01*
X443Y318D02*
X449Y318D01*
X502Y318D02*
X509Y318D01*
X1398Y318D02*
X1405Y318D01*
X1422Y318D02*
X1428Y318D01*
X1446Y318D02*
X1452Y318D01*
X1507Y318D02*
X1520Y318D01*
X1528Y318D02*
X1535Y318D01*
X1546Y318D02*
X1552Y318D01*
X43Y317D02*
X77Y317D01*
X94Y317D02*
X127Y317D01*
X157Y317D02*
X164Y317D01*
X443Y317D02*
X449Y317D01*
X502Y317D02*
X509Y317D01*
X1398Y317D02*
X1405Y317D01*
X1422Y317D02*
X1428Y317D01*
X1446Y317D02*
X1452Y317D01*
X1505Y317D02*
X1518Y317D01*
X1529Y317D02*
X1535Y317D01*
X1546Y317D02*
X1552Y317D01*
X44Y316D02*
X77Y316D01*
X94Y316D02*
X127Y316D01*
X158Y316D02*
X163Y316D01*
X443Y316D02*
X449Y316D01*
X501Y316D02*
X508Y316D01*
X1398Y316D02*
X1405Y316D01*
X1422Y316D02*
X1428Y316D01*
X1446Y316D02*
X1452Y316D01*
X1504Y316D02*
X1517Y316D01*
X1529Y316D02*
X1536Y316D01*
X1545Y316D02*
X1552Y316D01*
X44Y315D02*
X76Y315D01*
X94Y315D02*
X126Y315D01*
X158Y315D02*
X163Y315D01*
X443Y315D02*
X449Y315D01*
X501Y315D02*
X508Y315D01*
X1398Y315D02*
X1405Y315D01*
X1422Y315D02*
X1428Y315D01*
X1446Y315D02*
X1452Y315D01*
X1502Y315D02*
X1515Y315D01*
X1529Y315D02*
X1537Y315D01*
X1544Y315D02*
X1552Y315D01*
X46Y314D02*
X75Y314D01*
X94Y314D02*
X125Y314D01*
X160Y314D02*
X161Y314D01*
X443Y314D02*
X449Y314D01*
X500Y314D02*
X507Y314D01*
X1398Y314D02*
X1405Y314D01*
X1422Y314D02*
X1428Y314D01*
X1446Y314D02*
X1452Y314D01*
X1500Y314D02*
X1513Y314D01*
X1529Y314D02*
X1551Y314D01*
X443Y313D02*
X449Y313D01*
X500Y313D02*
X507Y313D01*
X1398Y313D02*
X1405Y313D01*
X1422Y313D02*
X1428Y313D01*
X1446Y313D02*
X1452Y313D01*
X1499Y313D02*
X1511Y313D01*
X1530Y313D02*
X1551Y313D01*
X443Y312D02*
X449Y312D01*
X499Y312D02*
X506Y312D01*
X1398Y312D02*
X1405Y312D01*
X1422Y312D02*
X1428Y312D01*
X1446Y312D02*
X1452Y312D01*
X1499Y312D02*
X1510Y312D01*
X1531Y312D02*
X1550Y312D01*
X443Y311D02*
X449Y311D01*
X499Y311D02*
X506Y311D01*
X1398Y311D02*
X1405Y311D01*
X1422Y311D02*
X1428Y311D01*
X1446Y311D02*
X1452Y311D01*
X1499Y311D02*
X1508Y311D01*
X1532Y311D02*
X1549Y311D01*
X443Y310D02*
X449Y310D01*
X497Y310D02*
X505Y310D01*
X1398Y310D02*
X1405Y310D01*
X1422Y310D02*
X1428Y310D01*
X1446Y310D02*
X1452Y310D01*
X1499Y310D02*
X1506Y310D01*
X1533Y310D02*
X1548Y310D01*
X443Y309D02*
X461Y309D01*
X481Y309D02*
X505Y309D01*
X1398Y309D02*
X1405Y309D01*
X1422Y309D02*
X1428Y309D01*
X1446Y309D02*
X1452Y309D01*
X1500Y309D02*
X1505Y309D01*
X1534Y309D02*
X1546Y309D01*
X443Y308D02*
X462Y308D01*
X480Y308D02*
X504Y308D01*
X1398Y308D02*
X1405Y308D01*
X1422Y308D02*
X1428Y308D01*
X1446Y308D02*
X1452Y308D01*
X1501Y308D02*
X1502Y308D01*
X1537Y308D02*
X1544Y308D01*
X443Y307D02*
X463Y307D01*
X480Y307D02*
X504Y307D01*
X1398Y307D02*
X1405Y307D01*
X1422Y307D02*
X1428Y307D01*
X1446Y307D02*
X1452Y307D01*
X443Y306D02*
X463Y306D01*
X480Y306D02*
X503Y306D01*
X1398Y306D02*
X1405Y306D01*
X1422Y306D02*
X1428Y306D01*
X1446Y306D02*
X1452Y306D01*
X443Y305D02*
X463Y305D01*
X480Y305D02*
X502Y305D01*
X1398Y305D02*
X1405Y305D01*
X1422Y305D02*
X1428Y305D01*
X1446Y305D02*
X1452Y305D01*
X443Y304D02*
X462Y304D01*
X480Y304D02*
X500Y304D01*
X1398Y304D02*
X1405Y304D01*
X1422Y304D02*
X1428Y304D01*
X1446Y304D02*
X1452Y304D01*
X175Y303D02*
X179Y303D01*
X244Y303D02*
X265Y303D01*
X443Y303D02*
X461Y303D01*
X482Y303D02*
X497Y303D01*
X1398Y303D02*
X1405Y303D01*
X1422Y303D02*
X1428Y303D01*
X1446Y303D02*
X1452Y303D01*
X151Y302D02*
X181Y302D01*
X243Y302D02*
X266Y302D01*
X1398Y302D02*
X1405Y302D01*
X1422Y302D02*
X1428Y302D01*
X1446Y302D02*
X1452Y302D01*
X149Y301D02*
X181Y301D01*
X242Y301D02*
X266Y301D01*
X1398Y301D02*
X1405Y301D01*
X1421Y301D02*
X1429Y301D01*
X1446Y301D02*
X1452Y301D01*
X147Y300D02*
X182Y300D01*
X242Y300D02*
X266Y300D01*
X1398Y300D02*
X1405Y300D01*
X1420Y300D02*
X1430Y300D01*
X1446Y300D02*
X1452Y300D01*
X146Y299D02*
X182Y299D01*
X243Y299D02*
X266Y299D01*
X1399Y299D02*
X1452Y299D01*
X145Y298D02*
X181Y298D01*
X243Y298D02*
X266Y298D01*
X1399Y298D02*
X1451Y298D01*
X145Y297D02*
X180Y297D01*
X245Y297D02*
X266Y297D01*
X1399Y297D02*
X1451Y297D01*
X144Y296D02*
X173Y296D01*
X260Y296D02*
X266Y296D01*
X1399Y296D02*
X1451Y296D01*
X144Y295D02*
X152Y295D01*
X260Y295D02*
X266Y295D01*
X1400Y295D02*
X1450Y295D01*
X144Y294D02*
X150Y294D01*
X260Y294D02*
X266Y294D01*
X1401Y294D02*
X1423Y294D01*
X1427Y294D02*
X1449Y294D01*
X143Y293D02*
X150Y293D01*
X260Y293D02*
X266Y293D01*
X1403Y293D02*
X1421Y293D01*
X1429Y293D02*
X1448Y293D01*
X143Y292D02*
X149Y292D01*
X260Y292D02*
X266Y292D01*
X143Y291D02*
X149Y291D01*
X260Y291D02*
X266Y291D01*
X143Y290D02*
X149Y290D01*
X213Y290D02*
X266Y290D01*
X1517Y290D02*
X1550Y290D01*
X143Y289D02*
X149Y289D01*
X213Y289D02*
X266Y289D01*
X1517Y289D02*
X1551Y289D01*
X143Y288D02*
X149Y288D01*
X213Y288D02*
X266Y288D01*
X1517Y288D02*
X1552Y288D01*
X143Y287D02*
X149Y287D01*
X213Y287D02*
X266Y287D01*
X1517Y287D02*
X1552Y287D01*
X144Y286D02*
X150Y286D01*
X213Y286D02*
X266Y286D01*
X1517Y286D02*
X1552Y286D01*
X144Y285D02*
X151Y285D01*
X213Y285D02*
X266Y285D01*
X1517Y285D02*
X1552Y285D01*
X144Y284D02*
X151Y284D01*
X213Y284D02*
X266Y284D01*
X1517Y284D02*
X1550Y284D01*
X145Y283D02*
X152Y283D01*
X213Y283D02*
X219Y283D01*
X260Y283D02*
X266Y283D01*
X1517Y283D02*
X1523Y283D01*
X145Y282D02*
X153Y282D01*
X213Y282D02*
X219Y282D01*
X260Y282D02*
X266Y282D01*
X1517Y282D02*
X1523Y282D01*
X146Y281D02*
X153Y281D01*
X213Y281D02*
X219Y281D01*
X260Y281D02*
X266Y281D01*
X1517Y281D02*
X1523Y281D01*
X1681Y281D02*
X1690Y281D01*
X1710Y281D02*
X1714Y281D01*
X1731Y281D02*
X1765Y281D01*
X1796Y281D02*
X1814Y281D01*
X1833Y281D02*
X1852Y281D01*
X146Y280D02*
X154Y280D01*
X213Y280D02*
X219Y280D01*
X260Y280D02*
X266Y280D01*
X1517Y280D02*
X1523Y280D01*
X1681Y280D02*
X1690Y280D01*
X1709Y280D02*
X1714Y280D01*
X1731Y280D02*
X1765Y280D01*
X1794Y280D02*
X1815Y280D01*
X1832Y280D02*
X1852Y280D01*
X147Y279D02*
X154Y279D01*
X213Y279D02*
X219Y279D01*
X260Y279D02*
X266Y279D01*
X1517Y279D02*
X1523Y279D01*
X1681Y279D02*
X1691Y279D01*
X1709Y279D02*
X1715Y279D01*
X1731Y279D02*
X1765Y279D01*
X1792Y279D02*
X1815Y279D01*
X1832Y279D02*
X1852Y279D01*
X148Y278D02*
X155Y278D01*
X213Y278D02*
X219Y278D01*
X260Y278D02*
X266Y278D01*
X1517Y278D02*
X1523Y278D01*
X1681Y278D02*
X1691Y278D01*
X1709Y278D02*
X1715Y278D01*
X1731Y278D02*
X1765Y278D01*
X1791Y278D02*
X1815Y278D01*
X1832Y278D02*
X1852Y278D01*
X148Y277D02*
X156Y277D01*
X213Y277D02*
X219Y277D01*
X260Y277D02*
X266Y277D01*
X1517Y277D02*
X1523Y277D01*
X1681Y277D02*
X1692Y277D01*
X1709Y277D02*
X1715Y277D01*
X1731Y277D02*
X1765Y277D01*
X1791Y277D02*
X1815Y277D01*
X1832Y277D02*
X1852Y277D01*
X149Y276D02*
X156Y276D01*
X213Y276D02*
X219Y276D01*
X260Y276D02*
X266Y276D01*
X1517Y276D02*
X1523Y276D01*
X1681Y276D02*
X1692Y276D01*
X1709Y276D02*
X1715Y276D01*
X1731Y276D02*
X1765Y276D01*
X1790Y276D02*
X1814Y276D01*
X1833Y276D02*
X1852Y276D01*
X145Y275D02*
X180Y275D01*
X213Y275D02*
X219Y275D01*
X260Y275D02*
X266Y275D01*
X1517Y275D02*
X1523Y275D01*
X1681Y275D02*
X1692Y275D01*
X1709Y275D02*
X1715Y275D01*
X1731Y275D02*
X1765Y275D01*
X1790Y275D02*
X1812Y275D01*
X1835Y275D02*
X1852Y275D01*
X144Y274D02*
X181Y274D01*
X213Y274D02*
X219Y274D01*
X260Y274D02*
X266Y274D01*
X1517Y274D02*
X1523Y274D01*
X1681Y274D02*
X1693Y274D01*
X1709Y274D02*
X1715Y274D01*
X1731Y274D02*
X1737Y274D01*
X1745Y274D02*
X1751Y274D01*
X1759Y274D02*
X1765Y274D01*
X1789Y274D02*
X1796Y274D01*
X1846Y274D02*
X1852Y274D01*
X143Y273D02*
X182Y273D01*
X213Y273D02*
X219Y273D01*
X260Y273D02*
X266Y273D01*
X1517Y273D02*
X1523Y273D01*
X1681Y273D02*
X1693Y273D01*
X1709Y273D02*
X1715Y273D01*
X1731Y273D02*
X1737Y273D01*
X1745Y273D02*
X1751Y273D01*
X1759Y273D02*
X1765Y273D01*
X1789Y273D02*
X1796Y273D01*
X1846Y273D02*
X1852Y273D01*
X143Y272D02*
X182Y272D01*
X213Y272D02*
X219Y272D01*
X260Y272D02*
X266Y272D01*
X1517Y272D02*
X1523Y272D01*
X1681Y272D02*
X1694Y272D01*
X1709Y272D02*
X1715Y272D01*
X1731Y272D02*
X1737Y272D01*
X1745Y272D02*
X1751Y272D01*
X1759Y272D02*
X1765Y272D01*
X1788Y272D02*
X1795Y272D01*
X1846Y272D02*
X1852Y272D01*
X144Y271D02*
X182Y271D01*
X213Y271D02*
X218Y271D01*
X261Y271D02*
X265Y271D01*
X1517Y271D02*
X1523Y271D01*
X1681Y271D02*
X1694Y271D01*
X1709Y271D02*
X1715Y271D01*
X1732Y271D02*
X1737Y271D01*
X1745Y271D02*
X1751Y271D01*
X1759Y271D02*
X1765Y271D01*
X1788Y271D02*
X1795Y271D01*
X1846Y271D02*
X1852Y271D01*
X144Y270D02*
X181Y270D01*
X214Y270D02*
X217Y270D01*
X262Y270D02*
X264Y270D01*
X1516Y270D02*
X1523Y270D01*
X1681Y270D02*
X1695Y270D01*
X1709Y270D02*
X1715Y270D01*
X1733Y270D02*
X1736Y270D01*
X1745Y270D02*
X1751Y270D01*
X1760Y270D02*
X1764Y270D01*
X1787Y270D02*
X1794Y270D01*
X1846Y270D02*
X1852Y270D01*
X145Y269D02*
X180Y269D01*
X1500Y269D02*
X1545Y269D01*
X1681Y269D02*
X1695Y269D01*
X1709Y269D02*
X1715Y269D01*
X1745Y269D02*
X1751Y269D01*
X1787Y269D02*
X1794Y269D01*
X1846Y269D02*
X1852Y269D01*
X1500Y268D02*
X1546Y268D01*
X1681Y268D02*
X1687Y268D01*
X1689Y268D02*
X1696Y268D01*
X1709Y268D02*
X1715Y268D01*
X1745Y268D02*
X1751Y268D01*
X1786Y268D02*
X1793Y268D01*
X1846Y268D02*
X1852Y268D01*
X1499Y267D02*
X1546Y267D01*
X1681Y267D02*
X1687Y267D01*
X1689Y267D02*
X1696Y267D01*
X1709Y267D02*
X1715Y267D01*
X1745Y267D02*
X1751Y267D01*
X1786Y267D02*
X1793Y267D01*
X1846Y267D02*
X1852Y267D01*
X1499Y266D02*
X1546Y266D01*
X1681Y266D02*
X1687Y266D01*
X1690Y266D02*
X1696Y266D01*
X1709Y266D02*
X1715Y266D01*
X1745Y266D02*
X1751Y266D01*
X1785Y266D02*
X1792Y266D01*
X1846Y266D02*
X1852Y266D01*
X1499Y265D02*
X1546Y265D01*
X1681Y265D02*
X1687Y265D01*
X1690Y265D02*
X1697Y265D01*
X1709Y265D02*
X1715Y265D01*
X1745Y265D02*
X1751Y265D01*
X1785Y265D02*
X1792Y265D01*
X1846Y265D02*
X1852Y265D01*
X1500Y264D02*
X1545Y264D01*
X1681Y264D02*
X1687Y264D01*
X1691Y264D02*
X1697Y264D01*
X1709Y264D02*
X1715Y264D01*
X1745Y264D02*
X1751Y264D01*
X1784Y264D02*
X1791Y264D01*
X1846Y264D02*
X1852Y264D01*
X1502Y263D02*
X1544Y263D01*
X1681Y263D02*
X1687Y263D01*
X1691Y263D02*
X1698Y263D01*
X1709Y263D02*
X1715Y263D01*
X1745Y263D02*
X1751Y263D01*
X1784Y263D02*
X1791Y263D01*
X1846Y263D02*
X1852Y263D01*
X1517Y262D02*
X1523Y262D01*
X1681Y262D02*
X1687Y262D01*
X1691Y262D02*
X1698Y262D01*
X1709Y262D02*
X1715Y262D01*
X1745Y262D02*
X1751Y262D01*
X1783Y262D02*
X1790Y262D01*
X1846Y262D02*
X1852Y262D01*
X1517Y261D02*
X1522Y261D01*
X1681Y261D02*
X1687Y261D01*
X1692Y261D02*
X1699Y261D01*
X1709Y261D02*
X1715Y261D01*
X1745Y261D02*
X1751Y261D01*
X1783Y261D02*
X1790Y261D01*
X1846Y261D02*
X1852Y261D01*
X1518Y260D02*
X1521Y260D01*
X1681Y260D02*
X1687Y260D01*
X1692Y260D02*
X1699Y260D01*
X1709Y260D02*
X1715Y260D01*
X1745Y260D02*
X1751Y260D01*
X1783Y260D02*
X1789Y260D01*
X1846Y260D02*
X1852Y260D01*
X1681Y259D02*
X1687Y259D01*
X1693Y259D02*
X1699Y259D01*
X1709Y259D02*
X1715Y259D01*
X1745Y259D02*
X1751Y259D01*
X1782Y259D02*
X1789Y259D01*
X1846Y259D02*
X1852Y259D01*
X1681Y258D02*
X1687Y258D01*
X1693Y258D02*
X1700Y258D01*
X1709Y258D02*
X1715Y258D01*
X1745Y258D02*
X1751Y258D01*
X1782Y258D02*
X1788Y258D01*
X1846Y258D02*
X1852Y258D01*
X1681Y257D02*
X1687Y257D01*
X1694Y257D02*
X1700Y257D01*
X1709Y257D02*
X1715Y257D01*
X1745Y257D02*
X1751Y257D01*
X1782Y257D02*
X1788Y257D01*
X1846Y257D02*
X1852Y257D01*
X1681Y256D02*
X1687Y256D01*
X1694Y256D02*
X1701Y256D01*
X1709Y256D02*
X1715Y256D01*
X1745Y256D02*
X1751Y256D01*
X1782Y256D02*
X1788Y256D01*
X1846Y256D02*
X1852Y256D01*
X1681Y255D02*
X1687Y255D01*
X1695Y255D02*
X1701Y255D01*
X1709Y255D02*
X1715Y255D01*
X1745Y255D02*
X1751Y255D01*
X1782Y255D02*
X1788Y255D01*
X1846Y255D02*
X1852Y255D01*
X1681Y254D02*
X1687Y254D01*
X1695Y254D02*
X1702Y254D01*
X1709Y254D02*
X1715Y254D01*
X1745Y254D02*
X1751Y254D01*
X1782Y254D02*
X1788Y254D01*
X1846Y254D02*
X1852Y254D01*
X177Y253D02*
X179Y253D01*
X218Y253D02*
X244Y253D01*
X261Y253D02*
X265Y253D01*
X1681Y253D02*
X1687Y253D01*
X1695Y253D02*
X1702Y253D01*
X1709Y253D02*
X1715Y253D01*
X1745Y253D02*
X1751Y253D01*
X1782Y253D02*
X1788Y253D01*
X1846Y253D02*
X1852Y253D01*
X152Y252D02*
X181Y252D01*
X216Y252D02*
X247Y252D01*
X261Y252D02*
X265Y252D01*
X1681Y252D02*
X1687Y252D01*
X1696Y252D02*
X1703Y252D01*
X1709Y252D02*
X1715Y252D01*
X1745Y252D02*
X1751Y252D01*
X1782Y252D02*
X1788Y252D01*
X1846Y252D02*
X1852Y252D01*
X1861Y252D02*
X1864Y252D01*
X149Y251D02*
X181Y251D01*
X215Y251D02*
X248Y251D01*
X260Y251D02*
X266Y251D01*
X1681Y251D02*
X1687Y251D01*
X1696Y251D02*
X1703Y251D01*
X1709Y251D02*
X1715Y251D01*
X1745Y251D02*
X1751Y251D01*
X1782Y251D02*
X1788Y251D01*
X1846Y251D02*
X1852Y251D01*
X1860Y251D02*
X1865Y251D01*
X147Y250D02*
X182Y250D01*
X214Y250D02*
X249Y250D01*
X260Y250D02*
X266Y250D01*
X1681Y250D02*
X1687Y250D01*
X1697Y250D02*
X1703Y250D01*
X1709Y250D02*
X1715Y250D01*
X1745Y250D02*
X1751Y250D01*
X1782Y250D02*
X1789Y250D01*
X1846Y250D02*
X1852Y250D01*
X1860Y250D02*
X1865Y250D01*
X146Y249D02*
X182Y249D01*
X214Y249D02*
X251Y249D01*
X260Y249D02*
X266Y249D01*
X1681Y249D02*
X1687Y249D01*
X1697Y249D02*
X1704Y249D01*
X1709Y249D02*
X1715Y249D01*
X1745Y249D02*
X1751Y249D01*
X1783Y249D02*
X1789Y249D01*
X1846Y249D02*
X1852Y249D01*
X1859Y249D02*
X1865Y249D01*
X145Y248D02*
X181Y248D01*
X213Y248D02*
X251Y248D01*
X260Y248D02*
X266Y248D01*
X1681Y248D02*
X1687Y248D01*
X1698Y248D02*
X1704Y248D01*
X1709Y248D02*
X1715Y248D01*
X1745Y248D02*
X1751Y248D01*
X1783Y248D02*
X1790Y248D01*
X1846Y248D02*
X1852Y248D01*
X1859Y248D02*
X1865Y248D01*
X145Y247D02*
X181Y247D01*
X213Y247D02*
X252Y247D01*
X260Y247D02*
X266Y247D01*
X1681Y247D02*
X1687Y247D01*
X1698Y247D02*
X1705Y247D01*
X1709Y247D02*
X1715Y247D01*
X1745Y247D02*
X1751Y247D01*
X1784Y247D02*
X1790Y247D01*
X1846Y247D02*
X1852Y247D01*
X1859Y247D02*
X1865Y247D01*
X144Y246D02*
X179Y246D01*
X213Y246D02*
X219Y246D01*
X244Y246D02*
X253Y246D01*
X260Y246D02*
X266Y246D01*
X1681Y246D02*
X1687Y246D01*
X1698Y246D02*
X1705Y246D01*
X1709Y246D02*
X1715Y246D01*
X1745Y246D02*
X1751Y246D01*
X1784Y246D02*
X1791Y246D01*
X1846Y246D02*
X1852Y246D01*
X1859Y246D02*
X1865Y246D01*
X144Y245D02*
X152Y245D01*
X158Y245D02*
X166Y245D01*
X172Y245D02*
X179Y245D01*
X213Y245D02*
X219Y245D01*
X245Y245D02*
X254Y245D01*
X258Y245D02*
X266Y245D01*
X1681Y245D02*
X1687Y245D01*
X1699Y245D02*
X1706Y245D01*
X1709Y245D02*
X1715Y245D01*
X1745Y245D02*
X1751Y245D01*
X1785Y245D02*
X1791Y245D01*
X1846Y245D02*
X1852Y245D01*
X1859Y245D02*
X1865Y245D01*
X144Y244D02*
X150Y244D01*
X158Y244D02*
X165Y244D01*
X172Y244D02*
X179Y244D01*
X213Y244D02*
X219Y244D01*
X247Y244D02*
X266Y244D01*
X1681Y244D02*
X1687Y244D01*
X1699Y244D02*
X1706Y244D01*
X1709Y244D02*
X1715Y244D01*
X1745Y244D02*
X1751Y244D01*
X1785Y244D02*
X1792Y244D01*
X1846Y244D02*
X1852Y244D01*
X1859Y244D02*
X1865Y244D01*
X143Y243D02*
X150Y243D01*
X158Y243D02*
X164Y243D01*
X173Y243D02*
X180Y243D01*
X213Y243D02*
X220Y243D01*
X247Y243D02*
X266Y243D01*
X1681Y243D02*
X1687Y243D01*
X1700Y243D02*
X1707Y243D01*
X1709Y243D02*
X1715Y243D01*
X1745Y243D02*
X1751Y243D01*
X1786Y243D02*
X1793Y243D01*
X1846Y243D02*
X1852Y243D01*
X1859Y243D02*
X1865Y243D01*
X143Y242D02*
X149Y242D01*
X158Y242D02*
X164Y242D01*
X174Y242D02*
X181Y242D01*
X213Y242D02*
X221Y242D01*
X248Y242D02*
X266Y242D01*
X1681Y242D02*
X1687Y242D01*
X1700Y242D02*
X1707Y242D01*
X1709Y242D02*
X1715Y242D01*
X1745Y242D02*
X1751Y242D01*
X1786Y242D02*
X1793Y242D01*
X1846Y242D02*
X1852Y242D01*
X1859Y242D02*
X1865Y242D01*
X143Y241D02*
X149Y241D01*
X158Y241D02*
X164Y241D01*
X174Y241D02*
X181Y241D01*
X214Y241D02*
X222Y241D01*
X248Y241D02*
X266Y241D01*
X1681Y241D02*
X1687Y241D01*
X1701Y241D02*
X1715Y241D01*
X1745Y241D02*
X1751Y241D01*
X1787Y241D02*
X1794Y241D01*
X1846Y241D02*
X1852Y241D01*
X1859Y241D02*
X1865Y241D01*
X143Y240D02*
X149Y240D01*
X158Y240D02*
X164Y240D01*
X175Y240D02*
X182Y240D01*
X215Y240D02*
X223Y240D01*
X245Y240D02*
X264Y240D01*
X1681Y240D02*
X1687Y240D01*
X1701Y240D02*
X1715Y240D01*
X1745Y240D02*
X1751Y240D01*
X1787Y240D02*
X1794Y240D01*
X1846Y240D02*
X1852Y240D01*
X1859Y240D02*
X1865Y240D01*
X143Y239D02*
X149Y239D01*
X158Y239D02*
X164Y239D01*
X175Y239D02*
X182Y239D01*
X215Y239D02*
X224Y239D01*
X244Y239D02*
X261Y239D01*
X1681Y239D02*
X1687Y239D01*
X1702Y239D02*
X1715Y239D01*
X1745Y239D02*
X1751Y239D01*
X1788Y239D02*
X1795Y239D01*
X1846Y239D02*
X1852Y239D01*
X1859Y239D02*
X1865Y239D01*
X143Y238D02*
X149Y238D01*
X158Y238D02*
X164Y238D01*
X176Y238D02*
X182Y238D01*
X216Y238D02*
X225Y238D01*
X243Y238D02*
X260Y238D01*
X1681Y238D02*
X1687Y238D01*
X1702Y238D02*
X1715Y238D01*
X1745Y238D02*
X1751Y238D01*
X1788Y238D02*
X1795Y238D01*
X1846Y238D02*
X1852Y238D01*
X1859Y238D02*
X1865Y238D01*
X143Y237D02*
X149Y237D01*
X158Y237D02*
X164Y237D01*
X176Y237D02*
X182Y237D01*
X217Y237D02*
X225Y237D01*
X242Y237D02*
X261Y237D01*
X1681Y237D02*
X1687Y237D01*
X1702Y237D02*
X1715Y237D01*
X1745Y237D02*
X1751Y237D01*
X1789Y237D02*
X1796Y237D01*
X1846Y237D02*
X1852Y237D01*
X1859Y237D02*
X1865Y237D01*
X143Y236D02*
X149Y236D01*
X158Y236D02*
X164Y236D01*
X176Y236D02*
X182Y236D01*
X218Y236D02*
X226Y236D01*
X242Y236D02*
X261Y236D01*
X1681Y236D02*
X1687Y236D01*
X1703Y236D02*
X1715Y236D01*
X1745Y236D02*
X1751Y236D01*
X1789Y236D02*
X1796Y236D01*
X1846Y236D02*
X1852Y236D01*
X1859Y236D02*
X1865Y236D01*
X143Y235D02*
X149Y235D01*
X158Y235D02*
X164Y235D01*
X176Y235D02*
X182Y235D01*
X219Y235D02*
X227Y235D01*
X243Y235D02*
X251Y235D01*
X254Y235D02*
X262Y235D01*
X1681Y235D02*
X1687Y235D01*
X1703Y235D02*
X1715Y235D01*
X1745Y235D02*
X1751Y235D01*
X1790Y235D02*
X1798Y235D01*
X1845Y235D02*
X1852Y235D01*
X1859Y235D02*
X1865Y235D01*
X143Y234D02*
X149Y234D01*
X158Y234D02*
X164Y234D01*
X176Y234D02*
X182Y234D01*
X220Y234D02*
X228Y234D01*
X243Y234D02*
X248Y234D01*
X255Y234D02*
X263Y234D01*
X1681Y234D02*
X1687Y234D01*
X1704Y234D02*
X1715Y234D01*
X1745Y234D02*
X1751Y234D01*
X1790Y234D02*
X1814Y234D01*
X1833Y234D02*
X1865Y234D01*
X143Y233D02*
X149Y233D01*
X158Y233D02*
X164Y233D01*
X176Y233D02*
X182Y233D01*
X221Y233D02*
X229Y233D01*
X256Y233D02*
X264Y233D01*
X1681Y233D02*
X1687Y233D01*
X1704Y233D02*
X1715Y233D01*
X1745Y233D02*
X1751Y233D01*
X1791Y233D02*
X1815Y233D01*
X1832Y233D02*
X1865Y233D01*
X143Y232D02*
X149Y232D01*
X158Y232D02*
X164Y232D01*
X176Y232D02*
X182Y232D01*
X221Y232D02*
X230Y232D01*
X257Y232D02*
X265Y232D01*
X1681Y232D02*
X1687Y232D01*
X1705Y232D02*
X1715Y232D01*
X1745Y232D02*
X1751Y232D01*
X1791Y232D02*
X1815Y232D01*
X1832Y232D02*
X1865Y232D01*
X143Y231D02*
X149Y231D01*
X158Y231D02*
X164Y231D01*
X176Y231D02*
X182Y231D01*
X222Y231D02*
X230Y231D01*
X258Y231D02*
X265Y231D01*
X1681Y231D02*
X1687Y231D01*
X1705Y231D02*
X1715Y231D01*
X1745Y231D02*
X1751Y231D01*
X1792Y231D02*
X1815Y231D01*
X1832Y231D02*
X1865Y231D01*
X143Y230D02*
X149Y230D01*
X158Y230D02*
X164Y230D01*
X176Y230D02*
X182Y230D01*
X223Y230D02*
X231Y230D01*
X258Y230D02*
X266Y230D01*
X1211Y230D02*
X1256Y230D01*
X1681Y230D02*
X1687Y230D01*
X1706Y230D02*
X1715Y230D01*
X1745Y230D02*
X1751Y230D01*
X1794Y230D02*
X1815Y230D01*
X1832Y230D02*
X1865Y230D01*
X143Y229D02*
X149Y229D01*
X158Y229D02*
X164Y229D01*
X176Y229D02*
X182Y229D01*
X224Y229D02*
X232Y229D01*
X259Y229D02*
X266Y229D01*
X1209Y229D02*
X1257Y229D01*
X1682Y229D02*
X1686Y229D01*
X1706Y229D02*
X1715Y229D01*
X1746Y229D02*
X1750Y229D01*
X1795Y229D02*
X1814Y229D01*
X1833Y229D02*
X1864Y229D01*
X143Y228D02*
X149Y228D01*
X158Y228D02*
X164Y228D01*
X176Y228D02*
X182Y228D01*
X225Y228D02*
X233Y228D01*
X260Y228D02*
X266Y228D01*
X1208Y228D02*
X1258Y228D01*
X1684Y228D02*
X1685Y228D01*
X1707Y228D02*
X1715Y228D01*
X1748Y228D02*
X1749Y228D01*
X1798Y228D02*
X1813Y228D01*
X1834Y228D02*
X1863Y228D01*
X144Y227D02*
X149Y227D01*
X158Y227D02*
X165Y227D01*
X175Y227D02*
X182Y227D01*
X226Y227D02*
X235Y227D01*
X260Y227D02*
X266Y227D01*
X1207Y227D02*
X1258Y227D01*
X145Y226D02*
X148Y226D01*
X158Y226D02*
X166Y226D01*
X174Y226D02*
X181Y226D01*
X226Y226D02*
X266Y226D01*
X1206Y226D02*
X1257Y226D01*
X159Y225D02*
X181Y225D01*
X227Y225D02*
X266Y225D01*
X1206Y225D02*
X1257Y225D01*
X159Y224D02*
X181Y224D01*
X228Y224D02*
X265Y224D01*
X1205Y224D02*
X1255Y224D01*
X160Y223D02*
X180Y223D01*
X229Y223D02*
X265Y223D01*
X1205Y223D02*
X1212Y223D01*
X161Y222D02*
X179Y222D01*
X230Y222D02*
X264Y222D01*
X1205Y222D02*
X1211Y222D01*
X162Y221D02*
X178Y221D01*
X232Y221D02*
X263Y221D01*
X1205Y221D02*
X1211Y221D01*
X163Y220D02*
X177Y220D01*
X234Y220D02*
X261Y220D01*
X1205Y220D02*
X1211Y220D01*
X165Y219D02*
X174Y219D01*
X1205Y219D02*
X1211Y219D01*
X1205Y218D02*
X1211Y218D01*
X1205Y217D02*
X1211Y217D01*
X1205Y216D02*
X1211Y216D01*
X1205Y215D02*
X1211Y215D01*
X1205Y214D02*
X1211Y214D01*
X1205Y213D02*
X1211Y213D01*
X1205Y212D02*
X1211Y212D01*
X1205Y211D02*
X1211Y211D01*
X1205Y210D02*
X1211Y210D01*
X1205Y209D02*
X1211Y209D01*
X1205Y208D02*
X1211Y208D01*
X1205Y207D02*
X1211Y207D01*
X1205Y206D02*
X1211Y206D01*
X1205Y205D02*
X1211Y205D01*
X1205Y204D02*
X1212Y204D01*
X1205Y203D02*
X1255Y203D01*
X130Y202D02*
X133Y202D01*
X1206Y202D02*
X1257Y202D01*
X129Y201D02*
X134Y201D01*
X1206Y201D02*
X1258Y201D01*
X129Y200D02*
X134Y200D01*
X1207Y200D02*
X1258Y200D01*
X129Y199D02*
X135Y199D01*
X1208Y199D02*
X1258Y199D01*
X129Y198D02*
X135Y198D01*
X1209Y198D02*
X1257Y198D01*
X129Y197D02*
X135Y197D01*
X1211Y197D02*
X1256Y197D01*
X129Y196D02*
X135Y196D01*
X129Y195D02*
X135Y195D01*
X147Y195D02*
X151Y195D01*
X129Y194D02*
X135Y194D01*
X147Y194D02*
X152Y194D01*
X129Y193D02*
X135Y193D01*
X146Y193D02*
X152Y193D01*
X129Y192D02*
X135Y192D01*
X146Y192D02*
X152Y192D01*
X129Y191D02*
X135Y191D01*
X146Y191D02*
X152Y191D01*
X129Y190D02*
X135Y190D01*
X146Y190D02*
X152Y190D01*
X129Y189D02*
X135Y189D01*
X146Y189D02*
X152Y189D01*
X129Y188D02*
X135Y188D01*
X146Y188D02*
X152Y188D01*
X129Y187D02*
X135Y187D01*
X146Y187D02*
X152Y187D01*
X129Y186D02*
X135Y186D01*
X146Y186D02*
X152Y186D01*
X129Y185D02*
X135Y185D01*
X146Y185D02*
X152Y185D01*
X129Y184D02*
X135Y184D01*
X146Y184D02*
X152Y184D01*
X129Y183D02*
X135Y183D01*
X146Y183D02*
X152Y183D01*
X129Y182D02*
X135Y182D01*
X146Y182D02*
X152Y182D01*
X129Y181D02*
X135Y181D01*
X146Y181D02*
X152Y181D01*
X129Y180D02*
X135Y180D01*
X146Y180D02*
X152Y180D01*
X1206Y180D02*
X1209Y180D01*
X1253Y180D02*
X1256Y180D01*
X129Y179D02*
X135Y179D01*
X146Y179D02*
X152Y179D01*
X1205Y179D02*
X1210Y179D01*
X1252Y179D02*
X1257Y179D01*
X129Y178D02*
X135Y178D01*
X146Y178D02*
X152Y178D01*
X1205Y178D02*
X1210Y178D01*
X1252Y178D02*
X1258Y178D01*
X129Y177D02*
X135Y177D01*
X146Y177D02*
X152Y177D01*
X1205Y177D02*
X1211Y177D01*
X1252Y177D02*
X1258Y177D01*
X129Y176D02*
X135Y176D01*
X146Y176D02*
X152Y176D01*
X1205Y176D02*
X1211Y176D01*
X1252Y176D02*
X1258Y176D01*
X129Y175D02*
X180Y175D01*
X1205Y175D02*
X1211Y175D01*
X1252Y175D02*
X1258Y175D01*
X129Y174D02*
X181Y174D01*
X1205Y174D02*
X1211Y174D01*
X1252Y174D02*
X1258Y174D01*
X129Y173D02*
X182Y173D01*
X1205Y173D02*
X1211Y173D01*
X1252Y173D02*
X1258Y173D01*
X129Y172D02*
X182Y172D01*
X1205Y172D02*
X1211Y172D01*
X1252Y172D02*
X1258Y172D01*
X129Y171D02*
X182Y171D01*
X1205Y171D02*
X1211Y171D01*
X1252Y171D02*
X1258Y171D01*
X129Y170D02*
X181Y170D01*
X1205Y170D02*
X1211Y170D01*
X1252Y170D02*
X1258Y170D01*
X129Y169D02*
X180Y169D01*
X1205Y169D02*
X1211Y169D01*
X1252Y169D02*
X1258Y169D01*
X1205Y168D02*
X1211Y168D01*
X1252Y168D02*
X1258Y168D01*
X1205Y167D02*
X1211Y167D01*
X1251Y167D02*
X1258Y167D01*
X1205Y166D02*
X1258Y166D01*
X1205Y165D02*
X1258Y165D01*
X1205Y164D02*
X1258Y164D01*
X1205Y163D02*
X1258Y163D01*
X1205Y162D02*
X1258Y162D01*
X1205Y161D02*
X1258Y161D01*
X1205Y160D02*
X1257Y160D01*
X1205Y159D02*
X1211Y159D01*
X1205Y158D02*
X1211Y158D01*
X1205Y157D02*
X1211Y157D01*
X1205Y156D02*
X1211Y156D01*
X1205Y155D02*
X1211Y155D01*
X1205Y154D02*
X1211Y154D01*
X1205Y153D02*
X1225Y153D01*
X1205Y152D02*
X1227Y152D01*
X1205Y151D02*
X1228Y151D01*
X1205Y150D02*
X1228Y150D01*
X1205Y149D02*
X1228Y149D01*
X1205Y148D02*
X1228Y148D01*
X1206Y147D02*
X1227Y147D01*
X1684Y134D02*
X1693Y134D01*
X1713Y134D02*
X1717Y134D01*
X1734Y134D02*
X1768Y134D01*
X1799Y134D02*
X1817Y134D01*
X1836Y134D02*
X1865Y134D01*
X1684Y133D02*
X1693Y133D01*
X1712Y133D02*
X1717Y133D01*
X1734Y133D02*
X1768Y133D01*
X1797Y133D02*
X1818Y133D01*
X1835Y133D02*
X1866Y133D01*
X1684Y132D02*
X1694Y132D01*
X1712Y132D02*
X1718Y132D01*
X1734Y132D02*
X1768Y132D01*
X1796Y132D02*
X1818Y132D01*
X1835Y132D02*
X1867Y132D01*
X1684Y131D02*
X1694Y131D01*
X1712Y131D02*
X1718Y131D01*
X1734Y131D02*
X1768Y131D01*
X1795Y131D02*
X1818Y131D01*
X1835Y131D02*
X1868Y131D01*
X1684Y130D02*
X1695Y130D01*
X1712Y130D02*
X1718Y130D01*
X1734Y130D02*
X1768Y130D01*
X1794Y130D02*
X1818Y130D01*
X1835Y130D02*
X1868Y130D01*
X1684Y129D02*
X1695Y129D01*
X1712Y129D02*
X1718Y129D01*
X1734Y129D02*
X1768Y129D01*
X1793Y129D02*
X1817Y129D01*
X1836Y129D02*
X1868Y129D01*
X1684Y128D02*
X1696Y128D01*
X1712Y128D02*
X1718Y128D01*
X1734Y128D02*
X1768Y128D01*
X1793Y128D02*
X1816Y128D01*
X1838Y128D02*
X1868Y128D01*
X1684Y127D02*
X1696Y127D01*
X1712Y127D02*
X1718Y127D01*
X1734Y127D02*
X1741Y127D01*
X1748Y127D02*
X1754Y127D01*
X1762Y127D02*
X1768Y127D01*
X1792Y127D02*
X1800Y127D01*
X1862Y127D02*
X1868Y127D01*
X1684Y126D02*
X1696Y126D01*
X1712Y126D02*
X1718Y126D01*
X1734Y126D02*
X1741Y126D01*
X1748Y126D02*
X1754Y126D01*
X1762Y126D02*
X1768Y126D01*
X1792Y126D02*
X1799Y126D01*
X1862Y126D02*
X1868Y126D01*
X1684Y125D02*
X1697Y125D01*
X1712Y125D02*
X1718Y125D01*
X1735Y125D02*
X1740Y125D01*
X1748Y125D02*
X1754Y125D01*
X1762Y125D02*
X1768Y125D01*
X1791Y125D02*
X1798Y125D01*
X1862Y125D02*
X1868Y125D01*
X1684Y124D02*
X1697Y124D01*
X1712Y124D02*
X1718Y124D01*
X1735Y124D02*
X1740Y124D01*
X1748Y124D02*
X1754Y124D01*
X1762Y124D02*
X1768Y124D01*
X1791Y124D02*
X1798Y124D01*
X1862Y124D02*
X1868Y124D01*
X1684Y123D02*
X1698Y123D01*
X1712Y123D02*
X1718Y123D01*
X1736Y123D02*
X1739Y123D01*
X1748Y123D02*
X1754Y123D01*
X1763Y123D02*
X1767Y123D01*
X1790Y123D02*
X1797Y123D01*
X1862Y123D02*
X1868Y123D01*
X1684Y122D02*
X1698Y122D01*
X1712Y122D02*
X1718Y122D01*
X1748Y122D02*
X1754Y122D01*
X1765Y122D02*
X1765Y122D01*
X1790Y122D02*
X1797Y122D01*
X1862Y122D02*
X1868Y122D01*
X1684Y121D02*
X1690Y121D01*
X1692Y121D02*
X1699Y121D01*
X1712Y121D02*
X1718Y121D01*
X1748Y121D02*
X1754Y121D01*
X1789Y121D02*
X1796Y121D01*
X1862Y121D02*
X1868Y121D01*
X1684Y120D02*
X1690Y120D01*
X1692Y120D02*
X1699Y120D01*
X1712Y120D02*
X1718Y120D01*
X1748Y120D02*
X1754Y120D01*
X1789Y120D02*
X1796Y120D01*
X1862Y120D02*
X1868Y120D01*
X1684Y119D02*
X1690Y119D01*
X1693Y119D02*
X1699Y119D01*
X1712Y119D02*
X1718Y119D01*
X1748Y119D02*
X1754Y119D01*
X1788Y119D02*
X1795Y119D01*
X1862Y119D02*
X1868Y119D01*
X1684Y118D02*
X1690Y118D01*
X1693Y118D02*
X1700Y118D01*
X1712Y118D02*
X1718Y118D01*
X1748Y118D02*
X1754Y118D01*
X1788Y118D02*
X1795Y118D01*
X1862Y118D02*
X1868Y118D01*
X1684Y117D02*
X1690Y117D01*
X1694Y117D02*
X1700Y117D01*
X1712Y117D02*
X1718Y117D01*
X1748Y117D02*
X1754Y117D01*
X1787Y117D02*
X1794Y117D01*
X1862Y117D02*
X1868Y117D01*
X1684Y116D02*
X1690Y116D01*
X1694Y116D02*
X1701Y116D01*
X1712Y116D02*
X1718Y116D01*
X1748Y116D02*
X1754Y116D01*
X1787Y116D02*
X1794Y116D01*
X1862Y116D02*
X1868Y116D01*
X1684Y115D02*
X1690Y115D01*
X1695Y115D02*
X1701Y115D01*
X1712Y115D02*
X1718Y115D01*
X1748Y115D02*
X1754Y115D01*
X1786Y115D02*
X1793Y115D01*
X1862Y115D02*
X1868Y115D01*
X1684Y114D02*
X1690Y114D01*
X1695Y114D02*
X1702Y114D01*
X1712Y114D02*
X1718Y114D01*
X1748Y114D02*
X1754Y114D01*
X1786Y114D02*
X1793Y114D01*
X1862Y114D02*
X1868Y114D01*
X1684Y113D02*
X1690Y113D01*
X1695Y113D02*
X1702Y113D01*
X1712Y113D02*
X1718Y113D01*
X1748Y113D02*
X1754Y113D01*
X1786Y113D02*
X1792Y113D01*
X1862Y113D02*
X1868Y113D01*
X1684Y112D02*
X1690Y112D01*
X1696Y112D02*
X1703Y112D01*
X1712Y112D02*
X1718Y112D01*
X1748Y112D02*
X1754Y112D01*
X1785Y112D02*
X1792Y112D01*
X1862Y112D02*
X1868Y112D01*
X1684Y111D02*
X1690Y111D01*
X1696Y111D02*
X1703Y111D01*
X1712Y111D02*
X1718Y111D01*
X1748Y111D02*
X1754Y111D01*
X1785Y111D02*
X1791Y111D01*
X1840Y111D02*
X1868Y111D01*
X1684Y110D02*
X1690Y110D01*
X1697Y110D02*
X1703Y110D01*
X1712Y110D02*
X1718Y110D01*
X1748Y110D02*
X1754Y110D01*
X1785Y110D02*
X1791Y110D01*
X1838Y110D02*
X1868Y110D01*
X1684Y109D02*
X1690Y109D01*
X1697Y109D02*
X1704Y109D01*
X1712Y109D02*
X1718Y109D01*
X1748Y109D02*
X1754Y109D01*
X1785Y109D02*
X1791Y109D01*
X1837Y109D02*
X1868Y109D01*
X1684Y108D02*
X1690Y108D01*
X1698Y108D02*
X1704Y108D01*
X1712Y108D02*
X1718Y108D01*
X1748Y108D02*
X1754Y108D01*
X1785Y108D02*
X1791Y108D01*
X1836Y108D02*
X1868Y108D01*
X1684Y107D02*
X1690Y107D01*
X1698Y107D02*
X1705Y107D01*
X1712Y107D02*
X1718Y107D01*
X1748Y107D02*
X1754Y107D01*
X1785Y107D02*
X1791Y107D01*
X1835Y107D02*
X1867Y107D01*
X1684Y106D02*
X1690Y106D01*
X1698Y106D02*
X1705Y106D01*
X1712Y106D02*
X1718Y106D01*
X1748Y106D02*
X1754Y106D01*
X1785Y106D02*
X1791Y106D01*
X1835Y106D02*
X1866Y106D01*
X1684Y105D02*
X1690Y105D01*
X1699Y105D02*
X1706Y105D01*
X1712Y105D02*
X1718Y105D01*
X1748Y105D02*
X1754Y105D01*
X1785Y105D02*
X1791Y105D01*
X1835Y105D02*
X1864Y105D01*
X1684Y104D02*
X1690Y104D01*
X1699Y104D02*
X1706Y104D01*
X1712Y104D02*
X1718Y104D01*
X1748Y104D02*
X1754Y104D01*
X1785Y104D02*
X1792Y104D01*
X1835Y104D02*
X1841Y104D01*
X1684Y103D02*
X1690Y103D01*
X1700Y103D02*
X1706Y103D01*
X1712Y103D02*
X1718Y103D01*
X1748Y103D02*
X1754Y103D01*
X1786Y103D02*
X1792Y103D01*
X1835Y103D02*
X1841Y103D01*
X1684Y102D02*
X1690Y102D01*
X1700Y102D02*
X1707Y102D01*
X1712Y102D02*
X1718Y102D01*
X1748Y102D02*
X1754Y102D01*
X1786Y102D02*
X1793Y102D01*
X1835Y102D02*
X1841Y102D01*
X1684Y101D02*
X1690Y101D01*
X1701Y101D02*
X1707Y101D01*
X1712Y101D02*
X1718Y101D01*
X1748Y101D02*
X1754Y101D01*
X1786Y101D02*
X1793Y101D01*
X1835Y101D02*
X1841Y101D01*
X1684Y100D02*
X1690Y100D01*
X1701Y100D02*
X1708Y100D01*
X1712Y100D02*
X1718Y100D01*
X1748Y100D02*
X1754Y100D01*
X1787Y100D02*
X1794Y100D01*
X1835Y100D02*
X1841Y100D01*
X1684Y99D02*
X1690Y99D01*
X1702Y99D02*
X1708Y99D01*
X1712Y99D02*
X1718Y99D01*
X1748Y99D02*
X1754Y99D01*
X1787Y99D02*
X1794Y99D01*
X1835Y99D02*
X1841Y99D01*
X1684Y98D02*
X1690Y98D01*
X1702Y98D02*
X1709Y98D01*
X1712Y98D02*
X1718Y98D01*
X1748Y98D02*
X1754Y98D01*
X1788Y98D02*
X1795Y98D01*
X1835Y98D02*
X1841Y98D01*
X1684Y97D02*
X1690Y97D01*
X1702Y97D02*
X1709Y97D01*
X1712Y97D02*
X1718Y97D01*
X1748Y97D02*
X1754Y97D01*
X1788Y97D02*
X1795Y97D01*
X1835Y97D02*
X1841Y97D01*
X1684Y96D02*
X1690Y96D01*
X1703Y96D02*
X1710Y96D01*
X1712Y96D02*
X1718Y96D01*
X1748Y96D02*
X1754Y96D01*
X1789Y96D02*
X1796Y96D01*
X1835Y96D02*
X1841Y96D01*
X1684Y95D02*
X1690Y95D01*
X1703Y95D02*
X1710Y95D01*
X1712Y95D02*
X1718Y95D01*
X1748Y95D02*
X1754Y95D01*
X1789Y95D02*
X1796Y95D01*
X1835Y95D02*
X1841Y95D01*
X1684Y94D02*
X1690Y94D01*
X1704Y94D02*
X1718Y94D01*
X1748Y94D02*
X1754Y94D01*
X1790Y94D02*
X1797Y94D01*
X1835Y94D02*
X1841Y94D01*
X1684Y93D02*
X1690Y93D01*
X1704Y93D02*
X1718Y93D01*
X1748Y93D02*
X1754Y93D01*
X1790Y93D02*
X1797Y93D01*
X1835Y93D02*
X1841Y93D01*
X1684Y92D02*
X1690Y92D01*
X1705Y92D02*
X1718Y92D01*
X1748Y92D02*
X1754Y92D01*
X1791Y92D02*
X1798Y92D01*
X1835Y92D02*
X1841Y92D01*
X1684Y91D02*
X1690Y91D01*
X1705Y91D02*
X1718Y91D01*
X1748Y91D02*
X1754Y91D01*
X1791Y91D02*
X1798Y91D01*
X1835Y91D02*
X1841Y91D01*
X1684Y90D02*
X1690Y90D01*
X1705Y90D02*
X1718Y90D01*
X1748Y90D02*
X1754Y90D01*
X1792Y90D02*
X1799Y90D01*
X1835Y90D02*
X1841Y90D01*
X1684Y89D02*
X1690Y89D01*
X1706Y89D02*
X1718Y89D01*
X1748Y89D02*
X1754Y89D01*
X1792Y89D02*
X1799Y89D01*
X1835Y89D02*
X1841Y89D01*
X1684Y88D02*
X1690Y88D01*
X1706Y88D02*
X1718Y88D01*
X1748Y88D02*
X1754Y88D01*
X1793Y88D02*
X1801Y88D01*
X1835Y88D02*
X1841Y88D01*
X1684Y87D02*
X1690Y87D01*
X1707Y87D02*
X1718Y87D01*
X1748Y87D02*
X1754Y87D01*
X1793Y87D02*
X1817Y87D01*
X1835Y87D02*
X1867Y87D01*
X1684Y86D02*
X1690Y86D01*
X1707Y86D02*
X1718Y86D01*
X1748Y86D02*
X1754Y86D01*
X1794Y86D02*
X1818Y86D01*
X1835Y86D02*
X1868Y86D01*
X1684Y85D02*
X1690Y85D01*
X1708Y85D02*
X1718Y85D01*
X1748Y85D02*
X1754Y85D01*
X1795Y85D02*
X1818Y85D01*
X1835Y85D02*
X1868Y85D01*
X1684Y84D02*
X1690Y84D01*
X1708Y84D02*
X1718Y84D01*
X1748Y84D02*
X1754Y84D01*
X1795Y84D02*
X1818Y84D01*
X1835Y84D02*
X1868Y84D01*
X1685Y83D02*
X1690Y83D01*
X1709Y83D02*
X1718Y83D01*
X1749Y83D02*
X1754Y83D01*
X1797Y83D02*
X1818Y83D01*
X1835Y83D02*
X1868Y83D01*
X1685Y82D02*
X1689Y82D01*
X1709Y82D02*
X1718Y82D01*
X1749Y82D02*
X1753Y82D01*
X1798Y82D02*
X1817Y82D01*
X1835Y82D02*
X1868Y82D01*
X1687Y81D02*
X1688Y81D01*
X1710Y81D02*
X1718Y81D01*
X1751Y81D02*
X1752Y81D01*
X1801Y81D02*
X1816Y81D01*
X1835Y81D02*
X1866Y81D01*
D02*
G04 End of Silk1*
M02*