<?xml version='1.0' encoding='UTF-8' standalone='no'?>
<!-- Created with Fritzing (http://www.fritzing.org/) -->
<svg xmlns="http://www.w3.org/2000/svg" baseProfile="tiny" height="0.680681in" viewBox="0 0 137.088 49.009" width="1.904in" xmlns:svg="http://www.w3.org/2000/svg"  version="1.2" y="0in" x="0in">
 <g transform="matrix(-1, 0, 0, 1, 137.088, 0)">
  <g partID="57520">
   <g transform="translate(0,49.009)">
    <g transform="matrix(0,-1,1,0,0,0)">
     <g id="board" >
      <rect fill="none" stroke-width="0.5" stroke="black" height="136.512" fill-opacity="0.5" id="boardoutline" width="48.433"  y="0.288" x="0.288"/>
     </g>
    </g>
   </g>
  </g>
  <g partID="854250470">
   <g transform="translate(2.88,2.88)">
    <g id="groundplane" >
     <g id="connector0pad" >
      <polygon fill="black" points="0,0,0,3.888,23.328,3.888,23.328,4.032,23.76,4.032,23.76,4.176,24.048,4.176,24.048,4.32,24.336,4.32,24.336,4.464,24.48,4.464,24.48,4.608,24.768,4.608,24.768,4.752,24.912,4.752,24.912,4.896,25.056,4.896,25.056,5.04,25.2,5.04,25.2,5.328,25.344,5.328,25.344,5.472,25.488,5.472,25.488,5.616,28.8,5.616,28.8,5.328,28.944,5.328,28.944,5.184,29.088,5.184,29.088,5.04,29.232,5.04,29.232,4.896,29.376,4.896,29.376,4.752,29.52,4.752,29.52,4.608,29.664,4.608,29.664,4.464,29.952,4.464,29.952,0" stroke-width="0" stroke="none" />
      <polygon fill="black" points="0,3.888,0,5.616,13.536,5.616,13.536,5.76,14.256,5.76,14.256,5.904,14.4,5.904,14.4,6.048,14.688,6.048,14.688,6.192,14.832,6.192,14.832,6.336,14.976,6.336,14.976,6.48,15.12,6.48,15.12,6.624,15.264,6.624,15.264,6.768,15.408,6.768,15.408,6.912,15.552,6.912,15.552,7.056,15.696,7.056,15.696,7.2,15.84,7.2,15.84,7.344,15.984,7.344,15.984,7.488,19.152,7.488,19.152,6.48,19.296,6.48,19.296,6.048,19.44,6.048,19.44,5.76,19.584,5.76,19.584,5.472,19.728,5.472,19.728,5.184,19.872,5.184,19.872,5.04,20.016,5.04,20.016,4.896,20.16,4.896,20.16,4.752,20.304,4.752,20.304,4.608,20.448,4.608,20.448,4.464,20.736,4.464,20.736,4.32,21.024,4.32,21.024,4.176,21.312,4.176,21.312,4.032,21.744,4.032,21.744,3.888" stroke-width="0" stroke="none" />
      <polygon fill="black" points="0,5.616,0,11.232,1.44,11.232,1.44,11.088,1.872,11.088,1.872,10.944,2.736,10.944,2.736,10.8,2.88,10.8,2.88,10.512,3.024,10.512,3.024,10.224,3.168,10.224,3.168,9.936,3.312,9.936,3.312,9.648,3.456,9.648,3.456,9.36,3.6,9.36,3.6,9.072,3.744,9.072,3.744,8.784,3.888,8.784,3.888,8.496,4.032,8.496,4.032,8.352,4.176,8.352,4.176,8.064,4.32,8.064,4.32,7.776,4.464,7.776,4.464,7.488,4.608,7.488,4.608,7.2,4.752,7.2,4.752,6.912,4.896,6.912,4.896,6.624,5.04,6.624,5.04,6.336,5.184,6.336,5.184,6.192,5.328,6.192,5.328,6.048,5.472,6.048,5.472,5.904,5.76,5.904,5.76,5.76,6.336,5.76,6.336,5.616" stroke-width="0" stroke="none" />
     </g>
    </g>
   </g>
  </g>
  <g partID="854250480">
   <g transform="translate(118.8,2.88)">
    <g id="groundplane" >
     <polygon fill="black" points="0,0,0,2.016,10.224,2.016,10.224,2.16,10.8,2.16,10.8,2.304,11.232,2.304,11.232,2.448,11.52,2.448,11.52,2.592,11.808,2.592,11.808,2.736,11.952,2.736,11.952,2.88,12.24,2.88,12.24,3.024,12.384,3.024,12.384,3.168,12.672,3.168,12.672,3.312,12.816,3.312,12.816,3.456,12.96,3.456,12.96,3.6,13.104,3.6,13.104,3.744,13.248,3.744,13.248,4.032,13.392,4.032,13.392,4.176,13.536,4.176,13.536,4.32,13.68,4.32,13.68,4.608,13.824,4.608,13.824,4.896,13.968,4.896,13.968,5.184,15.408,5.184,15.408,0" stroke-width="0" stroke="none" />
     <polygon fill="black" points="0,2.016,0,12.528,8.64,12.528,8.64,12.384,7.92,12.384,7.92,12.24,7.488,12.24,7.488,12.096,7.056,12.096,7.056,11.952,6.768,11.952,6.768,11.808,6.48,11.808,6.48,11.664,6.336,11.664,6.336,11.52,6.048,11.52,6.048,11.376,5.904,11.376,5.904,11.232,5.76,11.232,5.76,11.088,5.616,11.088,5.616,10.944,5.472,10.944,5.472,10.8,5.328,10.8,5.328,10.656,5.184,10.656,5.184,10.512,5.04,10.512,5.04,10.368,4.896,10.368,4.896,10.08,4.752,10.08,4.752,9.936,4.608,9.936,4.608,9.648,4.464,9.648,4.464,9.36,4.32,9.36,4.32,8.928,4.176,8.928,4.176,8.496,4.032,8.496,4.032,7.488,3.888,7.488,3.888,7.056,4.032,7.056,4.032,6.048,4.176,6.048,4.176,5.472,4.32,5.472,4.32,5.184,4.464,5.184,4.464,4.896,4.608,4.896,4.608,4.608,4.752,4.608,4.752,4.32,4.896,4.32,4.896,4.176,5.04,4.176,5.04,3.888,5.184,3.888,5.184,3.744,5.328,3.744,5.328,3.6,5.472,3.6,5.472,3.456,5.616,3.456,5.616,3.312,5.76,3.312,5.76,3.168,6.048,3.168,6.048,3.024,6.192,3.024,6.192,2.88,6.336,2.88,6.336,2.736,6.624,2.736,6.624,2.592,6.912,2.592,6.912,2.448,7.2,2.448,7.2,2.304,7.632,2.304,7.632,2.16,8.208,2.16,8.208,2.016" stroke-width="0" stroke="none" />
     <polygon fill="black" points="13.968,9.216,13.968,9.504,13.824,9.504,13.824,9.792,13.68,9.792,13.68,10.08,13.536,10.08,13.536,10.368,13.392,10.368,13.392,10.512,13.248,10.512,13.248,10.656,13.104,10.656,13.104,10.8,12.96,10.8,12.96,10.944,12.816,10.944,12.816,11.088,12.672,11.088,12.672,11.232,12.528,11.232,12.528,11.376,12.384,11.376,12.384,11.52,12.096,11.52,12.096,11.664,11.952,11.664,11.952,11.808,11.664,11.808,11.664,11.952,11.376,11.952,11.376,12.096,10.944,12.096,10.944,12.24,10.512,12.24,10.512,12.384,9.792,12.384,9.792,12.528,15.408,12.528,15.408,9.216" stroke-width="0" stroke="none" />
     <polygon fill="black" points="0,12.528,0,12.672,15.408,12.672,15.408,12.528" stroke-width="0" stroke="none" />
     <polygon fill="black" points="0,12.528,0,12.672,15.408,12.672,15.408,12.528" stroke-width="0" stroke="none" />
     <polygon fill="black" points="0,12.672,0,20.016,13.392,20.016,13.392,20.16,13.68,20.16,13.68,20.304,13.968,20.304,13.968,20.448,15.408,20.448,15.408,12.672" stroke-width="0" stroke="none" />
     <g id="connector0pad" >
      <circle cx="4.83" fill="black" stroke-width="0" stroke="none" cy="16.413"  r="2.7"/>
     </g>
    </g>
   </g>
  </g>
  <g partID="854250490">
   <g transform="translate(8.784,11.664)">
    <g id="groundplane" >
     <g id="connector0pad" >
      <polygon fill="black" points="1.44,0,1.44,0.288,1.296,0.288,1.296,0.576,1.152,0.576,1.152,0.864,1.008,0.864,1.008,1.152,0.864,1.152,0.864,1.44,0.72,1.44,0.72,1.728,0.576,1.728,0.576,2.016,0.432,2.016,0.432,2.16,4.896,2.16,4.896,2.304,5.328,2.304,5.328,2.448,5.616,2.448,5.616,2.592,5.904,2.592,5.904,2.736,6.048,2.736,6.048,2.88,6.192,2.88,6.192,3.024,6.48,3.024,6.48,3.168,6.624,3.168,6.624,3.312,8.064,3.312,8.064,3.024,7.92,3.024,7.92,2.304,7.776,2.304,7.776,0.72,7.632,0.72,7.632,0.576,7.488,0.576,7.488,0.432,7.344,0.432,7.344,0.288,7.2,0.288,7.2,0.144,7.056,0.144,7.056,0" stroke-width="0" stroke="none" />
      <polygon fill="black" points="0.432,2.16,0.432,2.304,0.288,2.304,0.288,2.448,0.144,2.448,0.144,2.736,0,2.736,0,3.312,1.44,3.312,1.44,3.168,1.584,3.168,1.584,3.024,1.728,3.024,1.728,2.88,2.016,2.88,2.016,2.736,2.16,2.736,2.16,2.592,2.448,2.592,2.448,2.448,2.736,2.448,2.736,2.304,3.168,2.304,3.168,2.16" stroke-width="0" stroke="none" />
     </g>
    </g>
   </g>
  </g>
  <g partID="854250500">
   <g transform="translate(97.344,33.264)">
    <g id="groundplane" >
     <g id="connector0pad" >
      <polygon fill="black" points="1.296,0,1.296,0.144,1.152,0.144,1.152,0.432,1.008,0.432,1.008,0.576,0.864,0.576,0.864,0.72,0.72,0.72,0.72,0.864,0.576,0.864,0.576,1.008,0.432,1.008,0.432,1.152,0.288,1.152,0.288,1.296,0,1.296,0,2.304,6.336,2.304,6.336,2.448,6.768,2.448,6.768,2.592,7.056,2.592,7.056,2.736,7.344,2.736,7.344,2.88,7.488,2.88,7.488,3.024,7.776,3.024,7.776,3.168,7.92,3.168,7.92,3.312,8.064,3.312,8.064,3.6,8.208,3.6,8.208,3.744,8.352,3.744,8.352,3.888,9.792,3.888,9.792,3.744,9.936,3.744,9.936,3.456,10.08,3.456,10.08,3.312,10.224,3.312,10.224,3.168,10.368,3.168,10.368,3.024,10.656,3.024,10.656,2.88,10.8,2.88,10.8,2.736,10.944,2.736,10.944,0.144,3.744,0.144,3.744,0" stroke-width="0" stroke="none" />
      <polygon fill="black" points="0,2.304,0,2.736,0.144,2.736,0.144,2.88,0.288,2.88,0.288,3.024,0.576,3.024,0.576,3.168,0.72,3.168,0.72,3.312,0.864,3.312,0.864,3.6,1.008,3.6,1.008,3.744,1.152,3.744,1.152,3.888,2.592,3.888,2.592,3.744,2.736,3.744,2.736,3.456,2.88,3.456,2.88,3.312,3.024,3.312,3.024,3.168,3.168,3.168,3.168,3.024,3.456,3.024,3.456,2.88,3.6,2.88,3.6,2.736,3.888,2.736,3.888,2.592,4.032,2.592,4.032,2.448,4.608,2.448,4.608,2.304" stroke-width="0" stroke="none" />
     </g>
    </g>
   </g>
  </g>
  <g partID="854250510">
   <g transform="translate(7.2,4.608)">
    <g id="groundplane" >
     <polygon fill="black" points="28.8,0,28.8,2.16,46.08,2.16,46.08,2.304,46.512,2.304,46.512,2.448,46.8,2.448,46.8,2.592,47.088,2.592,47.088,2.736,47.232,2.736,47.232,2.88,47.52,2.88,47.52,3.024,47.664,3.024,47.664,3.168,47.808,3.168,47.808,3.456,47.952,3.456,47.952,3.6,48.096,3.6,48.096,3.888,48.24,3.888,48.24,4.032,48.384,4.032,48.384,4.464,48.528,4.464,48.528,5.184,48.672,5.184,48.672,5.904,48.528,5.904,48.528,6.48,48.384,6.48,48.384,6.912,48.24,6.912,48.24,7.2,48.096,7.2,48.096,7.488,47.952,7.488,47.952,7.632,47.808,7.632,47.808,7.776,47.664,7.776,47.664,7.92,47.52,7.92,47.52,8.064,47.376,8.064,47.376,8.208,47.232,8.208,47.232,8.352,46.944,8.352,46.944,8.496,46.8,8.496,46.8,12.096,46.944,12.096,46.944,12.24,47.088,12.24,47.088,12.384,47.232,12.384,47.232,12.528,47.376,12.528,47.376,12.672,47.52,12.672,47.52,12.816,47.664,12.816,47.664,12.96,47.808,12.96,47.808,13.104,47.952,13.104,47.952,13.248,48.096,13.248,48.096,13.392,48.24,13.392,48.24,13.536,48.384,13.536,48.384,13.68,48.528,13.68,48.528,13.824,48.672,13.824,48.672,13.968,48.816,13.968,48.816,14.112,48.96,14.112,48.96,14.256,49.104,14.256,49.104,14.4,49.248,14.4,49.248,14.544,49.392,14.544,49.392,14.688,49.536,14.688,49.536,14.832,49.68,14.832,49.68,14.976,49.824,14.976,49.824,15.12,49.968,15.12,49.968,15.264,50.112,15.264,50.112,15.408,50.256,15.408,50.256,15.552,50.4,15.552,50.4,15.696,50.544,15.696,50.544,15.84,50.688,15.84,50.688,15.984,50.832,15.984,50.832,16.128,50.976,16.128,50.976,16.272,51.12,16.272,51.12,16.416,51.264,16.416,51.264,16.56,51.408,16.56,51.408,16.704,51.552,16.704,51.552,16.848,51.696,16.848,51.696,16.992,51.84,16.992,51.84,17.136,51.984,17.136,51.984,17.28,52.128,17.28,52.128,17.424,52.272,17.424,52.272,17.568,52.416,17.568,52.416,17.712,52.56,17.712,52.56,17.856,52.704,17.856,52.704,18,52.848,18,52.848,18.144,52.992,18.144,52.992,18.288,56.592,18.288,56.592,18.144,56.736,18.144,56.736,18,56.88,18,56.88,17.712,57.024,17.712,57.024,17.568,57.168,17.568,57.168,16.128,56.16,16.128,56.16,9.36,56.304,9.36,56.304,9.216,58.032,9.216,58.032,1.584,58.176,1.584,58.176,0.144,42.48,0.144,42.48,0" stroke-width="0" stroke="none" />
     <polygon fill="black" points="86.256,0,86.256,0.144,61.344,0.144,61.344,1.584,61.2,1.584,61.2,2.16,103.68,2.16,103.68,2.304,104.112,2.304,104.112,2.448,104.4,2.448,104.4,2.592,104.688,2.592,104.688,2.736,104.832,2.736,104.832,2.88,105.12,2.88,105.12,3.024,105.264,3.024,105.264,3.168,105.408,3.168,105.408,3.456,105.552,3.456,105.552,3.6,105.696,3.6,105.696,3.888,105.84,3.888,105.84,4.032,105.984,4.032,105.984,4.464,106.128,4.464,106.128,5.184,106.272,5.184,106.272,5.904,106.128,5.904,106.128,6.48,105.984,6.48,105.984,6.912,105.84,6.912,105.84,7.2,105.696,7.2,105.696,7.488,105.552,7.488,105.552,7.632,105.408,7.632,105.408,7.776,105.264,7.776,105.264,7.92,105.12,7.92,105.12,8.064,104.976,8.064,104.976,8.208,104.832,8.208,104.832,8.352,104.544,8.352,104.544,8.496,104.256,8.496,104.256,8.64,103.968,8.64,103.968,8.784,103.392,8.784,103.392,8.928,108.432,8.928,108.432,0" stroke-width="0" stroke="none" />
     <polygon fill="black" points="28.8,2.16,28.8,2.736,28.944,2.736,28.944,2.88,29.232,2.88,29.232,3.024,29.376,3.024,29.376,3.168,29.52,3.168,29.52,3.312,29.664,3.312,29.664,3.456,29.808,3.456,29.808,3.744,29.952,3.744,29.952,3.888,30.096,3.888,30.096,4.176,30.24,4.176,30.24,4.608,30.384,4.608,30.384,6.336,30.24,6.336,30.24,6.768,30.096,6.768,30.096,7.056,29.952,7.056,29.952,7.344,29.808,7.344,29.808,7.488,29.664,7.488,29.664,7.632,29.52,7.632,29.52,7.776,29.376,7.776,29.376,7.92,29.232,7.92,29.232,8.064,29.088,8.064,29.088,8.208,28.8,8.208,28.8,8.352,28.512,8.352,28.512,9.792,28.656,9.792,28.656,9.936,28.944,9.936,28.944,10.08,29.232,10.08,29.232,10.224,29.376,10.224,29.376,10.368,29.52,10.368,29.52,10.512,29.664,10.512,29.664,10.656,29.808,10.656,29.808,10.944,29.952,10.944,29.952,11.088,30.096,11.088,30.096,11.376,30.24,11.376,30.24,11.808,30.384,11.808,30.384,13.536,30.24,13.536,30.24,13.968,30.096,13.968,30.096,14.256,29.952,14.256,29.952,14.544,29.808,14.544,29.808,14.688,29.664,14.688,29.664,14.832,29.52,14.832,29.52,14.976,29.376,14.976,29.376,15.12,29.232,15.12,29.232,15.264,29.088,15.264,29.088,15.408,28.8,15.408,28.8,15.552,28.656,15.552,28.656,15.696,28.224,15.696,28.224,15.84,27.648,15.84,27.648,15.984,46.224,15.984,46.224,15.84,46.08,15.84,46.08,15.696,45.936,15.696,45.936,15.552,45.792,15.552,45.792,15.408,45.648,15.408,45.648,15.264,45.504,15.264,45.504,15.12,45.36,15.12,45.36,14.976,45.216,14.976,45.216,14.832,45.072,14.832,45.072,14.688,44.928,14.688,44.928,14.544,44.784,14.544,44.784,14.4,44.64,14.4,44.64,14.256,44.496,14.256,44.496,14.112,44.352,14.112,44.352,13.968,44.208,13.968,44.208,13.824,44.064,13.824,44.064,13.68,43.92,13.68,43.92,13.536,43.776,13.536,43.776,13.248,43.632,13.248,43.632,8.496,43.488,8.496,43.488,8.352,43.2,8.352,43.2,8.208,43.056,8.208,43.056,8.064,42.912,8.064,42.912,7.92,42.768,7.92,42.768,7.776,42.624,7.776,42.624,7.632,42.48,7.632,42.48,7.488,42.336,7.488,42.336,7.2,42.192,7.2,42.192,6.912,42.048,6.912,42.048,6.624,41.904,6.624,41.904,6.048,41.76,6.048,41.76,5.04,41.904,5.04,41.904,4.464,42.048,4.464,42.048,4.032,42.192,4.032,42.192,3.744,42.336,3.744,42.336,3.6,42.48,3.6,42.48,3.312,42.624,3.312,42.624,3.168,42.768,3.168,42.768,3.024,42.912,3.024,42.912,2.88,43.2,2.88,43.2,2.736,43.344,2.736,43.344,2.592,43.632,2.592,43.632,2.448,43.776,2.448,43.776,2.304,44.352,2.304,44.352,2.16" stroke-width="0" stroke="none" />
     <polygon fill="black" points="61.2,2.16,61.2,8.928,94.896,8.928,94.896,8.784,94.464,8.784,94.464,8.64,94.176,8.64,94.176,8.496,93.888,8.496,93.888,8.352,93.6,8.352,93.6,8.208,93.456,8.208,93.456,8.064,93.312,8.064,93.312,7.92,93.168,7.92,93.168,7.776,93.024,7.776,93.024,7.632,92.88,7.632,92.88,7.488,92.736,7.488,92.736,7.2,92.592,7.2,92.592,6.912,92.448,6.912,92.448,6.624,92.304,6.624,92.304,6.048,92.16,6.048,92.16,5.04,92.304,5.04,92.304,4.464,92.448,4.464,92.448,4.032,92.592,4.032,92.592,3.744,92.736,3.744,92.736,3.6,92.88,3.6,92.88,3.312,93.024,3.312,93.024,3.168,93.168,3.168,93.168,3.024,93.312,3.024,93.312,2.88,93.6,2.88,93.6,2.736,93.744,2.736,93.744,2.592,94.032,2.592,94.032,2.448,94.176,2.448,94.176,2.304,94.752,2.304,94.752,2.16" stroke-width="0" stroke="none" />
     <polygon fill="black" points="96.48,2.16,96.48,2.304,96.912,2.304,96.912,2.448,97.2,2.448,97.2,2.592,97.488,2.592,97.488,2.736,97.632,2.736,97.632,2.88,97.92,2.88,97.92,3.024,98.064,3.024,98.064,3.168,98.208,3.168,98.208,3.456,98.352,3.456,98.352,3.6,98.496,3.6,98.496,3.744,99.936,3.744,99.936,3.6,100.08,3.6,100.08,3.312,100.224,3.312,100.224,3.168,100.368,3.168,100.368,3.024,100.512,3.024,100.512,2.88,100.8,2.88,100.8,2.736,100.944,2.736,100.944,2.592,101.232,2.592,101.232,2.448,101.376,2.448,101.376,2.304,101.952,2.304,101.952,2.16" stroke-width="0" stroke="none" />
     <polygon fill="black" points="21.168,7.056,21.168,7.2,21.024,7.2,21.024,7.488,20.88,7.488,20.88,7.632,20.736,7.632,20.736,7.776,20.592,7.776,20.592,7.92,20.448,7.92,20.448,8.064,20.304,8.064,20.304,8.208,20.16,8.208,20.16,8.352,19.872,8.352,19.872,9.792,20.016,9.792,20.016,9.936,20.16,9.936,20.16,10.08,20.448,10.08,20.448,10.224,20.592,10.224,20.592,10.368,20.736,10.368,20.736,10.512,20.88,10.512,20.88,10.8,21.024,10.8,21.024,10.944,21.168,10.944,21.168,11.232,21.312,11.232,21.312,11.664,21.456,11.664,21.456,12.096,21.6,12.096,21.6,13.248,21.456,13.248,21.456,13.824,21.312,13.824,21.312,14.112,21.168,14.112,21.168,14.4,21.024,14.4,21.024,14.688,20.88,14.688,20.88,14.832,20.736,14.832,20.736,14.976,20.592,14.976,20.592,15.12,20.448,15.12,20.448,15.264,20.304,15.264,20.304,15.408,20.16,15.408,20.16,15.552,19.872,15.552,19.872,15.696,19.584,15.696,19.584,15.84,19.296,15.84,19.296,15.984,26.784,15.984,26.784,15.84,26.208,15.84,26.208,15.696,25.776,15.696,25.776,15.552,25.632,15.552,25.632,15.408,25.344,15.408,25.344,15.264,25.2,15.264,25.2,15.12,24.912,15.12,24.912,14.976,24.768,14.976,24.768,14.688,24.624,14.688,24.624,14.544,24.48,14.544,24.48,14.256,24.336,14.256,24.336,14.112,24.192,14.112,24.192,13.68,24.048,13.68,24.048,12.96,23.904,12.96,23.904,12.528,24.048,12.528,24.048,11.808,24.192,11.808,24.192,11.376,24.336,11.376,24.336,11.088,24.48,11.088,24.48,10.8,24.624,10.8,24.624,10.656,24.768,10.656,24.768,10.512,24.912,10.512,24.912,10.368,25.056,10.368,25.056,10.224,25.2,10.224,25.2,10.08,25.488,10.08,25.488,9.936,25.632,9.936,25.632,9.792,25.776,9.792,25.776,8.352,25.632,8.352,25.632,8.208,25.344,8.208,25.344,8.064,25.2,8.064,25.2,7.92,25.056,7.92,25.056,7.776,24.912,7.776,24.912,7.632,24.768,7.632,24.768,7.488,24.624,7.488,24.624,7.344,24.48,7.344,24.48,7.056" stroke-width="0" stroke="none" />
     <polygon fill="black" points="98.496,7.2,98.496,7.488,98.352,7.488,98.352,7.632,98.208,7.632,98.208,7.776,98.064,7.776,98.064,7.92,97.92,7.92,97.92,8.064,97.776,8.064,97.776,8.208,97.632,8.208,97.632,8.352,97.344,8.352,97.344,8.496,97.056,8.496,97.056,8.64,96.768,8.64,96.768,8.784,96.192,8.784,96.192,8.928,102.096,8.928,102.096,8.784,101.664,8.784,101.664,8.64,101.376,8.64,101.376,8.496,101.088,8.496,101.088,8.352,100.8,8.352,100.8,8.208,100.656,8.208,100.656,8.064,100.512,8.064,100.512,7.92,100.368,7.92,100.368,7.776,100.224,7.776,100.224,7.632,100.08,7.632,100.08,7.488,99.936,7.488,99.936,7.2" stroke-width="0" stroke="none" />
     <polygon fill="black" points="61.2,8.928,61.2,9.072,108.432,9.072,108.432,8.928" stroke-width="0" stroke="none" />
     <polygon fill="black" points="61.2,8.928,61.2,9.072,108.432,9.072,108.432,8.928" stroke-width="0" stroke="none" />
     <polygon fill="black" points="61.2,8.928,61.2,9.072,108.432,9.072,108.432,8.928" stroke-width="0" stroke="none" />
     <polygon fill="black" points="61.2,9.072,61.2,9.216,62.928,9.216,62.928,9.36,89.28,9.36,89.28,9.504,89.712,9.504,89.712,9.648,90,9.648,90,9.792,90.288,9.792,90.288,9.936,90.432,9.936,90.432,10.08,90.72,10.08,90.72,10.224,90.864,10.224,90.864,10.368,91.008,10.368,91.008,10.656,91.152,10.656,91.152,10.8,91.296,10.8,91.296,11.088,91.44,11.088,91.44,11.232,91.584,11.232,91.584,11.664,91.728,11.664,91.728,12.384,91.872,12.384,91.872,13.104,91.728,13.104,91.728,13.68,91.584,13.68,91.584,14.112,91.44,14.112,91.44,14.4,91.296,14.4,91.296,14.688,91.152,14.688,91.152,14.832,91.008,14.832,91.008,14.976,90.864,14.976,90.864,15.12,90.72,15.12,90.72,15.264,90.576,15.264,90.576,15.408,90.432,15.408,90.432,15.552,90.144,15.552,90.144,16.992,90.288,16.992,90.288,17.136,90.432,17.136,90.432,17.28,90.72,17.28,90.72,17.424,90.864,17.424,90.864,17.568,91.008,17.568,91.008,17.856,91.152,17.856,91.152,18,91.296,18,91.296,18.288,91.44,18.288,91.44,18.432,91.584,18.432,91.584,18.864,91.728,18.864,91.728,19.584,91.872,19.584,91.872,20.304,91.728,20.304,91.728,20.88,91.584,20.88,91.584,21.312,91.44,21.312,91.44,21.6,91.296,21.6,91.296,21.888,91.152,21.888,91.152,22.032,91.008,22.032,91.008,22.176,90.864,22.176,90.864,22.32,90.72,22.32,90.72,22.464,90.576,22.464,90.576,22.608,90.432,22.608,90.432,22.752,90.144,22.752,90.144,23.616,118.08,23.616,118.08,23.76,118.512,23.76,118.512,23.904,118.8,23.904,118.8,24.048,119.088,24.048,119.088,24.192,119.232,24.192,119.232,24.336,119.376,24.336,119.376,24.48,119.664,24.48,119.664,24.624,119.808,24.624,119.808,24.768,119.952,24.768,119.952,25.056,120.096,25.056,120.096,25.2,121.536,25.2,121.536,25.056,121.68,25.056,121.68,24.768,121.824,24.768,121.824,24.624,121.968,24.624,121.968,24.48,122.112,24.48,122.112,24.336,122.4,24.336,122.4,24.192,122.544,24.192,122.544,24.048,122.832,24.048,122.832,21.456,109.584,21.456,109.584,21.312,109.296,21.312,109.296,21.168,109.008,21.168,109.008,21.024,108.864,21.024,108.864,20.88,108.72,20.88,108.72,20.736,108.576,20.736,108.576,20.448,108.432,20.448,108.432,9.072" stroke-width="0" stroke="none" />
     <polygon fill="black" points="63.072,9.36,63.072,16.128,62.064,16.128,62.064,17.568,62.208,17.568,62.208,17.856,62.352,17.856,62.352,18,62.496,18,62.496,18.288,62.64,18.288,62.64,18.432,62.784,18.432,62.784,18.864,62.928,18.864,62.928,19.584,63.072,19.584,63.072,20.304,62.928,20.304,62.928,20.88,62.784,20.88,62.784,21.312,62.64,21.312,62.64,21.6,62.496,21.6,62.496,21.888,62.352,21.888,62.352,22.032,62.208,22.032,62.208,22.176,62.064,22.176,62.064,22.32,61.92,22.32,61.92,22.464,61.776,22.464,61.776,22.608,61.632,22.608,61.632,22.752,61.344,22.752,61.344,24.192,61.488,24.192,61.488,24.336,61.632,24.336,61.632,24.48,61.92,24.48,61.92,24.624,62.064,24.624,62.064,24.768,62.208,24.768,62.208,25.056,62.352,25.056,62.352,25.2,62.496,25.2,62.496,25.488,62.64,25.488,62.64,25.632,62.784,25.632,62.784,26.064,62.928,26.064,62.928,26.784,63.072,26.784,63.072,27.504,62.928,27.504,62.928,28.08,62.784,28.08,62.784,28.512,62.64,28.512,62.64,28.8,62.496,28.8,62.496,29.088,62.352,29.088,62.352,29.232,62.208,29.232,62.208,29.376,62.064,29.376,62.064,29.52,61.92,29.52,61.92,29.664,61.776,29.664,61.776,29.808,61.632,29.808,61.632,29.952,61.344,29.952,61.344,31.392,61.488,31.392,61.488,31.536,61.632,31.536,61.632,31.68,61.92,31.68,61.92,31.824,62.064,31.824,62.064,31.968,62.208,31.968,62.208,32.256,62.352,32.256,62.352,32.4,62.496,32.4,62.496,32.688,62.64,32.688,62.64,32.832,62.784,32.832,62.784,33.264,62.928,33.264,62.928,33.984,63.072,33.984,63.072,34.704,62.928,34.704,62.928,35.28,62.784,35.28,62.784,35.712,62.64,35.712,62.64,36,62.496,36,62.496,36.288,62.352,36.288,62.352,36.432,62.208,36.432,62.208,36.576,62.064,36.576,62.064,36.72,61.92,36.72,61.92,36.864,61.776,36.864,61.776,37.008,61.632,37.008,61.632,37.152,61.344,37.152,61.344,37.296,61.056,37.296,61.056,37.44,60.768,37.44,60.768,37.584,60.192,37.584,60.192,37.728,87.696,37.728,87.696,37.584,87.264,37.584,87.264,37.44,86.976,37.44,86.976,37.296,86.688,37.296,86.688,37.152,86.4,37.152,86.4,37.008,86.256,37.008,86.256,36.864,86.112,36.864,86.112,36.72,85.968,36.72,85.968,36.576,85.824,36.576,85.824,36.432,85.68,36.432,85.68,36.288,85.536,36.288,85.536,36,85.392,36,85.392,35.712,85.248,35.712,85.248,35.424,85.104,35.424,85.104,34.848,84.96,34.848,84.96,33.84,85.104,33.84,85.104,33.264,85.248,33.264,85.248,32.832,85.392,32.832,85.392,32.544,85.536,32.544,85.536,32.4,85.68,32.4,85.68,32.112,85.824,32.112,85.824,31.968,85.968,31.968,85.968,31.824,86.112,31.824,86.112,31.68,86.4,31.68,86.4,31.536,86.544,31.536,86.544,31.392,86.688,31.392,86.688,29.952,86.4,29.952,86.4,29.808,86.256,29.808,86.256,29.664,86.112,29.664,86.112,29.52,85.968,29.52,85.968,29.376,85.824,29.376,85.824,29.232,85.68,29.232,85.68,29.088,85.536,29.088,85.536,28.8,85.392,28.8,85.392,28.512,85.248,28.512,85.248,28.224,85.104,28.224,85.104,27.648,84.96,27.648,84.96,26.64,85.104,26.64,85.104,26.064,85.248,26.064,85.248,25.632,85.392,25.632,85.392,25.344,85.536,25.344,85.536,25.2,85.68,25.2,85.68,24.912,85.824,24.912,85.824,24.768,85.968,24.768,85.968,24.624,86.112,24.624,86.112,24.48,86.4,24.48,86.4,24.336,86.544,24.336,86.544,24.192,86.688,24.192,86.688,22.752,86.4,22.752,86.4,22.608,86.256,22.608,86.256,22.464,86.112,22.464,86.112,22.32,85.968,22.32,85.968,22.176,85.824,22.176,85.824,22.032,85.68,22.032,85.68,21.888,85.536,21.888,85.536,21.6,85.392,21.6,85.392,21.312,85.248,21.312,85.248,21.024,85.104,21.024,85.104,20.448,84.96,20.448,84.96,19.44,85.104,19.44,85.104,18.864,85.248,18.864,85.248,18.432,85.392,18.432,85.392,18.144,85.536,18.144,85.536,18,85.68,18,85.68,17.712,85.824,17.712,85.824,17.568,85.968,17.568,85.968,17.424,86.112,17.424,86.112,17.28,86.4,17.28,86.4,17.136,86.544,17.136,86.544,16.992,86.688,16.992,86.688,15.552,86.4,15.552,86.4,15.408,86.256,15.408,86.256,15.264,86.112,15.264,86.112,15.12,85.968,15.12,85.968,14.976,85.824,14.976,85.824,14.832,85.68,14.832,85.68,14.688,85.536,14.688,85.536,14.4,85.392,14.4,85.392,14.112,85.248,14.112,85.248,13.824,85.104,13.824,85.104,13.248,84.96,13.248,84.96,12.24,85.104,12.24,85.104,11.664,85.248,11.664,85.248,11.232,85.392,11.232,85.392,10.944,85.536,10.944,85.536,10.8,85.68,10.8,85.68,10.512,85.824,10.512,85.824,10.368,85.968,10.368,85.968,10.224,86.112,10.224,86.112,10.08,86.4,10.08,86.4,9.936,86.544,9.936,86.544,9.792,86.832,9.792,86.832,9.648,86.976,9.648,86.976,9.504,87.552,9.504,87.552,9.36" stroke-width="0" stroke="none" />
     <polygon fill="black" points="8.784,11.232,8.784,11.376,8.928,11.376,8.928,11.808,9.072,11.808,9.072,12.528,12.384,12.528,12.384,12.384,11.808,12.384,11.808,12.24,11.376,12.24,11.376,12.096,11.088,12.096,11.088,11.952,10.944,11.952,10.944,11.808,10.656,11.808,10.656,11.664,10.512,11.664,10.512,11.52,10.368,11.52,10.368,11.376,10.224,11.376,10.224,11.232" stroke-width="0" stroke="none" />
     <polygon fill="black" points="13.248,12.384,13.248,12.528,14.832,12.528,14.832,12.384" stroke-width="0" stroke="none" />
     <polygon fill="black" points="9.072,12.528,9.072,12.672,14.832,12.672,14.832,12.528" stroke-width="0" stroke="none" />
     <polygon fill="black" points="9.072,12.528,9.072,12.672,14.832,12.672,14.832,12.528" stroke-width="0" stroke="none" />
     <polygon fill="black" points="9.072,12.672,9.072,13.536,8.928,13.536,8.928,14.112,8.784,14.112,8.784,14.4,8.64,14.4,8.64,14.544,8.496,14.544,8.496,14.832,8.352,14.832,8.352,14.976,8.208,14.976,8.208,15.12,8.064,15.12,8.064,15.264,7.92,15.264,7.92,15.408,7.776,15.408,7.776,15.552,7.632,15.552,7.632,15.696,7.344,15.696,7.344,15.84,7.056,15.84,7.056,15.984,6.624,15.984,6.624,16.128,17.712,16.128,17.712,15.984,17.136,15.984,17.136,15.84,16.848,15.84,16.848,15.696,16.56,15.696,16.56,15.552,16.272,15.552,16.272,15.408,16.128,15.408,16.128,15.264,15.984,15.264,15.984,15.12,15.84,15.12,15.84,14.976,15.696,14.976,15.696,14.832,15.552,14.832,15.552,14.688,15.408,14.688,15.408,14.544,15.264,14.544,15.264,14.256,15.12,14.256,15.12,13.968,14.976,13.968,14.976,13.392,14.832,13.392,14.832,12.672" stroke-width="0" stroke="none" />
     <polygon fill="black" points="1.296,14.688,1.296,14.832,1.152,14.832,1.152,14.976,1.008,14.976,1.008,15.12,0.864,15.12,0.864,15.264,0.72,15.264,0.72,15.408,0.576,15.408,0.576,15.552,0.432,15.552,0.432,15.696,0.144,15.696,0.144,15.84,0,15.84,0,16.272,5.184,16.272,5.184,16.128,4.608,16.128,4.608,15.984,4.176,15.984,4.176,15.84,3.888,15.84,3.888,15.696,3.6,15.696,3.6,15.552,3.456,15.552,3.456,15.408,3.312,15.408,3.312,15.264,3.168,15.264,3.168,15.12,3.024,15.12,3.024,14.976,2.88,14.976,2.88,14.832,2.736,14.832,2.736,14.688" stroke-width="0" stroke="none" />
     <polygon fill="black" points="18.576,15.984,18.576,16.128,46.368,16.128,46.368,15.984" stroke-width="0" stroke="none" />
     <polygon fill="black" points="18.576,15.984,18.576,16.128,46.368,16.128,46.368,15.984" stroke-width="0" stroke="none" />
     <polygon fill="black" points="6.048,16.128,6.048,16.272,46.512,16.272,46.512,16.128" stroke-width="0" stroke="none" />
     <polygon fill="black" points="6.048,16.128,6.048,16.272,46.512,16.272,46.512,16.128" stroke-width="0" stroke="none" />
     <polygon fill="black" points="0,16.272,0,16.416,46.656,16.416,46.656,16.272" stroke-width="0" stroke="none" />
     <polygon fill="black" points="0,16.272,0,16.416,46.656,16.416,46.656,16.272" stroke-width="0" stroke="none" />
     <polygon fill="black" points="0,16.416,0,20.016,27.072,20.016,27.072,20.736,40.608,20.736,40.608,26.496,40.752,26.496,40.752,26.784,40.896,26.784,40.896,26.928,41.04,26.928,41.04,27.072,41.184,27.072,41.184,27.216,41.328,27.216,41.328,27.36,41.472,27.36,41.472,27.504,41.616,27.504,41.616,27.792,41.76,27.792,41.76,27.936,41.904,27.936,41.904,28.08,42.048,28.08,42.048,28.224,42.192,28.224,42.192,28.368,42.336,28.368,42.336,28.512,42.48,28.512,42.48,28.8,42.624,28.8,42.624,28.944,42.768,28.944,42.768,29.088,42.912,29.088,42.912,29.232,43.056,29.232,43.056,29.376,43.2,29.376,43.2,29.664,43.344,29.664,43.344,29.808,43.488,29.808,43.488,29.952,43.632,29.952,43.632,30.096,43.776,30.096,43.776,30.24,43.92,30.24,43.92,30.384,44.064,30.384,44.064,30.672,44.208,30.672,44.208,30.816,44.352,30.816,44.352,30.96,46.08,30.96,46.08,31.104,46.512,31.104,46.512,31.248,46.8,31.248,46.8,31.392,47.088,31.392,47.088,31.536,47.232,31.536,47.232,31.68,47.52,31.68,47.52,31.824,47.664,31.824,47.664,31.968,47.808,31.968,47.808,32.256,47.952,32.256,47.952,32.4,48.096,32.4,48.096,32.688,48.24,32.688,48.24,32.832,48.384,32.832,48.384,33.264,48.528,33.264,48.528,33.984,48.672,33.984,48.672,34.704,48.528,34.704,48.528,35.28,48.384,35.28,48.384,35.712,48.24,35.712,48.24,36,48.096,36,48.096,36.288,47.952,36.288,47.952,36.432,47.808,36.432,47.808,36.576,47.664,36.576,47.664,36.72,47.52,36.72,47.52,36.864,47.376,36.864,47.376,37.008,47.232,37.008,47.232,37.152,46.944,37.152,46.944,37.296,46.656,37.296,46.656,37.44,46.368,37.44,46.368,37.584,45.792,37.584,45.792,37.728,58.896,37.728,58.896,37.584,58.464,37.584,58.464,37.44,58.176,37.44,58.176,37.296,57.888,37.296,57.888,37.152,57.6,37.152,57.6,37.008,57.456,37.008,57.456,36.864,57.312,36.864,57.312,36.72,57.168,36.72,57.168,36.576,57.024,36.576,57.024,36.432,56.88,36.432,56.88,36.288,56.736,36.288,56.736,36,56.592,36,56.592,35.712,56.448,35.712,56.448,35.424,56.304,35.424,56.304,34.848,56.16,34.848,56.16,33.84,56.304,33.84,56.304,33.264,56.448,33.264,56.448,32.832,56.592,32.832,56.592,32.544,56.736,32.544,56.736,32.4,56.88,32.4,56.88,32.112,57.024,32.112,57.024,31.968,57.168,31.968,57.168,31.824,57.312,31.824,57.312,31.68,57.6,31.68,57.6,31.536,57.744,31.536,57.744,31.392,57.888,31.392,57.888,29.952,57.6,29.952,57.6,29.808,57.456,29.808,57.456,29.664,57.312,29.664,57.312,29.52,57.168,29.52,57.168,29.376,57.024,29.376,57.024,29.232,56.88,29.232,56.88,29.088,56.736,29.088,56.736,28.8,56.592,28.8,56.592,28.512,56.448,28.512,56.448,28.224,56.304,28.224,56.304,27.648,56.16,27.648,56.16,26.64,56.304,26.64,56.304,26.064,56.448,26.064,56.448,25.632,56.592,25.632,56.592,25.344,56.736,25.344,56.736,25.2,56.88,25.2,56.88,24.912,57.024,24.912,57.024,24.768,57.168,24.768,57.168,24.624,57.312,24.624,57.312,24.48,57.6,24.48,57.6,24.336,57.744,24.336,57.744,24.192,57.888,24.192,57.888,22.752,57.6,22.752,57.6,22.608,57.456,22.608,57.456,22.464,57.312,22.464,57.312,22.32,57.168,22.32,57.168,22.176,57.024,22.176,57.024,22.032,56.88,22.032,56.88,21.888,56.736,21.888,56.736,21.6,56.592,21.6,56.592,21.456,51.984,21.456,51.984,21.312,51.552,21.312,51.552,21.168,51.408,21.168,51.408,21.024,51.264,21.024,51.264,20.88,51.12,20.88,51.12,20.736,50.976,20.736,50.976,20.592,50.832,20.592,50.832,20.448,50.688,20.448,50.688,20.304,50.544,20.304,50.544,20.16,50.4,20.16,50.4,20.016,50.256,20.016,50.256,19.872,50.112,19.872,50.112,19.728,49.968,19.728,49.968,19.584,49.824,19.584,49.824,19.44,49.68,19.44,49.68,19.296,49.536,19.296,49.536,19.152,49.392,19.152,49.392,19.008,49.248,19.008,49.248,18.864,49.104,18.864,49.104,18.72,48.96,18.72,48.96,18.576,48.816,18.576,48.816,18.432,48.672,18.432,48.672,18.288,48.528,18.288,48.528,18.144,48.384,18.144,48.384,18,48.24,18,48.24,17.856,48.096,17.856,48.096,17.712,47.952,17.712,47.952,17.568,47.808,17.568,47.808,17.424,47.664,17.424,47.664,17.28,47.52,17.28,47.52,17.136,47.376,17.136,47.376,16.992,47.232,16.992,47.232,16.848,47.088,16.848,47.088,16.704,46.944,16.704,46.944,16.56,46.8,16.56,46.8,16.416" stroke-width="0" stroke="none" />
     <polygon fill="black" points="0,20.016,0,24.048,0.288,24.048,0.288,24.192,0.432,24.192,0.432,24.336,0.576,24.336,0.576,24.48,0.864,24.48,0.864,24.624,1.008,24.624,1.008,24.768,1.152,24.768,1.152,25.056,1.296,25.056,1.296,25.2,1.44,25.2,1.44,25.488,1.584,25.488,1.584,25.776,1.728,25.776,1.728,26.208,1.872,26.208,1.872,27.936,1.728,27.936,1.728,28.512,1.584,28.512,1.584,28.8,1.44,28.8,1.44,28.944,1.296,28.944,1.296,29.232,1.152,29.232,1.152,29.376,1.008,29.376,1.008,29.52,0.864,29.52,0.864,29.664,0.72,29.664,0.72,29.808,0.576,29.808,0.576,29.952,0.432,29.952,0.432,31.536,0.576,31.536,0.576,31.68,0.864,31.68,0.864,31.824,1.008,31.824,1.008,31.968,2.448,31.968,2.448,31.824,3.168,31.824,3.168,31.68,3.888,31.68,3.888,31.536,4.608,31.536,4.608,31.392,5.328,31.392,5.328,31.248,5.76,31.248,5.76,20.016" stroke-width="0" stroke="none" />
     <polygon fill="black" points="27.072,20.736,27.072,41.472,31.536,41.472,31.536,34.992,41.904,34.992,41.904,34.848,41.76,34.848,41.76,32.688,41.616,32.688,41.616,32.4,41.472,32.4,41.472,32.256,41.328,32.256,41.328,32.112,41.184,32.112,41.184,31.968,41.04,31.968,41.04,31.824,40.896,31.824,40.896,31.536,40.752,31.536,40.752,31.392,40.608,31.392,40.608,31.248,40.464,31.248,40.464,31.104,40.32,31.104,40.32,30.96,40.176,30.96,40.176,30.816,40.032,30.816,40.032,30.528,39.888,30.528,39.888,30.384,39.744,30.384,39.744,30.24,39.6,30.24,39.6,30.096,39.456,30.096,39.456,29.952,39.312,29.952,39.312,29.808,39.168,29.808,39.168,29.52,39.024,29.52,39.024,29.376,38.88,29.376,38.88,29.232,38.736,29.232,38.736,29.088,38.592,29.088,38.592,28.944,38.448,28.944,38.448,28.8,38.304,28.8,38.304,28.512,38.16,28.512,38.16,28.368,38.016,28.368,38.016,28.224,37.872,28.224,37.872,28.08,37.728,28.08,37.728,27.936,37.584,27.936,37.584,27.648,37.44,27.648,37.44,27.504,37.296,27.504,37.296,27.36,37.152,27.36,37.152,27.216,37.008,27.216,37.008,27.072,36.864,27.072,36.864,26.928,36.72,26.928,36.72,26.64,36.576,26.64,36.576,26.496,31.536,26.496,31.536,20.736" stroke-width="0" stroke="none" />
     <polygon fill="black" points="90.144,23.616,90.144,24.192,90.288,24.192,90.288,24.336,90.432,24.336,90.432,24.48,90.72,24.48,90.72,24.624,90.864,24.624,90.864,24.768,91.008,24.768,91.008,25.056,91.152,25.056,91.152,25.2,91.296,25.2,91.296,25.488,93.888,25.488,93.888,25.632,111.456,25.632,111.456,25.488,114.192,25.488,114.192,25.2,114.336,25.2,114.336,25.056,114.48,25.056,114.48,24.768,114.624,24.768,114.624,24.624,114.768,24.624,114.768,24.48,114.912,24.48,114.912,24.336,115.2,24.336,115.2,24.192,115.344,24.192,115.344,24.048,115.632,24.048,115.632,23.904,115.92,23.904,115.92,23.76,116.352,23.76,116.352,23.616" stroke-width="0" stroke="none" />
     <polygon fill="black" points="40.608,35.424,40.608,37.728,44.496,37.728,44.496,37.584,44.064,37.584,44.064,37.44,43.776,37.44,43.776,37.296,43.488,37.296,43.488,37.152,43.2,37.152,43.2,37.008,43.056,37.008,43.056,36.864,42.912,36.864,42.912,36.72,42.768,36.72,42.768,36.576,42.624,36.576,42.624,36.432,42.48,36.432,42.48,36.288,42.336,36.288,42.336,36,42.192,36,42.192,35.712,42.048,35.712,42.048,35.424" stroke-width="0" stroke="none" />
     <polygon fill="black" points="91.296,36,91.296,36.288,91.152,36.288,91.152,36.432,91.008,36.432,91.008,36.576,90.864,36.576,90.864,36.72,90.72,36.72,90.72,36.864,90.576,36.864,90.576,37.008,90.432,37.008,90.432,37.152,90.144,37.152,90.144,37.296,89.856,37.296,89.856,37.44,89.568,37.44,89.568,37.584,88.992,37.584,88.992,37.728,94.032,37.728,94.032,37.296,93.888,37.296,93.888,37.152,93.6,37.152,93.6,37.008,93.456,37.008,93.456,36.864,93.312,36.864,93.312,36.72,93.168,36.72,93.168,36.576,93.024,36.576,93.024,36.432,92.88,36.432,92.88,36.288,92.736,36.288,92.736,36" stroke-width="0" stroke="none" />
     <polygon fill="black" points="40.608,37.728,40.608,37.872,94.032,37.872,94.032,37.728" stroke-width="0" stroke="none" />
     <polygon fill="black" points="40.608,37.728,40.608,37.872,94.032,37.872,94.032,37.728" stroke-width="0" stroke="none" />
     <polygon fill="black" points="40.608,37.728,40.608,37.872,94.032,37.872,94.032,37.728" stroke-width="0" stroke="none" />
     <polygon fill="black" points="40.608,37.728,40.608,37.872,94.032,37.872,94.032,37.728" stroke-width="0" stroke="none" />
     <polygon fill="black" points="40.608,37.872,40.608,41.472,94.032,41.472,94.032,37.872" stroke-width="0" stroke="none" />
     <g id="connector0pad" >
      <circle cx="52.8096" fill="black" stroke-width="0" stroke="none" cy="5.03357"  r="2.7"/>
     </g>
    </g>
   </g>
  </g>
  <g partID="854250520">
   <g transform="translate(104.4,33.264)">
    <g id="groundplane" >
     <g id="connector0pad" >
      <polygon fill="black" points="14.4,0,14.4,0.144,7.056,0.144,7.056,2.016,19.584,2.016,19.584,1.872,19.008,1.872,19.008,1.728,18.576,1.728,18.576,1.584,18.288,1.584,18.288,1.44,18,1.44,18,1.296,17.856,1.296,17.856,1.152,17.712,1.152,17.712,1.008,17.568,1.008,17.568,0.864,17.424,0.864,17.424,0.72,17.28,0.72,17.28,0.576,17.136,0.576,17.136,0.432,16.992,0.432,16.992,0.144,16.848,0.144,16.848,0" stroke-width="0" stroke="none" />
      <polygon fill="black" points="22.896,0.432,22.896,0.576,22.752,0.576,22.752,0.72,22.608,0.72,22.608,0.864,22.464,0.864,22.464,1.008,22.32,1.008,22.32,1.152,22.176,1.152,22.176,1.296,22.032,1.296,22.032,1.44,21.744,1.44,21.744,1.584,21.456,1.584,21.456,1.728,21.024,1.728,21.024,1.872,20.448,1.872,20.448,2.016,25.632,2.016,25.632,1.584,25.488,1.584,25.488,1.44,25.2,1.44,25.2,1.296,25.056,1.296,25.056,1.152,24.912,1.152,24.912,1.008,24.768,1.008,24.768,0.864,24.624,0.864,24.624,0.72,24.48,0.72,24.48,0.576,24.336,0.576,24.336,0.432" stroke-width="0" stroke="none" />
      <polygon fill="black" points="7.056,2.016,7.056,2.16,25.632,2.16,25.632,2.016" stroke-width="0" stroke="none" />
      <polygon fill="black" points="7.056,2.016,7.056,2.16,25.632,2.16,25.632,2.016" stroke-width="0" stroke="none" />
      <polygon fill="black" points="7.056,2.16,7.056,2.592,7.2,2.592,7.2,2.736,7.488,2.736,7.488,2.88,7.632,2.88,7.632,3.024,7.92,3.024,7.92,3.168,8.064,3.168,8.064,3.312,8.208,3.312,8.208,3.6,8.352,3.6,8.352,3.744,8.496,3.744,8.496,4.032,8.64,4.032,8.64,4.176,8.784,4.176,8.784,4.608,8.928,4.608,8.928,5.328,9.072,5.328,9.072,5.76,20.88,5.76,20.88,5.904,21.312,5.904,21.312,6.048,21.6,6.048,21.6,6.192,21.888,6.192,21.888,6.336,22.032,6.336,22.032,6.48,22.176,6.48,22.176,6.624,22.464,6.624,22.464,6.768,22.608,6.768,22.608,6.912,22.752,6.912,22.752,7.2,22.896,7.2,22.896,7.344,24.336,7.344,24.336,7.2,24.48,7.2,24.48,6.912,24.624,6.912,24.624,6.768,24.768,6.768,24.768,6.624,24.912,6.624,24.912,6.48,25.2,6.48,25.2,6.336,25.344,6.336,25.344,6.192,25.632,6.192,25.632,2.16" stroke-width="0" stroke="none" />
      <polygon fill="black" points="9.072,5.76,9.072,6.048,8.928,6.048,8.928,6.624,8.784,6.624,8.784,7.056,8.64,7.056,8.64,7.344,8.496,7.344,8.496,7.632,8.352,7.632,8.352,7.776,8.208,7.776,8.208,7.92,8.064,7.92,8.064,8.064,7.92,8.064,7.92,8.208,7.776,8.208,7.776,8.352,7.632,8.352,7.632,8.496,7.344,8.496,7.344,8.64,7.056,8.64,7.056,8.784,6.768,8.784,6.768,8.928,6.192,8.928,6.192,9.072,16.56,9.072,16.56,8.352,16.704,8.352,16.704,7.776,16.848,7.776,16.848,7.632,16.992,7.632,16.992,7.344,17.136,7.344,17.136,7.2,17.28,7.2,17.28,6.912,17.424,6.912,17.424,6.768,17.568,6.768,17.568,6.624,17.712,6.624,17.712,6.48,18,6.48,18,6.336,18.144,6.336,18.144,6.192,18.432,6.192,18.432,6.048,18.72,6.048,18.72,5.904,19.152,5.904,19.152,5.76" stroke-width="0" stroke="none" />
      <polygon fill="black" points="1.296,7.344,1.296,7.632,1.152,7.632,1.152,7.776,1.008,7.776,1.008,7.92,0.864,7.92,0.864,8.064,0.72,8.064,0.72,8.208,0.576,8.208,0.576,8.352,0.432,8.352,0.432,8.496,0.144,8.496,0.144,8.64,0,8.64,0,9.072,4.896,9.072,4.896,8.928,4.464,8.928,4.464,8.784,4.176,8.784,4.176,8.64,3.888,8.64,3.888,8.496,3.6,8.496,3.6,8.352,3.456,8.352,3.456,8.208,3.312,8.208,3.312,8.064,3.168,8.064,3.168,7.92,3.024,7.92,3.024,7.776,2.88,7.776,2.88,7.632,2.736,7.632,2.736,7.344" stroke-width="0" stroke="none" />
      <polygon fill="black" points="0,9.072,0,9.216,16.416,9.216,16.416,9.072" stroke-width="0" stroke="none" />
      <polygon fill="black" points="0,9.072,0,9.216,16.416,9.216,16.416,9.072" stroke-width="0" stroke="none" />
      <polygon fill="black" points="0,9.216,0,11.232,15.84,11.232,15.84,11.088,15.984,11.088,15.984,10.944,16.128,10.944,16.128,10.8,16.272,10.8,16.272,10.656,16.416,10.656,16.416,9.216" stroke-width="0" stroke="none" />
     </g>
    </g>
   </g>
  </g>
  <g partID="854250530">
   <g transform="translate(2.88,39.312)">
    <g id="groundplane" >
     <g id="connector0pad" >
      <polygon fill="black" points="8.496,0,8.496,0.144,7.776,0.144,7.776,0.288,7.056,0.288,7.056,0.432,6.336,0.432,6.336,0.576,6.048,0.576,6.048,1.008,5.904,1.008,5.904,1.296,5.76,1.296,5.76,1.44,5.616,1.44,5.616,1.728,5.472,1.728,5.472,1.872,5.328,1.872,5.328,2.016,5.184,2.016,5.184,2.16,5.04,2.16,5.04,2.304,4.896,2.304,4.896,2.448,4.752,2.448,4.752,2.592,4.464,2.592,4.464,2.736,4.176,2.736,4.176,2.88,3.744,2.88,3.744,3.024,3.168,3.024,3.168,3.168,10.08,3.168,10.08,0" stroke-width="0" stroke="none" />
      <polygon fill="black" points="0,2.88,0,3.168,2.304,3.168,2.304,3.024,1.728,3.024,1.728,2.88" stroke-width="0" stroke="none" />
      <polygon fill="black" points="0,3.168,0,3.312,10.08,3.312,10.08,3.168" stroke-width="0" stroke="none" />
      <polygon fill="black" points="0,3.168,0,3.312,10.08,3.312,10.08,3.168" stroke-width="0" stroke="none" />
      <polygon fill="black" points="0,3.312,0,6.768,10.08,6.768,10.08,3.312" stroke-width="0" stroke="none" />
     </g>
    </g>
   </g>
  </g>
  <g partID="854250540">
   <g transform="translate(32.76,18.288)">
    <g id="groundplane" >
     <polygon fill="black" points="0,0,2.952,0,2.952,2.304,0,2.304" stroke-width="0" stroke="none" />
    </g>
   </g>
  </g>
  <g partID="854250550">
   <g transform="translate(99.072,8.496)">
    <g id="groundplane" >
     <polygon fill="black" points="0,0,2.304,0,2.304,3.096,0,3.096" stroke-width="0" stroke="none" />
    </g>
   </g>
  </g>
  <g partID="854250560">
   <g transform="translate(93.888,13.68)">
    <g id="groundplane" >
     <polygon fill="black" points="0,0,3.096,0,3.096,2.304,0,2.304" stroke-width="0" stroke="none" />
    </g>
   </g>
  </g>
  <g partID="854250570">
   <g transform="translate(108.288,11.232)">
    <g id="groundplane" >
     <polygon fill="black" points="0,0,3.096,0,3.096,2.304,0,2.304" stroke-width="0" stroke="none" />
    </g>
   </g>
  </g>
  <g partID="854122580">
   <g transform="translate(105.901,7.41582)">
    <g transform="matrix(0,1,-1,0,0,0)">
     <g id="copper0" >
      <g id="copper1" >
       <!-- <rect width="55" x="10" y="15.5" fill="none" height="55" stroke="rgb(255, 191, 0)" stroke-width="20" />  -->
       <circle cx="2.7" fill="none" stroke-width="1.44" stroke="black" cy="3.096" id="connector0pin"  r="1.98"/>
       <circle cx="31.5" fill="none" stroke-width="1.44" stroke="black" cy="3.096" id="connector1pin"  r="1.98"/>
      </g>
     </g>
    </g>
   </g>
  </g>
  <g partID="854149720">
   <g transform="translate(113.101,7.41582)">
    <g transform="matrix(0,1,-1,0,0,0)">
     <g id="copper0" >
      <g id="copper1" >
       <!-- <rect width="55" x="10" y="15.5" fill="none" height="55" stroke="rgb(255, 191, 0)" stroke-width="20" />  -->
       <circle cx="2.7" fill="none" stroke-width="1.44" stroke="black" cy="3.096" id="connector0pin"  r="1.98"/>
       <circle cx="31.5" fill="none" stroke-width="1.44" stroke="black" cy="3.096" id="connector1pin"  r="1.98"/>
      </g>
     </g>
    </g>
   </g>
  </g>
  <g partID="854115270">
   <g transform="translate(49.3087,41.6158)">
    <g transform="matrix(0,-1,1,0,0,0)">
     <g id="copper0" >
      <g id="copper1" >
       <!-- <rect width="55" x="10" y="15.5" fill="none" height="55" stroke="rgb(255, 191, 0)" stroke-width="20" />  -->
       <circle cx="2.7" fill="none" stroke-width="1.44" stroke="black" cy="3.096" id="connector0pin"  r="1.98"/>
       <circle cx="31.5" fill="none" stroke-width="1.44" stroke="black" cy="3.096" id="connector1pin"  r="1.98"/>
      </g>
     </g>
    </g>
   </g>
  </g>
  <g partID="854116990">
   <g transform="translate(62.4847,12.9958)">
    <g id="copper0" >
     <rect fill="none" stroke-width="1.44" stroke="black" height="3.96" id="square" width="3.96"  y="2.34" x="2.34"/>
     <circle cx="4.32" fill="none" stroke-width="1.44" stroke="black" cy="4.32" id="connector0pin"  r="1.98"/>
     <circle cx="33.12" fill="none" stroke-width="1.44" stroke="black" cy="4.32" id="connector7pin"  r="1.98"/>
     <circle cx="4.32" fill="none" stroke-width="1.44" stroke="black" cy="11.52" id="connector1pin"  r="1.98"/>
     <circle cx="33.12" fill="none" stroke-width="1.44" stroke="black" cy="11.52" id="connector6pin"  r="1.98"/>
     <circle cx="4.32" fill="none" stroke-width="1.44" stroke="black" cy="18.72" id="connector2pin"  r="1.98"/>
     <circle cx="33.12" fill="none" stroke-width="1.44" stroke="black" cy="18.72" id="connector5pin"  r="1.98"/>
     <circle cx="4.32" fill="none" stroke-width="1.44" stroke="black" cy="25.92" id="connector3pin"  r="1.98"/>
     <circle cx="33.12" fill="none" stroke-width="1.44" stroke="black" cy="25.92" id="connector4pin"  r="1.98"/>
    </g>
   </g>
  </g>
  <g partID="854126090">
   <g transform="translate(0.564664,26.6758)">
    <g id="copper0" >
     <circle cx="5.04" fill="none" stroke-width="1.44" stroke="black" cy="5.04" id="connector0pin"  r="2.088"/>
     <circle cx="5.04" fill="none" stroke-width="1.44" stroke="black" cy="12.24" id="connector1pin"  r="2.088"/>
    </g>
   </g>
  </g>
  <g partID="854149700">
   <g transform="translate(136.645,26.6758)">
    <g transform="matrix(0,1,-1,0,0,0)">
     <g id="copper0" >
      <circle cx="5.04" fill="none" stroke-width="1.44" stroke="black" cy="5.04" id="connector0pin"  r="2.088"/>
      <circle cx="5.04" fill="none" stroke-width="1.44" stroke="black" cy="12.24" id="connector1pin"  r="2.088"/>
     </g>
    </g>
   </g>
  </g>
  <g partID="854150920">
   <g transform="translate(0.564664,22.3558)">
    <g transform="matrix(0,-1,1,0,0,0)">
     <g id="copper0" >
      <circle cx="5.04" fill="none" stroke-width="1.44" stroke="black" cy="5.04" id="connector0pin"  r="2.088"/>
      <circle cx="5.04" fill="none" stroke-width="1.44" stroke="black" cy="12.24" id="connector1pin"  r="2.088"/>
     </g>
    </g>
   </g>
  </g>
  <g partID="854149220">
   <g transform="translate(136.645,37.4758)">
    <g transform="matrix(0,1,-1,0,0,0)">
     <g id="copper0" >
      <circle cx="5.04" fill="none" stroke-width="1.44" stroke="black" cy="5.04" id="connector0pin"  r="2.088"/>
      <circle cx="5.04" fill="none" stroke-width="1.44" stroke="black" cy="12.24" id="connector1pin"  r="2.088"/>
     </g>
    </g>
   </g>
  </g>
  <g partID="854129840">
   <g transform="translate(17.3407,21.5639)">
    <g transform="matrix(0,-1,1,0,0,0)">
     <g id="copper0" >
      <circle cx="11.4481" fill="none" connectorname="3" stroke-width="1.512" stroke="black" id="connector2pad" cy="8.064"  r="1.908"/>
      <circle cx="7.84813" fill="none" connectorname="2" stroke-width="1.512" stroke="black" id="connector1pad" cy="2.664"  r="1.908"/>
      <circle cx="4.24813" fill="none" connectorname="1" stroke-width="1.512" stroke="black" id="connector0pad" cy="8.064"  r="1.908"/>
     </g>
    </g>
   </g>
  </g>
  <g partID="854179620">
   <g transform="translate(37.2847,7.22249)">
    <g transform="matrix(0,1,-1,0,0,0)">
     <g id="copper0" >
      <g id="copper1" >
       <circle cx="2.88" fill="none" stroke-width="1.44" stroke="black" id="connector0pin" cy="2.88"  r="1.8"/>
       <circle cx="10.0933" fill="none" stroke-width="1.44" stroke="black" id="connector1pin" cy="2.88"  r="1.8"/>
      </g>
     </g>
    </g>
   </g>
  </g>
  <g partID="854215580">
   <g transform="translate(13.1165,45.804)">
    <g transform="matrix(0,-1,1,0,0,0)">
     <g id="copper0" flipped="1">
      <g transform="matrix(-1, 0, 0, 1, 20.9764, 0)">
       <g>
        <g>
         <g>
          <rect fill="black" stroke-width="0" stroke="none" height="19.8425" fill-opacity="1" style="fill-rule:nonzero;" width="19.8425" id="connector1pad" y="0.566928" x="0.566929"/>
          <rect fill="black" stroke-width="0" stroke="none" height="7.65354" fill-opacity="1" style="fill-rule:nonzero;" width="4.25197" id="connector2pad" y="26.3622" x="15.4488"/>
          <rect fill="black" stroke-width="0" stroke="none" height="7.65354" fill-opacity="1" style="fill-rule:nonzero;" width="4.25197" id="connector0pad" y="26.3622" x="1.27559"/>
         </g>
        </g>
       </g>
      </g>
     </g>
    </g>
   </g>
  </g>
  <g partID="854225100">
   <g transform="translate(121.869,3.98038)">
    <g id="copper0" >
     <circle cx="6.13543" fill="black" stroke-width="0" stroke="black" cy="6.13543" id="nonconn0"  r="4.53543"/>
    </g>
   </g>
  </g>
  <g partID="854248330">
   <line x1="16.4393" stroke-width="1.728" stroke-linecap="round" stroke="black" y1="10.1505" x2="18.6244" y2="12.3355"/>
  </g>
  <g partID="854242500">
   <line x1="6.59573" stroke-width="1.728" stroke-linecap="round" stroke="black" y1="15.3876" x2="9.28752" y2="10.1505"/>
  </g>
  <g partID="854248260">
   <line x1="9.28752" stroke-width="1.728" stroke-linecap="round" stroke="black" y1="10.1505" x2="16.4393" y2="10.1505"/>
  </g>
  <g partID="854242600">
   <line x1="5.60466" stroke-width="1.728" stroke-linecap="round" stroke="black" y1="29.5478" x2="5.60466" y2="19.4838"/>
  </g>
  <g partID="854248550">
   <line x1="23.5911" stroke-width="1.728" stroke-linecap="round" stroke="black" y1="20.9804" x2="16.4393" y2="20.9804"/>
  </g>
  <g partID="854248400">
   <line x1="16.4393" stroke-width="1.728" stroke-linecap="round" stroke="black" y1="20.9804" x2="14.3314" y2="18.8551"/>
  </g>
  <g partID="854242750">
   <line x1="24.5389" stroke-width="1.728" stroke-linecap="round" stroke="black" y1="19.0653" x2="23.5911" y2="20.9804"/>
  </g>
  <g partID="854243010">
   <line x1="32.5247" stroke-width="1.728" stroke-linecap="round" stroke="black" y1="17.3158" x2="27.3567" y2="17.3158"/>
  </g>
  <g partID="854243230">
   <line x1="32.5247" stroke-width="1.728" stroke-linecap="round" stroke="black" y1="10.1053" x2="27.3567" y2="10.1129"/>
  </g>
  <g partID="854243390">
   <line x1="44.7751" stroke-width="1.728" stroke-linecap="round" stroke="black" y1="29.9552" x2="51.0692" y2="37.3474"/>
  </g>
  <g partID="854244010">
   <line x1="52.4027" stroke-width="1.728" stroke-linecap="round" stroke="black" y1="17.3023" x2="52.4041" y2="12.1758"/>
  </g>
  <g partID="854250120">
   <line x1="59.5545" stroke-width="1.728" stroke-linecap="round" stroke="black" y1="24.4541" x2="52.4027" y2="17.3023"/>
  </g>
  <g partID="854243970">
   <line x1="64.7447" stroke-width="1.728" stroke-linecap="round" stroke="black" y1="24.4983" x2="59.5545" y2="24.4541"/>
  </g>
  <g partID="854244060">
   <line x1="97.6647" stroke-width="1.728" stroke-linecap="round" stroke="black" y1="38.9158" x2="100.745" y2="38.9158"/>
  </g>
  <g partID="854244160">
   <line x1="109.821" stroke-width="1.728" stroke-linecap="round" stroke="black" y1="31.8102" x2="97.6646" y2="31.7295"/>
  </g>
  <g partID="854244170">
   <line x1="109.952" stroke-width="1.728" stroke-linecap="round" stroke="black" y1="36.8565" x2="109.821" y2="31.8102"/>
  </g>
  <g partID="854244280">
   <line x1="122.237" stroke-width="1.728" stroke-linecap="round" stroke="black" y1="31.7299" x2="109.821" y2="31.8102"/>
  </g>
  <g partID="854244380">
   <line x1="122.882" stroke-width="1.728" stroke-linecap="round" stroke="black" y1="44.0593" x2="120.856" y2="46.1138"/>
  </g>
  <g partID="854249270">
   <line x1="120.856" stroke-width="1.728" stroke-linecap="round" stroke="black" y1="46.1138" x2="102.874" y2="46.1138"/>
  </g>
  <g partID="854249340">
   <line x1="102.874" stroke-width="1.728" stroke-linecap="round" stroke="black" y1="46.1138" x2="102.824" y2="40.9757"/>
  </g>
  <g partID="854244610">
   <line x1="131.605" stroke-width="1.728" stroke-linecap="round" stroke="black" y1="33.8838" x2="131.605" y2="40.3478"/>
  </g>
  <g partID="854244730">
   <line x1="7.73056" stroke-width="1.728" stroke-linecap="round" stroke="black" y1="38.4906" x2="15.0373" y2="37.0293"/>
  </g>
  <g partID="854244910">
   <line x1="131.686" stroke-width="1.728" stroke-linecap="round" stroke="black" y1="24.4541" x2="131.629" y2="29.548"/>
  </g>
  <g partID="854249590">
   <line x1="117.178" stroke-width="1.728" stroke-linecap="round" stroke="black" y1="24.4541" x2="131.686" y2="24.4541"/>
  </g>
  <g partID="854244790">
   <line x1="117.178" stroke-width="1.728" stroke-linecap="round" stroke="black" y1="2.99867" x2="117.178" y2="24.4541"/>
  </g>
  <g partID="854244800">
   <line x1="66.9106" stroke-width="1.728" stroke-linecap="round" stroke="black" y1="3.20301" x2="117.178" y2="2.99867"/>
  </g>
  <g partID="854245390">
   <line x1="66.9106" stroke-width="1.728" stroke-linecap="round" stroke="black" y1="3.20301" x2="66.8201" y2="15.2559"/>
  </g>
  <g partID="854245200">
   <line x1="34.8483" stroke-width="1.728" stroke-linecap="round" stroke="black" y1="3.36171" x2="66.9106" y2="3.20301"/>
  </g>
  <g partID="854245210">
   <line x1="34.5281" stroke-width="1.728" stroke-linecap="round" stroke="black" y1="8.22654" x2="34.8483" y2="3.36171"/>
  </g>
  <g partID="854245480">
   <line x1="107.945" stroke-width="1.728" stroke-linecap="round" stroke="black" y1="10.1158" x2="104.865" y2="10.1158"/>
  </g>
  <g partID="854245680">
   <line x1="102.825" stroke-width="1.728" stroke-linecap="round" stroke="black" y1="12.1757" x2="102.874" y2="17.3023"/>
  </g>
  <g partID="854249770">
   <line x1="102.874" stroke-width="1.728" stroke-linecap="round" stroke="black" y1="17.3023" x2="97.6647" y2="17.312"/>
  </g>
  <g partID="854249040">
   <line x1="48.7246" stroke-width="1.728" stroke-linecap="round" stroke="black" y1="46.1138" x2="45.8256" y2="44.1284"/>
  </g>
  <g partID="854247050">
   <line x1="59.5545" stroke-width="1.728" stroke-linecap="round" stroke="black" y1="46.1138" x2="48.7246" y2="46.1138"/>
  </g>
  <g partID="854246700">
   <line x1="45.2509" stroke-width="1.728" stroke-linecap="round" stroke="black" y1="17.3023" x2="59.5545" y2="31.8102"/>
  </g>
  <g partID="854246880">
   <line x1="59.5545" stroke-width="1.728" stroke-linecap="round" stroke="black" y1="31.8102" x2="59.5545" y2="46.1138"/>
  </g>
  <g partID="854246710">
   <line x1="36.2847" stroke-width="1.728" stroke-linecap="round" stroke="black" y1="17.3135" x2="45.2509" y2="17.3023"/>
  </g>
  <g partID="854248010">
   <line x1="81.2142" stroke-width="1.728" stroke-linecap="round" stroke="black" y1="31.8102" x2="94.1533" y2="18.7777"/>
  </g>
  <g partID="854247590">
   <line x1="81.2142" stroke-width="1.728" stroke-linecap="round" stroke="black" y1="46.1138" x2="81.2142" y2="31.8102"/>
  </g>
  <g partID="854247600">
   <line x1="59.5545" stroke-width="1.728" stroke-linecap="round" stroke="black" y1="46.1138" x2="81.2142" y2="46.1138"/>
  </g>
 </g>
</svg>
